<svg version="1.1" xmlns="http://www.w3.org/2000/svg" xmlns:xlink="http://www.w3.org/1999/xlink" width="102.72443" height="107.40183" viewBox="0,0,102.72443,107.40183"><g transform="translate(-191.75451,-135.46922)"><g data-paper-data="{&quot;isPaintingLayer&quot;:true}" fill-rule="nonzero" stroke-linejoin="miter" stroke-miterlimit="10" stroke-dasharray="" stroke-dashoffset="0" style="mix-blend-mode: normal"><path d="M257.00923,179.8777c-0.90201,12.59538 -9.29124,22.25748 -18.73773,21.58098c-9.44648,-0.6765 -16.37315,-11.43553 -15.47114,-24.03091c0.90201,-12.59538 9.29115,-22.2575 18.73773,-21.58098c9.44648,0.6765 16.37325,11.43555 15.47124,24.03093z" fill="#282828" stroke="#282828" stroke-width="4.5" stroke-linecap="butt"/><path d="M249.95853,212.63237c-0.45101,6.29769 -5.92193,11.03733 -12.21958,10.58638c-6.29769,-0.45101 -11.03733,-5.92193 -10.58633,-12.21962c0.45101,-6.29769 5.92193,-11.03733 12.21962,-10.58633c6.29769,0.45101 11.0373,5.92187 10.58629,12.21956z" fill="#282828" stroke="#282828" stroke-width="4.5" stroke-linecap="butt"/><path d="M224.08815,164.4468l-9.39062,-8.91038l1.276,-17.8172" fill="none" stroke="#282828" stroke-width="4.5" stroke-linecap="round"/><path d="M264.64029,138.3392l0.65788,20.821l-8.73174,6.89625" fill="none" stroke="#282828" stroke-width="4.5" stroke-linecap="round"/><path d="M292.22894,153.20902l-16.95603,21.7086l-17.76703,3.02567" fill="none" stroke="#282828" stroke-width="4.5" stroke-linecap="round"/><path d="M222.17698,176.12958l-8.88306,-0.99436l-19.28941,-19.26038" fill="none" stroke="#282828" stroke-width="4.5" stroke-linecap="round"/><path d="M253.55786,193.06186l15.05615,4.07364l12.74159,35.17971" fill="none" stroke="#282828" stroke-width="4.5" stroke-linecap="round"/><path d="M202.50393,230.77425l2.65309,-32.04534l19.19336,-7.9379" fill="none" stroke="#282828" stroke-width="4.5" stroke-linecap="round"/><path d="M214.26956,239.51711l3.60431,-28.05341l7.71283,-2.67115" fill="none" stroke="#282828" stroke-width="4.5" stroke-linecap="round"/><path d="M250.46305,207.28371l7.30456,3.03032l9.59163,30.30702" fill="none" stroke="#282828" stroke-width="4.5" stroke-linecap="round"/><path d="M234.89209,232.17823l-2.57285,-3.30094l2.25743,-4.08259" fill="none" stroke="#282828" stroke-width="3.5" stroke-linecap="round"/><path d="M241.51156,223.05031l2.72534,6.55392l-2.59887,3.06187" fill="none" stroke="#282828" stroke-width="3.5" stroke-linecap="round"/><g stroke="none" stroke-width="0" stroke-linecap="butt"><path d="M237.94428,220.90557c-0.09292,1.51445 -1.37029,2.64156 -2.85296,2.51757c-1.48277,-0.1239 -2.60933,-1.45202 -2.51641,-2.96647c0.09292,-1.51445 1.37022,-2.64168 2.853,-2.51778c1.48277,0.1239 2.6094,1.45214 2.51648,2.9666z" fill="#dcdcdc"/><path d="M235.77885,221.58013c0,0.34518 -0.26117,0.625 -0.58333,0.625c-0.32217,0 -0.58333,-0.27982 -0.58333,-0.625c0,-0.34518 0.26117,-0.625 0.58333,-0.625c0.32217,0 0.58333,0.27982 0.58333,0.625z" fill="#282828"/></g><g stroke="none" stroke-width="0" stroke-linecap="butt"><path d="M244.17505,221.05942c-0.09293,1.51445 -1.37029,2.64156 -2.85295,2.51757c-1.48278,-0.12391 -2.60934,-1.45202 -2.51641,-2.96647c0.09293,-1.51445 1.37023,-2.64169 2.853,-2.51778c1.48278,0.12391 2.6094,1.45215 2.51647,2.9666z" fill="#dcdcdc"/><path d="M242.00962,221.73397c0,0.34518 -0.26117,0.625 -0.58334,0.625c-0.32217,0 -0.58333,-0.27982 -0.58333,-0.625c0,-0.34518 0.26116,-0.625 0.58333,-0.625c0.32217,0 0.58334,0.27982 0.58334,0.625z" fill="#282828"/></g></g></g></svg>