<svg version="1.1" xmlns="http://www.w3.org/2000/svg" xmlns:xlink="http://www.w3.org/1999/xlink" width="193.37898" height="212.41859" viewBox="0,0,193.37898,212.41859"><g transform="translate(-155.5,-57.58141)"><g data-paper-data="{&quot;isPaintingLayer&quot;:true}" stroke-linejoin="miter" stroke-miterlimit="10" stroke-dasharray="" stroke-dashoffset="0" style="mix-blend-mode: normal"><path d="M247.3884,162.84249c0,0 0.33424,-44.79377 9.45905,-56.558c15.48325,-19.96188 27.93302,30.27851 47.86179,22.78281c18.13117,-6.81958 30.90236,-36.90978 30.90236,-36.90978" fill="none" fill-rule="nonzero" stroke="#ab9f53" stroke-width="10" stroke-linecap="round"/><path d="M297.5,203.5c0,36.72694 -31.78778,66.5 -71,66.5c-39.21222,0 -71,-29.77306 -71,-66.5c0,-36.72694 31.78778,-66.5 71,-66.5c39.21222,0 71,29.77306 71,66.5z" fill="#111111" fill-rule="nonzero" stroke="none" stroke-width="0" stroke-linecap="butt"/><g fill-rule="evenodd" stroke="none" stroke-width="1" stroke-linecap="butt"><g><path d="M329.3689,93.3304c0.35347,-4.29349 3.38281,-2.8458 2.78225,-6.31742c-0.60058,-3.47171 -1.60241,-6.72811 1.59003,-9.39649c0,0 -0.88755,2.05076 -0.03023,4.89432c0,0 3.12145,-2.65621 2.22671,-7.82835c-0.89475,-5.17212 -0.43094,-8.82788 2.72727,-11.27153c0,0 -2.37446,4.86202 -0.0671,4.68178c2.30745,-0.18026 0.35347,-4.29349 2.43966,-7.86508c2.08607,-3.57165 7.24208,-2.49339 7.24208,-2.49339c0,0 -4.43096,1.42325 -3.53944,4.04199c0,0 2.29967,-1.49238 3.29306,-1.66424c0,0 -2.33643,1.27984 -1.90747,3.75959c0.42899,2.47984 1.21342,7.0143 -0.31283,9.17556c0,0 2.69123,-1.34122 3.0525,-4.32258c0,0 0.07998,5.53199 -2.26349,7.6157c-2.41444,2.09607 1.38306,1.65805 1.38306,1.65805c0,0 -1.34239,3.22401 -3.18732,3.54317c0,0 0.60058,3.47171 -1.55201,5.81432c0,0 2.41776,0.4574 3.90724,-1.91639c0,0 -1.34687,4.46534 -4.46908,5.00547c-3.08791,0.31528 -2.35637,4.89468 -2.35637,4.89468c0,0 -7.53693,5.77782 -8.64293,8.14727c-0.60659,1.29953 -2.31558,-10.1564 -2.31558,-10.1564z" fill="#ef8a2e"/><path d="M336.58471,93.87122c0,0 -1.34882,-1.88278 -1.97135,-5.05879c-0.69342,-3.16384 0.95731,-6.29526 0.95731,-6.29526c0,0 -0.65029,2.15571 0.44123,2.55062c1.1037,0.46581 -0.03551,-4.00719 0.47274,-6.13835c0.50834,-2.13116 1.99068,-3.70107 1.99068,-3.70107c0,0 -0.79471,1.74287 0.02518,2.25778c0,0 1.95001,-0.55625 0.42702,-3.86839c-1.52299,-3.31214 -2.39646,-2.86913 -2.39646,-2.86913c0,0 2.1139,-0.87652 3.02216,0.57176c0,0 -0.507,-1.6636 0.9973,-3.52922c1.50429,-1.86562 1.61138,-3.78136 1.32425,-6.28574c0,0 3.36535,2.5556 2.19912,5.53031c-1.16634,2.97464 -0.11091,5.27309 0.88695,3.86c0,0 -0.13608,3.01532 -1.61138,3.78136c0,0 1.14568,1.55311 0.20902,3.32054c-0.93659,1.76732 -0.39024,4.08095 -1.7332,5.18892c0,0 1.42884,-0.6121 2.06935,-2.40119c0,0 -0.29476,4.21034 -2.7512,5.21903c-2.44418,1.07957 -0.71605,3.04275 1.02826,1.71943c0,0 -1.48949,2.3738 -3.34398,3.05953c-1.81785,0.89821 -2.24295,3.08787 -2.24295,3.08787z" fill="#efce45"/><path d="M336.39051,91.05896c0,0 0.72117,-2.16798 -0.81598,-3.87228c0,0 0.6483,-0.47697 1.63721,0.59242c0,0 1.03464,-1.20055 -0.22715,-6.38219c0,0 1.26238,-0.72922 1.67398,0.80498c0,0 -0.8767,-2.11048 0.5935,-3.75118c1.47008,-1.6408 2.20608,-3.3005 1.75258,-5.92202c-0.4535,-2.6215 1.03406,-3.31667 1.03406,-3.31667c0,0 -0.74569,2.02631 0.15286,3.84109c0.98179,1.87337 -1.55011,4.13559 -0.47091,4.45972c1.0792,0.32415 1.1153,-1.57941 1.1153,-1.57941c0,0 0.28969,2.94176 -0.86236,4.30862c-1.16433,1.29598 -2.17389,4.75433 -0.20194,3.90237c0,0 -1.09078,1.72109 -2.4267,2.02519c-1.32368,0.3749 -1.26172,2.84522 0.65408,2.5138c0.01226,0.07088 -3.30789,1.15597 -3.60851,2.37555z" fill="#faff97"/></g><path d="M332.20915,76.60431c0,0 0.04837,-1.83268 1.63142,-2.39844c0,0 0.05928,2.03296 -1.63142,2.39844z" fill="#e05b27"/><path d="M336.50913,63.01748c0,0 0.36373,-2.54397 2.21835,-3.22962c1.24043,-0.43349 1.47008,-1.6408 1.47008,-1.6408c0,0 0.18907,1.93751 -1.23722,2.9869c-1.43853,0.9786 -1.99389,1.14766 -2.45122,1.88353z" fill="#e05b27"/><path d="M347.25663,64.73386c-0.22318,-1.71269 0.73085,-2.53458 0.73085,-2.53458c0.29152,1.26315 -0.80183,2.54685 -0.73085,2.53458z" fill="#e05b27"/><path d="M345.93562,81.59976c2.07001,-0.28509 2.78863,-2.89045 2.78863,-2.89045c0.95793,3.84773 -2.84733,2.97361 -2.78863,2.89045z" fill="#e05b27"/><path d="M345.76468,82.7239c0,0 1.1572,-0.49201 1.96483,-0.04799c0.05872,-0.08316 -0.63603,0.54785 -1.96483,0.04799z" fill="#e05b27"/></g></g></g></svg>