<svg version="1.1" xmlns="http://www.w3.org/2000/svg" xmlns:xlink="http://www.w3.org/1999/xlink" width="92.70837" height="87.89461" viewBox="0,0,92.70837,87.89461"><g transform="translate(-193.64582,-136.05269)"><g data-paper-data="{&quot;isPaintingLayer&quot;:true}" fill-rule="nonzero" stroke="none" stroke-width="0" stroke-linecap="butt" stroke-linejoin="miter" stroke-miterlimit="10" stroke-dasharray="" stroke-dashoffset="0" style="mix-blend-mode: normal"><g><path d="M201.60728,157.78104l34.31677,-10.72507l39.66373,10.72507l-3.52656,49.8295l-37.12668,16.33676l-30.36171,-15.01623l-2.9655,-51.15003" fill="#fb2121"/><path d="M201.60728,157.78104l34.31677,-10.72507l39.93178,10.72507l-40.15354,10.94523l-34.09502,-10.94523" fill="#fb2121"/><path d="M235.70229,168.72627l40.15354,-10.94523l-3.79462,49.8295l-37.12668,16.33676l0.7678,-55.22103" fill="#fb2121"/><path d="M226.4368,149.54976l37.25084,11.5459l-2.34993,52.3714c0,0 -13.19248,5.38977 -13.03192,5.31704c0.16052,-0.07273 1.7326,-53.96491 1.7326,-53.96491l-35.23528,-11.3855z" fill="#f9c780"/><path d="M248.79556,150.35569l12.54054,3.46525l-37.74898,11.01475l0.16713,54.32075l-10.41569,-5.15155l-0.85555,-52.73205l36.31258,-10.91715" fill="#f9c780"/><path d="M260.05691,161.4797c-11.10078,0 -21.02173,-1.94779 -23.53703,-2.4823l1.80213,-2.47905c2.68576,0.14402 5.33194,0.21679 7.87207,0.21679c0.00176,0 0.00176,0 0.00336,0c25.64871,0 36.6468,-7.19867 39.44185,-9.43438c-0.39221,3.21381 -3.48347,7.26659 -3.51812,7.31113l-0.36417,0.47167l0.57103,0.17542c1.55222,0.47828 3.01677,0.6388 4.02615,0.6867c-6.42242,3.67383 -15.25945,5.53395 -26.29728,5.53395z" fill="#f9c780"/><path d="M212.65519,162.1664c-7.98645,0 -14.37423,-1.86176 -19.00938,-5.53719c0.74469,-0.05126 1.80874,-0.21839 2.93234,-0.69663l0.42361,-0.17878l-0.22336,-0.40214c-0.02483,-0.04294 -2.17111,-3.93019 -2.53356,-7.13407c2.39948,2.50709 10.49503,9.20601 28.47019,9.20601c1.81371,0 3.70026,-0.06953 5.61153,-0.21022l1.31072,2.48727c-1.86669,0.54616 -9.00577,2.46576 -16.98213,2.46576z" fill="#f9c780"/><path d="M234.93449,152.50037c0,0 9.40619,-7.39395 12.86979,-11.35394c3.46361,-3.96014 11.59556,-7.56941 12.66966,-2.86618c1.07394,4.70307 1.02764,4.3208 3.91369,6.631c2.88941,2.3102 4.867,8.3322 -4.2083,11.55086c-9.07517,3.21706 -17.5977,3.85085 -22.7957,3.10952c-5.19785,-0.74469 -4.11558,-5.75074 -2.44914,-7.07127z" fill="#f9c780"/><path d="M229.215,157.7794c-4.65689,-0.27603 -17.22629,-1.97352 -22.46176,-4.28247c-5.23563,-2.3131 -8.76966,-4.35212 -5.91462,-7.13767c2.85504,-2.78754 6.933,-3.74054 9.85553,-7.68144c2.92042,-3.9411 6.45656,1.15755 9.51599,3.05959c3.05959,1.90188 9.00487,8.34417 9.00487,8.34417c2.41328,1.88562 4.65889,7.9678 0,7.69787z" fill="#f9c780"/><path d="M228.55333,153.43366c-0.11086,-2.30844 2.85961,-2.63946 6.27031,-1.97919c3.41058,0.66027 0.33101,2.09181 1.64818,4.73127c1.32065,2.64122 1.15516,3.87075 0.22672,4.1322c-4.98106,1.42322 -5.93597,0.42697 -7.59584,-0.50311c-2.43424,-1.35705 -0.43851,-4.071 -0.54941,-6.38121z" fill="#f9c780"/></g></g></g></svg>