<svg version="1.1" xmlns="http://www.w3.org/2000/svg" xmlns:xlink="http://www.w3.org/1999/xlink" width="164.20897" height="119.02242" viewBox="0,0,164.20897,119.02242"><g transform="translate(-135.9129,-104.35468)"><g data-paper-data="{&quot;isPaintingLayer&quot;:true}" stroke="none" stroke-linecap="butt" stroke-linejoin="miter" stroke-miterlimit="10" stroke-dasharray="" stroke-dashoffset="0" style="mix-blend-mode: normal"><path d="M187.01706,110.45189c-0.94438,2.3069 -3.30174,10.56456 -4.91629,12.45085c-1.71421,2.02735 -13.44968,21.10424 -17.67181,24.52561c-11.70219,7.71022 -25.88181,3.85956 -27.46294,-1.13218c-4.55807,-7.82881 6.99029,-16.92754 9.71726,-19.73182c3.70265,-3.73981 8.02664,-6.12112 12.71169,-8.35499c4.36667,-2.08011 23.50086,-8.41334 27.6221,-7.75748z" fill="#77bd22" fill-rule="evenodd" stroke-width="1"/><path d="M188.55861,108.16263c-2.99146,1.41089 -6.92045,1.83493 -10.14841,2.77028c-4.18189,1.21176 -8.38505,2.32243 -12.582,3.45269c-6.0978,1.63801 -12.52972,3.22558 -18.70984,0.96444c-2.23464,-0.82229 -6.11516,-2.67062 -5.48988,-5.64484c0.59539,-2.72709 5.15626,-3.83281 7.3721,-4.31641c3.24941,-0.64317 6.5502,-0.9887 9.86116,-1.03213c1.86808,-0.08137 22.44702,2.36033 29.69686,3.80597z" fill="#77bd22" fill-rule="evenodd" stroke-width="1"/><path d="M193.18623,172.33086c0,0 -1.32377,-15.06877 -1.17438,-23.63359c0.16798,-9.63064 -9.01973,-28.92575 -6.49477,-41.5542c1.10055,-5.50432 19.49243,10.22554 19.49243,10.22554c0,0 13.68982,8.88196 27.53149,21.11711c12.40547,10.96564 24.80715,25.00196 29.65737,31.53364c2.08275,2.8048 -4.67536,-0.09544 -4.72864,0.40006c-0.11127,1.0348 -14.37437,-16.48144 -28.82087,-28.29429c-12.07087,-9.8703 -37.53397,-28.46851 -37.61743,-27.69236c-0.20198,1.87845 7.10652,25.23618 6.03719,35.18096c-1.40206,13.03912 1.54993,27.1908 1.54993,27.1908z" fill="#a57442" fill-rule="nonzero" stroke-width="0"/><path d="M226.21648,195.17855c0,14.38324 -12.54447,26.04316 -28.01885,26.04316c-15.47438,0 -28.01885,-11.65992 -28.01885,-26.04316c0,-14.38324 12.54447,-26.04316 28.01885,-26.04316c15.47438,0 28.01885,11.65992 28.01885,26.04316z" fill="#c30404" fill-rule="nonzero" stroke-width="0"/><path d="M199.16219,179.99836c-0.20943,-1.39623 -6.11656,-5.15057 -10.82884,-4.44373c-4.71228,0.70684 -9.9603,5.6072 -9.75087,7.00343c0.20943,1.39623 4.83837,5.47012 9.55065,4.76328c4.71228,-0.70684 11.23849,-5.92675 11.02906,-7.32298z" fill="#e90505" fill-rule="nonzero" stroke-width="0"/><path d="M299.31664,186.86062c3.85611,15.46819 -6.50861,31.37077 -23.15024,35.51942c-16.64163,4.14865 -33.25835,-5.02765 -37.11446,-20.49584c-3.85611,-15.46819 6.50861,-31.37077 23.15024,-35.51942c16.64163,-4.14865 33.25835,5.02765 37.11446,20.49584z" fill="#c30404" fill-rule="nonzero" stroke-width="0"/><path d="M268.06912,172.03668c-0.59956,-1.4454 -9.87609,0.89397 -14.75432,2.91748c-4.87823,2.02351 -9.20834,9.65914 -8.60878,11.10454c0.59956,1.4454 6.66986,4.58558 11.54809,2.56207c2.08056,-0.86303 6.88148,-2.14591 9.09166,-5.27827c2.97196,-4.21198 3.0672,-10.47688 2.72335,-11.30582z" fill="#e90505" fill-rule="nonzero" stroke-width="0"/></g></g></svg>