<svg version="1.1" xmlns="http://www.w3.org/2000/svg" xmlns:xlink="http://www.w3.org/1999/xlink" width="221.55614" height="248.21864" viewBox="0,0,221.55614,248.21864"><g transform="translate(-129.22193,-55.86473)"><g data-paper-data="{&quot;isPaintingLayer&quot;:true}" fill-rule="nonzero" stroke="#9a9a9a" stroke-width="4" stroke-linejoin="miter" stroke-miterlimit="10" stroke-dasharray="" stroke-dashoffset="0" style="mix-blend-mode: normal"><path d="M151.78105,209.63847c0,0 -27.60608,-85.04702 -18.83962,-117.05122c10.47391,-38.23768 185.39427,-53.32822 209.73949,-0.97543c18.7056,40.22518 -11.5985,118.02665 -11.5985,118.02665z" fill="#828282" stroke-linecap="butt"/><path d="M174.50271,216.29668l-5.92103,-101.15628" fill="none" stroke-linecap="round"/><path d="M203.74248,79.21482l-0.24353,136.10642" fill="none" stroke-linecap="round"/><path d="M249.89295,211.41951l0.12175,-118.04192" fill="none" stroke-linecap="round"/><path d="M281.72541,105.5977l-0.90316,116.55152" fill="none" stroke-linecap="round"/><path d="M308.85198,218.24752l4.65836,-110.85688" fill="none" stroke-linecap="round"/><path d="M227.84764,103.90099l-0.18516,112.39566" fill="none" stroke-linecap="round"/><g stroke-linecap="butt"><path d="M150.33919,296.45145c-1.89713,-4.23402 0.4912,-49.58332 0.4912,-49.58332l179.76084,-0.99142c0,0 3.37347,44.87129 1.9648,50.57476c-0.11974,0.80899 -44.07657,5.13373 -89.03765,5.6319c-46.09659,0.51075 -93.22365,-2.84866 -93.17917,-5.6319z" fill="#828282"/><path d="M150.82245,247.59695v-39.90933h179.77671v39.90933z" fill="#9a9a9a"/></g></g></g></svg>