<svg version="1.1" xmlns="http://www.w3.org/2000/svg" xmlns:xlink="http://www.w3.org/1999/xlink" width="165.77367" height="97.67917" viewBox="0,0,165.77367,97.67917"><g transform="translate(-157.11317,-131.16041)"><g data-paper-data="{&quot;isPaintingLayer&quot;:true}" fill-rule="nonzero" stroke="none" stroke-linecap="butt" stroke-linejoin="miter" stroke-miterlimit="10" stroke-dasharray="" stroke-dashoffset="0" style="mix-blend-mode: normal"><path d="M322.88367,180.19615c0.15037,5.42458 -5.10344,5.87911 -5.94891,8.79273c-6.58118,22.67971 -37.60796,39.8507 -74.89013,39.8507c-37.20608,0 -68.18229,-17.10097 -74.84953,-39.71192c-0.87191,-2.95696 -9.92043,-0.42273 -10.08017,-10.01306c-0.15037,-9.02764 9.33797,-6.09751 10.4509,-9.41963c7.37834,-22.02459 37.92128,-38.53456 74.4788,-38.53456c37.67351,0 68.95963,17.53336 75.08927,40.5667c0.71561,2.68905 5.55755,1.5345 5.74977,8.46904z" fill="#ece505" stroke-width="0"/><g fill="#eaedaf" stroke-width="0.72777"><path d="M207.65683,208.8351c0.89955,0.05035 0.93197,2.98154 -2.25294,3.05097c-3.16101,0.06944 -3.70398,-2.83629 -2.57143,-2.90573c0.5604,-0.03587 0.3185,1.03812 2.40652,1.03812c2.08761,0 1.9697,-1.20882 2.41785,-1.18335z"/><path d="M234.2711,213.84019c1.12364,0.06105 1.17104,3.72482 -2.82508,3.81538c-3.95156,0.09056 -4.62987,-3.54804 -3.21409,-3.63425c0.70465,-0.04629 0.39791,1.29908 3.00783,1.29908c2.60992,0 2.46243,-1.51174 3.03134,-1.4802z"/><path d="M261.91783,208.45607c1.12647,0.05671 1.17064,3.71845 -2.82225,3.81538c-3.95156,0.09056 -4.62987,-3.54602 -3.21449,-3.63425c0.7079,-0.04861 0.39832,1.29908 3.00824,1.29908c2.60952,0 2.46203,-1.50971 3.0285,-1.4802z"/><path d="M256.71297,218.05137c1.12323,0.06105 1.1678,3.72482 -2.81941,3.81538c-3.95723,0.09056 -4.6327,-3.54804 -3.22017,-3.63425c0.70465,-0.04629 0.40683,1.29908 3.01067,1.29908c2.60425,0 2.46243,-1.51174 3.02891,-1.4802z"/><path d="M243.33351,197.17601c0.89632,0.04861 0.93481,2.97748 -2.25902,3.05531c-3.15533,0.06741 -3.70398,-2.84034 -2.57143,-2.91007c0.5604,-0.03559 0.3185,1.03812 2.40652,1.03812c2.08761,0 1.9697,-1.20852 2.42393,-1.18335z"/><path d="M192.46408,191.7919c0.89632,0.04629 0.93481,2.97748 -2.25902,3.05328c-3.15533,0.06944 -3.70398,-2.83831 -2.57143,-2.90573c0.5604,-0.04021 0.3185,1.03579 2.40611,1.03579c2.08802,0 1.97011,-1.20651 2.42434,-1.18335z"/><path d="M220.6708,199.87545c0.89915,0.04224 0.93481,2.97546 -2.25294,3.05126c-3.16141,0.07146 -3.70398,-2.83629 -2.57184,-2.90602c0.5604,-0.0379 0.3185,1.03812 2.40652,1.03812c2.08802,0 1.97011,-1.21055 2.41826,-1.18335z"/><path d="M197.36828,180.85324c0.78408,0.04398 0.81649,2.60888 -1.97902,2.66992c-2.76917,0.05903 -3.24691,-2.48273 -2.25577,-2.54378c0.48949,-0.02719 0.28283,0.90965 2.10545,0.90965c1.82829,0 1.72495,-1.05692 2.12935,-1.03579z"/><path d="M225.8785,180.66779c0.89671,0.04427 0.93481,2.97748 -2.25902,3.05126c-3.15209,0.07146 -3.70357,-2.83629 -2.57143,-2.90602c0.5604,-0.0379 0.3185,1.03812 2.40652,1.03812c2.08802,0 1.9697,-1.20852 2.42393,-1.18335z"/><path d="M212.5582,164.28396c0.79016,0.03993 0.81973,2.60656 -1.97578,2.66558c-2.76633,0.06105 -3.24083,-2.48244 -2.2501,-2.54349c0.49233,-0.02748 0.27999,0.90965 2.10545,0.90965c1.82545,0 1.72536,-1.05286 2.12043,-1.03175z"/><path d="M284.07931,191.7919c0.89915,0.04629 0.93481,2.97748 -2.25334,3.05328c-3.15817,0.07146 -3.70073,-2.83831 -2.56819,-2.90805c0.55715,-0.0379 0.31525,1.03812 2.40327,1.03812c2.08761,0 1.9697,-1.20651 2.41826,-1.18335z"/><path d="M278.19289,154.31775c0.64873,0.03385 0.67264,2.14364 -1.62771,2.19427c-2.27644,0.05469 -2.65693,-2.04035 -1.84895,-2.09098c0.40399,-0.02517 0.22691,0.74733 1.73103,0.74733c1.50412,0 1.42714,-0.86741 1.74562,-0.85063z"/><path d="M300.01236,186.35107c0.93481,0.04832 0.97006,3.08453 -2.34736,3.15831c-3.26758,0.07378 -3.82473,-2.93929 -2.65693,-3.0067c0.58674,-0.03385 0.33308,1.0737 2.49485,1.0737c2.16136,0 2.04061,-1.24845 2.50944,-1.22531z"/><path d="M299.9297,197.17601c0.89955,0.04861 0.93481,2.97748 -2.25294,3.05531c-3.15817,0.06741 -3.70114,-2.84034 -2.5686,-2.91007c0.55756,-0.03559 0.31566,1.03812 2.40327,1.03812c2.08802,0 1.97011,-1.20852 2.41826,-1.18335z"/><path d="M206.97569,148.93161c0.64873,0.03153 0.67547,2.14132 -1.62771,2.19195c-2.27969,0.05469 -2.66301,-2.04035 -1.84895,-2.08867c0.40115,-0.02547 0.22124,0.74733 1.73103,0.74733c1.50371,0 1.41822,-0.86741 1.74562,-0.85063z"/><path d="M299.17764,174.7215c0.62239,0.03356 0.64306,2.05713 -1.54504,2.10574c-2.18527,0.05266 -2.56252,-1.95413 -1.78128,-2.00245c0.38048,-0.02547 0.22124,0.7158 1.66012,0.7158c1.43645,0 1.35947,-0.83587 1.6662,-0.81909z"/><path d="M250.21916,148.93161c0.64873,0.03153 0.67547,2.14132 -1.62771,2.19195c-2.27969,0.05469 -2.66301,-2.04035 -1.84895,-2.08867c0.40115,-0.02547 0.22124,0.74733 1.73103,0.74733c1.50371,0 1.41822,-0.86741 1.74562,-0.85063z"/><path d="M255.73683,138.13183c0.6459,0.03356 0.67223,2.14132 -1.63379,2.19195c-2.27644,0.05469 -2.65693,-2.04035 -1.84895,-2.08895c0.40683,-0.02517 0.22691,0.7456 1.73103,0.7456c1.50979,0 1.4243,-0.86567 1.7517,-0.8486z"/><path d="M281.39563,206.14607c0.89632,0.04861 0.93481,2.97546 -2.25902,3.05126c-3.15817,0.06944 -3.70398,-2.8386 -2.5686,-2.90371c0.55756,-0.04021 0.31566,1.03579 2.40368,1.03579c2.08761,0 1.9697,-1.21286 2.42393,-1.18335z"/><path d="M184.14197,166.97704c0.78732,0.04195 0.82297,2.60656 -1.97578,2.6679c-2.76592,0.06105 -3.24083,-2.48476 -2.2501,-2.54378c0.49272,-0.02951 0.2804,0.90965 2.10545,0.90965c1.82545,0 1.72536,-1.05489 2.12043,-1.03378z"/><path d="M259.29899,166.36222c0.78447,0.03993 0.81689,2.60454 -1.97862,2.66761c-2.772,0.06105 -3.24691,-2.48446 -2.25618,-2.54349c0.48989,-0.02951 0.28607,0.90965 2.10585,0.90965c1.82545,0 1.72495,-1.05489 2.12894,-1.03378z"/><path d="M291.71701,158.79453c0.61915,0.03153 0.6459,2.05511 -1.54828,2.10544c-2.19094,0.05063 -2.56576,-1.95615 -1.78128,-2.00447c0.38332,-0.02517 0.2184,0.71811 1.65728,0.71811c1.44212,0 1.35947,-0.83616 1.67228,-0.81909z"/><path d="M266.52421,195.94231c0.89632,0.04398 0.93157,2.9772 -2.25902,3.05097c-3.15858,0.07146 -3.70398,-2.83629 -2.5686,-2.90573c0.55715,-0.03587 0.31566,1.03812 2.40327,1.03812c2.08802,0 1.97011,-1.21084 2.42434,-1.18335z"/><path d="M264.80775,180.66779c0.89632,0.04427 0.93481,2.97748 -2.25902,3.05126c-3.15817,0.07146 -3.70073,-2.83629 -2.57143,-2.90602c0.5604,-0.0379 0.3185,1.03812 2.40652,1.03812c2.09086,0 1.9697,-1.20852 2.42393,-1.18335z"/><path d="M280.64357,172.03045c0.62523,0.03153 0.6459,2.05308 -1.54504,2.10574c-2.18527,0.05266 -2.56292,-1.95615 -1.78128,-2.00476c0.38048,-0.02517 0.22124,0.71609 1.66012,0.71609c1.44212,0 1.35947,-0.83384 1.6662,-0.81707z"/><path d="M245.69545,186.40373c0.89955,0.05035 0.93805,2.9772 -2.25294,3.05097c-3.16141,0.07378 -3.70965,-2.83629 -2.57143,-2.90371c0.55433,-0.0379 0.31242,1.03609 2.40044,1.03609c2.08802,0 1.9697,-1.21084 2.42393,-1.18335z"/><path d="M235.98472,166.36222c0.78447,0.03993 0.81973,2.60454 -1.97578,2.66761c-2.772,0.06105 -3.24083,-2.48446 -2.2501,-2.54349c0.49233,-0.02951 0.27999,0.90965 2.10545,0.90965c1.82545,0 1.72536,-1.05489 2.12043,-1.03378z"/></g></g></g></svg>