<svg version="1.1" xmlns="http://www.w3.org/2000/svg" xmlns:xlink="http://www.w3.org/1999/xlink" width="105.83922" height="125.29956" viewBox="0,0,105.83922,125.29956"><g transform="translate(-187.08039,-121.19391)"><g data-paper-data="{&quot;isPaintingLayer&quot;:true}" fill-rule="nonzero" stroke="none" stroke-linejoin="miter" stroke-miterlimit="10" stroke-dasharray="" stroke-dashoffset="0" style="mix-blend-mode: normal"><path d="M241.67027,134.27726c11.18219,0.32844 22.47647,6.18784 30.23138,13.951c5.40127,5.68608 4.39121,14.96178 5.54072,22.61806c1.20046,8.00227 0.03263,16.19304 1.46515,23.91287c0.95897,5.51139 3.39949,10.42711 5.64266,15.40676c2.37856,5.28349 10.38242,10.22995 7.89613,15.43859c-3.0957,6.98679 -12.49389,9.22065 -19.99022,10.98722c-11.72007,2.76014 -24.05566,2.13041 -36.0946,2.19478c-8.33124,-0.33777 -16.64646,-1.24962 -24.75048,-3.05465c-7.52993,-1.6697 -15.46293,-3.01158 -21.98896,-7.07261c-2.33586,-1.47916 -3.10042,-5.69408 -2.13253,-8.5952c1.78906,-4.67929 7.23098,-7.29356 9.63667,-12.03533c2.62099,-5.16504 3.9126,-10.9513 5.19352,-16.60597c1.48313,-6.44884 2.12982,-13.48381 3.44154,-20.23715c1.58045,-8.10367 -0.54783,-18.3316 5.30165,-24.26793c7.62941,-7.92263 19.57285,-12.96319 30.60736,-12.64043z" fill="#ffd351" stroke-width="0.60142" stroke-linecap="round"/><path d="M240.95346,121.19412c1.24303,0.01756 2.35453,1.11966 3.14636,2.88534c0.79107,1.76569 1.26153,4.19486 1.22381,6.86841c-0.03787,2.67359 -0.57677,5.08855 -1.41742,6.83122c-0.84145,1.74253 -1.98358,2.81284 -3.22661,2.79527c-1.24303,-0.01756 -2.35438,-1.11969 -3.14636,-2.88534c-0.79092,-1.76572 -1.26156,-4.195 -1.22369,-6.86859c0.03772,-2.67355 0.5768,-5.08841 1.41731,-6.83104c0.84142,-1.74268 1.98358,-2.81284 3.22661,-2.79527z" fill="#ffd351" stroke-width="0.60142" stroke-linecap="butt"/><path d="M240.55356,210.87965c13.80238,0.19504 26.28945,1.78609 35.31358,4.19828c9.02418,2.4131 14.58539,5.64721 14.53624,9.12848c-0.04918,3.48113 -5.69966,6.55694 -14.78841,8.71402c-9.08865,2.15613 -21.61568,3.3937 -35.41806,3.19866c-13.80238,-0.19504 -26.28945,-1.78609 -35.31373,-4.19825c-9.02403,-2.41314 -14.58539,-5.64721 -14.53624,-9.12848c0.0493,-3.4813 5.69966,-6.55694 14.78841,-8.71402c9.08879,-2.15616 21.61583,-3.39374 35.4182,-3.19869z" fill="#ccaa43" stroke-width="0.60142" stroke-linecap="butt"/><path d="M240.03344,220.05204c3.53356,0.02659 6.69479,1.53121 8.9471,3.94179c2.25482,2.41081 3.60116,5.72752 3.50401,9.3748c-0.09715,3.64728 -1.61923,6.94235 -4.00147,9.31843c-2.37947,2.37576 -5.61966,3.83234 -9.15358,3.80605c-3.53356,-0.02659 -6.69479,-1.53121 -8.9472,-3.94204c-2.25518,-2.41051 -3.60106,-5.72727 -3.50391,-9.37456c0.09705,-3.64753 1.61913,-6.9426 4.00147,-9.31843c2.37937,-2.37601 5.61956,-3.83259 9.15358,-3.80605z" fill="#ffd351" stroke-width="0.60142" stroke-linecap="butt"/><path d="M236.91667,221.96153v-13h5.5v13z" fill="#ffd351" stroke-width="0" stroke-linecap="butt"/></g></g></svg>