<svg version="1.1" xmlns="http://www.w3.org/2000/svg" xmlns:xlink="http://www.w3.org/1999/xlink" width="250.3643" height="122.49517" viewBox="0,0,250.3643,122.49517"><g transform="translate(-114.81785,-118.75242)"><g data-paper-data="{&quot;isPaintingLayer&quot;:true}" fill-rule="nonzero" stroke="none" stroke-width="0" stroke-linecap="butt" stroke-linejoin="miter" stroke-miterlimit="10" stroke-dasharray="" stroke-dashoffset="0" style="mix-blend-mode: normal"><path d="M363.04942,195.93158c0,0 -41.01189,31.2372 -126.36123,31.85009c-78.58788,0.56434 -118.67454,-24.82268 -118.67454,-24.82268c0,0 3.50531,-60.39505 6.51212,-64.84327c4.21041,-6.22877 13.58814,-15.67047 13.58814,-15.67047c0,0 5.14061,23.79448 15.53145,26.80163c7.06862,2.04575 27.23616,-14.68336 27.23616,-14.68336c0,0 9.78758,24.31543 17.12963,25.82889c6.53462,1.34702 21.53012,-17.80477 21.53012,-17.80477c0,0 16.15273,23.55003 24.27679,23.66394c7.63242,0.10703 24.439,-26.61272 24.439,-26.61272c0,0 16.37811,21.08961 24.67557,18.70076c6.40496,-1.84409 14.82915,-27.2827 14.82915,-27.2827c0,0 16.84329,16.4633 22.62381,14.09431c6.54647,-2.68288 13.74322,-26.39881 13.74322,-26.39881c0,0 17.38012,9.59557 19.52751,14.9655c2.17523,5.43955 -0.6069,62.21366 -0.6069,62.21366z" data-paper-data="{&quot;index&quot;:null}" fill="#e7c127"/><path d="M363.37672,210.30567c0,0 -41.8144,30.94191 -128.37789,30.94191c-79.70585,0 -120.18098,-25.67424 -120.18098,-25.67424c0,0 3.98261,-60.36837 7.06353,-64.79489c4.31419,-6.19837 14.37754,-12.56899 14.37754,-12.56899c0,0 4.55916,20.82728 15.07599,23.90897c7.15433,2.09645 25.68723,-13.00182 25.68723,-13.00182c0,0 11.79313,22.8995 19.22853,24.46565c6.61771,1.39391 21.95429,-16.64974 21.95429,-16.64974c0,0 16.22203,22.66546 24.46044,22.8377c7.73986,0.16183 23.43842,-24.44738 23.43842,-24.44738c0,0 17.99636,19.21752 26.42835,16.8883c6.5088,-1.79806 16.7467,-26.16478 16.7467,-26.16478c0,0 15.45129,15.57309 21.33053,13.24567c6.65826,-2.6358 11.5718,-23.81747 11.5718,-23.81747c0,0 20.11168,7.23815 22.25149,12.62336c2.16755,5.45503 -1.05599,62.20774 -1.05599,62.20774z" fill="#f7ce29"/><path d="M226.15077,206.24083c0,0 4.71066,-3.00683 6.87258,-5.04781c2.02587,-1.91243 5.71741,-6.83724 5.71741,-6.83724c0,0 3.32734,4.83485 5.36566,6.99412c1.99975,2.11839 6.75087,5.84108 6.75087,5.84108c0,0 -4.87693,2.90475 -6.93284,4.84543c-2.13759,2.01784 -5.65723,7.03953 -5.65723,7.03953c0,0 -3.5921,-4.73208 -5.64264,-6.90425c-1.98626,-2.10405 -6.47381,-5.93096 -6.47381,-5.93096z" fill="#ff0000"/><path d="M281.07017,202.99581c0,0 3.98108,-3.92196 5.67058,-6.36847c1.58307,-2.29242 4.16806,-7.87798 4.16806,-7.87798c0,0 4.2613,4.03582 6.70462,5.72324c2.3971,1.65539 7.81931,4.30703 7.81931,4.30703c0,0 -4.16495,3.85668 -5.77161,6.18308c-1.67044,2.41883 -4.06703,8.06338 -4.06703,8.06338c0,0 -4.49891,-3.88017 -6.95689,-5.57762c-2.38089,-1.64419 -7.56704,-4.45265 -7.56704,-4.45265z" fill="#ff0000"/><path d="M330.99259,192.36008c0,0 3.32053,-4.49501 4.60775,-7.17504c1.20611,-2.51126 2.88811,-8.43177 2.88811,-8.43177c0,0 4.83873,3.32169 7.51537,4.60735c2.62599,1.26127 8.39548,3.03451 8.39548,3.03451c0,0 -3.51243,4.45922 -4.73646,7.0077c-1.27271,2.64979 -2.7594,8.59912 -2.7594,8.59912c0,0 -5.04906,-3.13086 -7.7418,-4.42419c-2.60822,-1.25275 -8.16905,-3.21767 -8.16905,-3.21767z" fill="#ff0000"/><path d="M171.57755,198.61444c0,0 5.15278,-2.16322 7.62998,-3.80733c2.32118,-1.54054 6.79555,-5.76692 6.79555,-5.76692c0,0 2.45794,5.32976 4.0999,7.80381c1.61099,2.42722 5.66072,6.90268 5.66072,6.90268c0,0 -5.29931,2.0343 -7.65492,3.59771c-2.44917,1.62558 -6.77062,5.97646 -6.77062,5.97646c0,0 -2.73629,-5.27333 -4.3881,-7.76221c-1.60006,-2.41078 -5.37252,-6.94428 -5.37252,-6.94428z" fill="#ff0000"/><path d="M124.53656,186.89495c0,0 5.31568,-1.72464 7.92169,-3.15582c2.44188,-1.34109 7.25406,-5.17838 7.25406,-5.17838c0,0 2.00354,5.51655 3.43291,8.11933c1.40227,2.55346 5.06368,7.35192 5.06368,7.35192c0,0 -5.45094,1.58396 -7.92904,2.9449c-2.57666,1.41505 -7.2467,5.38938 -7.2467,5.38938c0,0 -2.28567,-5.48367 -3.72362,-8.10194c-1.39282,-2.53621 -4.77297,-7.36922 -4.77297,-7.36922z" fill="#ff0000"/></g></g></svg>