<svg version="1.1" xmlns="http://www.w3.org/2000/svg" xmlns:xlink="http://www.w3.org/1999/xlink" width="162.92938" height="109.23865" viewBox="0,0,162.92938,109.23865"><g transform="translate(-158.53531,-125.38067)"><g data-paper-data="{&quot;isPaintingLayer&quot;:true}" fill-rule="nonzero" stroke="none" stroke-width="1" stroke-linecap="butt" stroke-linejoin="miter" stroke-miterlimit="10" stroke-dasharray="" stroke-dashoffset="0" style="mix-blend-mode: normal"><g><path d="M258.18792,234.61264c-1.84911,-0.15355 1.06563,-10.48047 -0.9029,-15.06846c-1.88192,-4.38064 -5.19561,-7.35969 -8.48175,-9.30722l1.83861,-2.16276c18.04226,8.43319 12.41225,26.9479 7.54604,26.53844z" fill="#ff0000"/><path d="M275.02412,215.03493c-1.58532,0.96064 -5.29798,-9.10512 -9.59069,-11.66027c-4.09717,-2.43836 -8.52899,-2.89899 -12.33089,-2.54334l0.21523,-2.83206c19.55278,-3.78614 25.88226,14.50283 21.70635,17.03568z" fill="#ff0000"/><path d="M227.33184,207.41409l1.83992,2.16407c-3.28745,1.94622 -6.60115,4.92396 -8.48044,9.30722c-1.96853,4.58799 0.9449,14.91229 -0.9029,15.06583c-4.87015,0.41208 -10.50146,-18.10394 7.54342,-26.53713z" fill="#ff0000"/><path d="M226.62185,200.61872l0.21654,2.83206c-3.8032,-0.35565 -8.23503,0.10499 -12.33089,2.54334c-4.2914,2.55384 -8.00274,12.6196 -9.58806,11.65896c-4.17854,-2.53022 2.14964,-20.81789 21.70241,-17.03437z" fill="#ff0000"/><path d="M217.61254,183.0266c-0.08137,0.02625 -0.16536,0.05643 -0.28478,0.11417c-5.98959,2.93311 -19.93861,6.33211 -28.37705,-10.03033c-2.93311,0.21916 -6.4686,0.51182 -9.34397,-0.17454c-19.98717,-4.76779 -28.27206,-35.77086 -13.67211,-44.72374c2.99217,-1.83467 6.03552,-2.74545 9.03688,-0.61681c3.99087,2.82944 0.89896,6.30587 2.52235,9.78886c0.73098,1.57089 2.06958,1.67063 3.34126,2.54203c3.87276,2.65227 -0.40683,7.74027 0.48295,11.51591c0.92127,3.91738 4.52106,2.88456 6.1825,6.69826c0.56038,1.2848 -0.2231,3.19296 0.68111,3.84389c0.05118,0.06037 0.11024,0.10105 0.17979,0.12074c0.01181,0.00525 0.01706,0.01575 0.03018,0.021c0.00787,-0.00525 0.01181,-0.01181 0.01969,-0.01706c0.2021,0.03018 0.4567,-0.06562 0.73361,-0.23491c2.64964,-1.62076 3.50399,-6.6812 2.34255,-8.59855c-1.65619,-2.73757 1.25592,-4.94495 1.87273,-7.53292c0.74804,-3.14047 -3.07222,-6.34392 -1.5932,-7.69827c2.97773,-2.7297 13.01594,5.94497 14.33485,10.25212c2.4003,7.82688 -0.8071,16.56979 -7.69565,21.37039c-0.35565,0.24672 -0.53938,0.57612 -0.60106,0.91865c-0.17717,0.36483 -0.29134,0.77823 -0.3084,1.12994c-0.0105,0.20604 0.00656,0.4252 0.04987,0.65355c0.02362,0.12336 0.07349,0.25591 0.11155,0.38452c0.03281,0.10893 0.05249,0.21391 0.0958,0.32678c0.07218,0.18504 0.17192,0.37665 0.27166,0.56825c0.03281,0.06299 0.05381,0.12205 0.08924,0.18504c0.14305,0.25066 0.31103,0.50657 0.50132,0.76379c0.00262,0.00394 0.00525,0.00787 0.00787,0.01181c2.33468,3.1444 8.19303,6.49091 16.57373,5.14968c0.0105,-0.00262 0.021,-0.00262 0.0315,-0.00394c0.88321,1.6037 1.71525,2.62996 2.38324,3.2717z" fill="#ff0000"/><path d="M300.39457,171.95557c-2.87668,0.68636 -6.41348,0.39239 -9.34397,0.17323c-8.36626,16.21939 -22.7313,12.73115 -28.81669,9.81117c0.8714,-0.95014 1.75724,-2.21788 2.38717,-3.18509c9.16942,1.53808 15.35324,-2.54072 17.26009,-5.89379c0.02493,-0.04068 0.03675,-0.08005 0.05906,-0.12205c0.11549,-0.21523 0.22441,-0.42783 0.30447,-0.63387c0.03937,-0.10105 0.05512,-0.19423 0.0853,-0.29134c0.04462,-0.14173 0.09843,-0.28741 0.12467,-0.42389c0.04331,-0.22966 0.06037,-0.44883 0.04987,-0.65487c-0.00919,-0.18504 -0.04724,-0.38846 -0.10499,-0.59318c0.12467,-0.27166 0.03018,-0.59975 -0.43176,-0.92127c-0.19554,-0.27428 -0.43176,-0.47507 -0.68899,-0.52363c-6.42923,-4.92658 -9.69568,-13.82303 -7.37937,-21.38089c1.32023,-4.30584 11.35712,-12.98181 14.33616,-10.25212c1.48034,1.35566 -2.33993,4.55781 -1.5932,7.69959c0.61812,2.58665 3.52892,4.79534 1.87273,7.5316c-1.16143,1.91735 -0.30578,6.97779 2.34255,8.59855c0.27691,0.16929 0.5315,0.26378 0.73229,0.23491c0.00787,0.00525 0.01181,0.01181 0.01969,0.01706c0.01181,-0.00525 0.01706,-0.01575 0.02887,-0.021c0.07612,-0.021 0.14305,-0.06168 0.19685,-0.13255c0.87665,-0.66274 0.1063,-2.55647 0.66536,-3.8347c1.66144,-3.8137 5.25992,-2.78088 6.18119,-6.69826c0.88978,-3.77565 -3.3885,-8.86364 0.48163,-11.51591c1.27167,-0.8714 2.61027,-0.97245 3.34257,-2.54203c1.62076,-3.4843 -1.46721,-6.95942 2.52235,-9.79017c3.00136,-2.12864 6.04339,-1.21524 9.03556,0.61812c14.60126,8.95289 6.31768,39.95464 -13.66949,44.72637z" fill="#ff0000"/><path d="M233.91592,161.68771l-2.08664,3.38588c-5.32685,-3.2822 -8.79147,-11.35581 -9.86103,-17.41626c-2.71789,-0.03412 -5.54601,-1.47902 -7.83476,-5.05125c-5.30979,-8.28621 6.32818,-19.60527 13.85847,-12.93457c6.70351,5.93972 3.40819,14.31517 -2.15226,17.07374c0.86484,5.20611 3.88588,12.35976 8.07623,14.94247zM222.3462,144.71108l2.36486,-0.10499c1.33204,-0.35827 2.58271,-1.2323 3.51186,-2.77038c0.77035,-1.27298 1.08138,-2.49741 0.9239,-4.0788c-0.99477,-10.10513 -14.45559,-8.77703 -12.3965,1.30711c0.62993,3.08666 3.02498,5.21136 5.59588,5.64706z" fill="#ff0000"/><path d="M229.14682,137.75692c0.15748,1.58139 -0.15355,2.80581 -0.9239,4.0788c-3.23627,5.35572 -10.31642,2.88587 -11.47261,-2.77169c-2.05908,-10.08414 11.40174,-11.41093 12.3965,-1.30711z" fill="#ffffff"/><path d="M219.32516,134.21225c0,-1.98448 1.60874,-3.59323 3.59323,-3.59323c1.98449,0 3.59323,1.60875 3.59323,3.59323c0,1.98448 -1.60874,3.59323 -3.59323,3.59323c-1.98449,0 -3.59323,-1.60875 -3.59323,-3.59323z" fill="#000000"/><path d="M252.74821,147.66126c-3.28614,4.02237 -6.46466,10.33217 -5.8741,14.90966l-3.94494,0.50919c-0.70736,-5.48039 2.40292,-12.18915 5.92003,-16.88213c-0.15617,-0.11286 -0.31497,-0.22179 -0.46851,-0.34909c-11.44505,-9.44502 4.30452,-26.56862 13.40177,-13.40964c4.59718,6.65233 -2.17063,15.74038 -9.03425,15.222zM260.33494,138.05876c0,-0.11417 0.00131,-0.22704 -0.00394,-0.34515c-0.0105,-0.19948 -0.0315,-0.40552 -0.05512,-0.61287c-0.0105,-0.10236 -0.01706,-0.2021 -0.03281,-0.3084c-0.04724,-0.31759 -0.1063,-0.64174 -0.18767,-0.9777c-1.35304,-5.61425 -8.51456,-7.83607 -11.56053,-2.37011c-0.72836,1.29923 -0.99477,2.53416 -0.78479,4.10898c0.04593,0.34252 0.10893,0.6693 0.18242,0.98427c0.02231,0.0958 0.04987,0.18635 0.0748,0.27953c0.05774,0.21523 0.1168,0.42652 0.18504,0.62862c0.03412,0.09843 0.07218,0.19423 0.10893,0.29003c0.07087,0.18898 0.14567,0.3714 0.22704,0.54856c0.042,0.0853 0.08268,0.17061 0.12467,0.25328c0.09186,0.17979 0.18767,0.35302 0.28872,0.51969c0.03937,0.06431 0.07874,0.12992 0.11942,0.19292c0.12467,0.19029 0.2546,0.37008 0.39108,0.542c0.02362,0.03018 0.04593,0.06299 0.07087,0.09186c1.71262,2.08796 4.30584,2.75857 6.53159,2.1772c0.03281,-0.00787 0.06693,-0.01969 0.09974,-0.02887c0.17454,-0.04987 0.34909,-0.1063 0.51969,-0.17061c0.04856,-0.01837 0.0958,-0.03806 0.14436,-0.05774c0.15355,-0.06431 0.30578,-0.13255 0.45276,-0.20998c0.05381,-0.02625 0.10499,-0.05381 0.15748,-0.08268c0.14042,-0.07743 0.27691,-0.16273 0.41077,-0.25328c0.05118,-0.03543 0.10236,-0.06824 0.15223,-0.10368c0.13517,-0.09711 0.26247,-0.2021 0.38846,-0.31103c0.04331,-0.03675 0.08793,-0.07087 0.12861,-0.10893c0.14436,-0.13124 0.27953,-0.27297 0.40945,-0.42127c0.01837,-0.021 0.03806,-0.03806 0.05643,-0.05906c0.1483,-0.17454 0.28609,-0.35959 0.4147,-0.55513c0.01837,-0.02756 0.03281,-0.05906 0.05118,-0.08662c0.10236,-0.16536 0.2021,-0.33596 0.29003,-0.51576c0.03412,-0.07087 0.06431,-0.14698 0.0958,-0.21916c0.06431,-0.14436 0.12599,-0.29134 0.17979,-0.44489c0.0315,-0.08924 0.05774,-0.18373 0.0853,-0.27559c0.04331,-0.1483 0.0853,-0.29659 0.11942,-0.45014c0.02231,-0.10236 0.042,-0.20604 0.06037,-0.31103c0.02756,-0.15617 0.04856,-0.31497 0.06562,-0.47901c0.0105,-0.11024 0.02231,-0.22179 0.02887,-0.33465c0.0105,-0.17061 0.0105,-0.34515 0.00919,-0.52363z" fill="#ff0000"/><path d="M260.33362,137.71492c0.00525,0.11811 0.00394,0.23097 0.00394,0.34515c0.00131,0.17717 0,0.35171 -0.0105,0.52232c-0.00525,0.11286 -0.01706,0.22441 -0.02887,0.33465c-0.01706,0.16273 -0.03806,0.32284 -0.06562,0.47901c-0.01837,0.10499 -0.03806,0.20866 -0.06037,0.31103c-0.03543,0.15355 -0.07612,0.30315 -0.11942,0.45014c-0.02756,0.09186 -0.05381,0.18635 -0.0853,0.27559c-0.05381,0.15355 -0.11549,0.30053 -0.17979,0.44489c-0.0315,0.07349 -0.06168,0.1483 -0.0958,0.21916c-0.08924,0.17979 -0.18767,0.3504 -0.29003,0.51576c-0.01837,0.02756 -0.03281,0.05906 -0.05118,0.08662c-0.1273,0.19554 -0.26641,0.38058 -0.4147,0.55513c-0.01837,0.021 -0.03675,0.03806 -0.05643,0.05906c-0.12992,0.1483 -0.26641,0.28872 -0.40945,0.42127c-0.042,0.03806 -0.08662,0.07218 -0.12861,0.10893c-0.12599,0.10893 -0.25328,0.21391 -0.38846,0.31103c-0.04987,0.03675 -0.10105,0.06955 -0.15223,0.10368c-0.13255,0.08924 -0.27035,0.17454 -0.41077,0.25328c-0.05249,0.02756 -0.10499,0.05512 -0.15748,0.08268c-0.1483,0.07612 -0.29922,0.14567 -0.45276,0.20998c-0.04856,0.01837 -0.0958,0.03937 -0.14436,0.05774c-0.16929,0.06431 -0.34384,0.12074 -0.51969,0.17061c-0.03281,0.00787 -0.06693,0.01969 -0.09974,0.02887c-2.22707,0.58269 -4.81897,-0.08924 -6.53159,-2.1772c-0.02493,-0.03018 -0.04724,-0.06168 -0.07087,-0.09186c-0.13648,-0.17192 -0.26641,-0.35171 -0.39108,-0.542c-0.04068,-0.06168 -0.08005,-0.1273 -0.11942,-0.19292c-0.10105,-0.16536 -0.19817,-0.33859 -0.28872,-0.51969c-0.04331,-0.08268 -0.0853,-0.16798 -0.12467,-0.25328c-0.08137,-0.17717 -0.15617,-0.35959 -0.22704,-0.54856c-0.03675,-0.0958 -0.0748,-0.19029 -0.10893,-0.29003c-0.06824,-0.2021 -0.1273,-0.41339 -0.18504,-0.62862c-0.02493,-0.09318 -0.05249,-0.18242 -0.0748,-0.27953c-0.07349,-0.31497 -0.13648,-0.64174 -0.18242,-0.98427c-0.20998,-1.57483 0.05643,-2.80975 0.78479,-4.10898c3.04729,-5.46596 10.20881,-3.24414 11.56053,2.37011c0.08137,0.33596 0.14173,0.66143 0.18767,0.9777c0.01444,0.10499 0.021,0.20473 0.03281,0.3084c0.02231,0.20866 0.04462,0.4147 0.05643,0.61418z" fill="#ffffff"/><path d="M250.38204,133.5705c0,-1.98377 1.60815,-3.59192 3.59192,-3.59192c1.98377,0 3.59192,1.60816 3.59192,3.59192c0,1.98377 -1.60815,3.59192 -3.59192,3.59192c-1.98377,0 -3.59192,-1.60815 -3.59192,-3.59192z" fill="#000000"/><path d="M239.83652,159.48845c10.97371,-0.05057 25.16286,4.10883 26.72913,10.1646c1.35415,5.21715 -1.08305,9.87943 -3.95289,14.01074c-4.88844,7.03767 -6.29317,16.70641 -10.09155,23.73424c-2.56783,4.755 -7.79061,6.95199 -12.68467,6.75813c-4.89266,0.19806 -10.11824,-2.00314 -12.68467,-6.75813c-3.79557,-7.02925 -5.85771,-16.70078 -10.74615,-23.73424c-2.86845,-4.12989 -5.30706,-8.79358 -3.95571,-14.01074c1.56908,-6.05577 16.4114,-10.21516 27.38654,-10.1646z" fill="#ff0000"/></g></g></g></svg>