<svg version="1.1" xmlns="http://www.w3.org/2000/svg" xmlns:xlink="http://www.w3.org/1999/xlink" width="56.34088" height="69.24976" viewBox="0,0,56.34088,69.24976"><g transform="translate(-211.82956,-145.37512)"><g data-paper-data="{&quot;isPaintingLayer&quot;:true}" fill-rule="nonzero" stroke="none" stroke-width="1" stroke-linecap="butt" stroke-linejoin="miter" stroke-miterlimit="10" stroke-dasharray="" stroke-dashoffset="0" style="mix-blend-mode: normal"><g><path d="M241.44659,205.15947c-2.65432,0.82072 -6.08029,0.42929 -8.6687,1.04777c-0.38443,-0.84696 -0.43381,-4.84212 -0.36542,-5.66466c0.0674,-0.8226 0.26439,-1.4996 0.39688,-2.3187c0.06728,-0.54751 0.88424,-0.65487 1.27322,-0.97826c1.36291,-1.09712 2.12289,-1.2731 3.86778,-0.90296c0.84018,0.11351 2.04332,0.20336 2.36264,1.04678c0.44734,1.40042 1.39829,6.20112 1.13364,7.77001z" fill="#c4c4c4"/><path d="M242.28826,198.78135c-0.03108,-0.87472 0.56572,-1.67535 1.4889,-1.93338c1.42618,-0.52204 3.0376,-0.50309 4.4151,0.05187c0.61873,0.27614 1.09129,0.68502 1.3441,1.29347c0.44515,1.01507 0.67967,2.02766 0.70053,3.1044c0.04626,0.53828 0.63777,4.51574 0.33027,5.11763l-8.0379,-0.56547c-0.05231,-0.40496 -0.17432,-3.90484 -0.15913,-4.24128c-0.02694,-0.94241 -0.05492,-1.88482 -0.08186,-2.82724z" fill="#cccccc"/><path d="M252.4978,198.98847c0.09625,-0.36064 0.26847,-0.72094 0.51774,-1.07974c2.32427,-0.49427 4.04719,0.23504 5.41803,1.83019c0.71696,0.94139 1.12269,1.95398 1.29061,3.10962c0.13395,0.36173 0.94235,3.90283 0.54108,4.26204c-1.20677,-0.36682 -7.20699,-1.33445 -8.40994,-1.77281c-0.03843,-2.16568 0.15334,-4.33028 0.64252,-6.34927z" fill="#c0c0c0"/><path d="M224.13017,207.70404c-0.11577,-1.50001 0.4476,-6.01021 1.00198,-7.31423c0.46638,-1.16653 1.60397,-2.13597 2.92868,-2.56377c0.74565,0.19498 1.48228,0.52643 1.97986,0.9974c0.14204,0.13439 0.28404,0.26885 0.42095,0.47199c0.33412,0.60947 0.8618,5.78766 0.71393,6.74487c-0.61889,0.14465 -5.44573,1.64227 -7.04544,1.66373z" fill="#e4e4e4"/><path d="M233.78627,214.21534c-4.3929,-0.90729 -2.43717,-0.95588 -6.57272,-1.58318c-0.15681,-0.02378 -3.5214,-1.92844 -3.6926,-1.95484c-1.63969,-2.01922 -4.35419,-3.19177 -3.0723,-5.5238c1.47387,-2.39104 8.14581,-0.57903 10.78458,-1.14418c6.17833,-1.29815 8.71592,-0.37332 15.09582,0.25424c5.23079,0.53079 12.15444,-2.64824 15.28632,1.98375c-0.43836,3.29967 -2.06669,3.16505 -4.8448,5.21484c-3.66668,1.44627 -2.50416,1.50498 -8.74228,2.67364c-6.89729,0.04607 -7.30808,1.02367 -14.24199,0.07953z" fill="#e4e4e4"/><path d="M240.72699,189.45097c3.19237,-0.9996 7.27771,-0.66216 10.3864,-1.43293c0.43897,0.93878 0.40127,5.41959 0.29967,6.34446c-0.10045,0.9249 -0.35233,1.69029 -0.53048,2.61318c-0.09367,0.61631 -0.49071,1.0692 -0.96349,1.44356c-1.65552,1.27138 -3.75284,1.75823 -5.8294,1.39482c-1.00144,-0.10243 -1.83461,-0.74259 -2.19583,-1.67937c-0.50077,-1.5579 -1.52119,-6.91569 -1.16685,-8.68373z" fill="#d4d4d4"/><path d="M240.11988,198.01237c0.05187,1.00539 -0.58912,1.91638 -1.6005,2.19908c-1.5599,0.57852 -3.33472,0.53277 -4.86276,-0.12529c-0.68687,-0.32648 -1.21556,-0.80324 -1.50619,-1.50603c-0.5107,-1.1728 -0.78942,-2.33962 -0.83413,-3.57699c-0.06183,-0.61912 -0.79353,-5.19755 -0.46708,-5.88445l8.86248,0.7693c0.06578,0.46603 0.27086,4.48877 0.26092,4.87508c0.04868,1.08311 0.09857,2.16625 0.14726,3.24936z" fill="#d2d2d2"/><path d="M229.14811,195.22302c-0.08769,0.38427 -1.17312,2.21599 -1.41507,2.5951c-2.3293,0.48093 -3.18578,-0.90233 -4.60823,-2.63954c-0.74673,-1.02328 -1.18172,-2.11636 -1.38071,-3.35774c-0.14436,-0.39025 -1.05025,-4.20008 -0.65519,-4.57646c1.22546,0.41811 7.29659,1.5798 8.52008,2.07449c0.09459,2.32055 -0.02009,3.75182 -0.46091,5.90416z" fill="#e4e4e4"/><path d="M259.62013,185.85427c0.2599,1.92844 0.10294,7.64621 -0.34562,9.26477c-0.37083,1.4505 -2.33853,3.1902 -3.66254,3.62013c-0.78611,-0.31527 -0.68859,-1.40472 -1.2452,-2.05096c-0.15885,-0.18441 -0.31772,-0.36889 -0.47775,-0.6408c-0.40124,-0.80891 -1.43048,-7.47737 -1.36801,-8.68844c0.62376,-0.13019 5.45382,-1.61868 7.09912,-1.50469z" fill="#c2c2c2"/><path d="M251.10967,147.41188c14.4328,0.37188 18.41988,15.27288 16.67919,28.90441c-0.39013,3.15773 -1.47314,6.22099 -3.0142,9.0403c-1.77272,2.89111 -9.54712,4.85451 -12.7315,5.54434c-7.45588,1.58506 -10.17031,2.05602 -17.87508,1.31659c-6.31708,-0.62593 -15.30596,-2.48028 -19.1006,-8.06391c-3.57174,-5.26912 -3.73319,-14.00472 -2.64919,-20.08138c1.43917,-7.92245 6.90124,-15.27689 14.42971,-16.70568c6.98396,-1.28844 10.26051,-3.77315 24.2616,0.04531z" fill="#e4e4e4"/><path d="M259.73459,165.86064c1.5777,4.67681 -0.35638,7.79478 -4.33607,9.39282c-3.2003,1.30815 -7.79927,-0.04658 -9.00773,-4.09638c-0.63516,-2.33446 -0.10666,-4.86992 1.48709,-6.76156c0.39821,-0.45288 0.87297,-0.90382 1.34575,-1.27816c0.7068,-0.44613 1.4116,-0.81451 2.26667,-1.02344c2.24958,-0.40637 6.58173,-0.68127 8.24428,3.76675z" fill="#3b3b3b"/><path d="M233.68432,164.5707c2.44988,3.8496 -0.21488,8.3405 -4.19454,9.93734c-3.2003,1.30815 -7.79923,-0.04655 -9.00776,-4.09517c-0.63914,-2.18017 -0.02098,-5.17765 1.48706,-6.76159c0.39707,-0.45412 0.87303,-0.90497 1.34582,-1.27934c0.70677,-0.44495 1.41153,-0.81334 2.26546,-1.02351c2.25276,-0.48288 5.65524,-0.62739 8.10397,3.2222z" fill="#3b3b3b"/><path d="M245.42377,183.26557c-0.2061,0.16305 -0.29763,1.12982 -2.09541,0.49357c-1.79679,-0.63625 -1.57627,-1.39861 -2.85475,-1.3056c-1.27851,0.09364 -1.64619,1.31624 -3.52576,1.26778c-1.8796,-0.04843 -1.30487,-1.50852 -1.08572,-2.17701c0.29439,-1.00393 0.78952,-1.96028 1.01733,-2.96593c0.29334,-0.96155 0.78739,-1.91797 1.48212,-2.78499c0.28245,-0.54025 1.09731,-0.89841 2.03654,-0.83244c3.21485,0.37781 5.14867,6.11637 5.02568,8.30465z" fill="#bcbcbc"/></g></g></g></svg>