<svg version="1.1" xmlns="http://www.w3.org/2000/svg" xmlns:xlink="http://www.w3.org/1999/xlink" width="214.65837" height="187.47697" viewBox="0,0,214.65837,187.47697"><g transform="translate(-135.59662,-92.63877)"><g data-paper-data="{&quot;isPaintingLayer&quot;:true}" fill-rule="nonzero" stroke-width="4" stroke-linejoin="miter" stroke-miterlimit="10" stroke-dasharray="" stroke-dashoffset="0" style="mix-blend-mode: normal"><path d="M143.20909,118.6792c7.57871,-3.94438 43.28648,-18.47007 97.83019,-18.97985c47.98758,-0.44851 99.86377,13.07036 104.96982,18.97986c6.33219,7.32856 -2.15975,35.19673 -7.79685,39.38488c-24.62189,18.29314 -98.56679,118.74239 -98.56679,118.74239c0,0 -62.28519,-79.7251 -96.95114,-118.58163c-5.88879,-6.60065 -7.84068,-35.19699 0.51478,-39.54564z" fill="#93fffd" stroke="#599a9a" stroke-linecap="butt"/><path d="M143.3797,157.56191c0,0 46.29676,12.72295 92.95467,13.63819c50.19268,0.98458 102.63179,-13.93143 102.63179,-13.93143" fill="none" stroke="#599a9a" stroke-linecap="round"/><path d="M199.68045,169.29123l39.97329,106.48728" fill="none" stroke="#599a9a" stroke-linecap="round"/><path d="M282.1117,168.38345l-42.73404,104.96809" fill="none" stroke="#599a9a" stroke-linecap="round"/><path d="M238.54787,172.94728l0.4149,96.67022" fill="none" stroke="#599a9a" stroke-linecap="round"/><path d="M303.75,116.33558c0,6.07922 0.98563,12.08763 -11.18707,16.09639c-12.37399,4.07505 -29.06166,6.10042 -48.06293,6.10042c-16.31363,0 -31.29043,-2.3615 -43.03179,-5.46701c-15.38761,-4.06992 -21.21821,-7.77649 -21.21821,-14.7298c0,-5.23683 -2.92385,-14.05009 6.40275,-17.84601c12.50617,-5.09 31.75584,-5.8508 53.34725,-5.8508c14.90008,0 34.68497,1.55288 45.90804,4.18817c17.16845,4.03132 17.84196,10.09561 17.84196,17.50864z" fill="#93fffd" stroke="#599a9a" stroke-linecap="butt"/><path d="M183.46277,127.29835l-42,28.2234" fill="none" stroke="#599a9a" stroke-linecap="round"/><path d="M301.90957,128.72388l34.1383,28.04255" fill="none" stroke="#599a9a" stroke-linecap="round"/><path d="M142.70745,119.01111l39.6383,-16.30851" fill="none" stroke="#599a9a" stroke-linecap="round"/><path d="M346.42021,118.59622l-46.75532,-14.6383" fill="none" stroke="#599a9a" stroke-linecap="round"/></g></g></svg>