<svg version="1.1" xmlns="http://www.w3.org/2000/svg" xmlns:xlink="http://www.w3.org/1999/xlink" width="181" height="182" viewBox="0,0,181,182"><g transform="translate(-149.5,-89)"><g data-paper-data="{&quot;isPaintingLayer&quot;:true}" fill-rule="nonzero" stroke="none" stroke-width="0" stroke-linecap="butt" stroke-linejoin="miter" stroke-miterlimit="10" stroke-dasharray="" stroke-dashoffset="0" style="mix-blend-mode: normal"><path d="M330.5,180c0,50.25791 -40.51823,91 -90.5,91c-49.98177,0 -90.5,-40.74209 -90.5,-91c0,-50.25791 40.51823,-91 90.5,-91c49.98177,0 90.5,40.74209 90.5,91z" fill="#24624d"/><path d="M292.47852,180c0,28.75841 -23.49544,52.0717 -52.47852,52.0717c-28.98308,0 -52.47851,-23.3133 -52.47851,-52.0717c0,-28.75841 23.49543,-52.0717 52.47851,-52.0717c28.98308,0 52.47852,23.3133 52.47852,52.0717z" fill="#4dff50"/><path d="M189,233.83333c0,3.17564 -2.46243,5.75 -5.5,5.75c-3.03757,0 -5.5,-2.57437 -5.5,-5.75c0,-3.17563 2.46243,-5.75 5.5,-5.75c3.03757,0 5.5,2.57437 5.5,5.75z" fill="#13b916"/><path d="M300.5,235.83333c0,3.17564 -2.46244,5.75 -5.5,5.75c-3.03756,0 -5.5,-2.57437 -5.5,-5.75c0,-3.17563 2.46244,-5.75 5.5,-5.75c3.03756,0 5.5,2.57437 5.5,5.75z" fill="#13b916"/><path d="M301.5,131.33333c0,3.17564 -2.46244,5.75 -5.5,5.75c-3.03756,0 -5.5,-2.57437 -5.5,-5.75c0,-3.17563 2.46244,-5.75 5.5,-5.75c3.03756,0 5.5,2.57436 5.5,5.75z" fill="#13b916"/><path d="M188.5,129.33333c0,3.17564 -2.46243,5.75 -5.5,5.75c-3.03757,0 -5.5,-2.57437 -5.5,-5.75c0,-3.17563 2.46243,-5.75 5.5,-5.75c3.03757,0 5.5,2.57436 5.5,5.75z" fill="#13b916"/><path d="M325,181.33333c0,3.17564 -2.46244,5.75 -5.5,5.75c-3.03756,0 -5.5,-2.57437 -5.5,-5.75c0,-3.17563 2.46244,-5.75 5.5,-5.75c3.03756,0 5.5,2.57437 5.5,5.75z" fill="#13b916"/><path d="M164.5,182.83333c0,3.17564 -2.46243,5.75 -5.5,5.75c-3.03757,0 -5.5,-2.57437 -5.5,-5.75c0,-3.17563 2.46243,-5.75 5.5,-5.75c3.03757,0 5.5,2.57437 5.5,5.75z" fill="#13b916"/><path d="M244.5,260.33333c0,3.17564 -2.46243,5.75 -5.5,5.75c-3.03757,0 -5.5,-2.57437 -5.5,-5.75c0,-3.17563 2.46243,-5.75 5.5,-5.75c3.03757,0 5.5,2.57437 5.5,5.75z" fill="#13b916"/><path d="M243,102.83333c0,3.17564 -2.46243,5.75 -5.5,5.75c-3.03757,0 -5.5,-2.57437 -5.5,-5.75c0,-3.17563 2.46243,-5.75 5.5,-5.75c3.03757,0 5.5,2.57437 5.5,5.75z" fill="#13b916"/><path d="M276,112.33333c0,3.17564 -2.46244,5.75 -5.5,5.75c-3.03756,0 -5.5,-2.57437 -5.5,-5.75c0,-3.17563 2.46244,-5.75 5.5,-5.75c3.03756,0 5.5,2.57437 5.5,5.75z" fill="#4dff50"/><path d="M211.5,110.33333c0,3.17564 -2.46243,5.75 -5.5,5.75c-3.03757,0 -5.5,-2.57437 -5.5,-5.75c0,-3.17563 2.46243,-5.75 5.5,-5.75c3.03757,0 5.5,2.57437 5.5,5.75z" fill="#4dff50"/><path d="M317,156.83333c0,3.17564 -2.46244,5.75 -5.5,5.75c-3.03756,0 -5.5,-2.57437 -5.5,-5.75c0,-3.17563 2.46244,-5.75 5.5,-5.75c3.03756,0 5.5,2.57437 5.5,5.75z" fill="#4dff50"/><path d="M172,154.33333c0,3.17564 -2.46243,5.75 -5.5,5.75c-3.03757,0 -5.5,-2.57437 -5.5,-5.75c0,-3.17563 2.46243,-5.75 5.5,-5.75c3.03757,0 5.5,2.57437 5.5,5.75z" fill="#4dff50"/><path d="M317,208.33333c0,3.17564 -2.46244,5.75 -5.5,5.75c-3.03756,0 -5.5,-2.57437 -5.5,-5.75c0,-3.17563 2.46244,-5.75 5.5,-5.75c3.03756,0 5.5,2.57437 5.5,5.75z" fill="#4dff50"/><path d="M273.5,254.83333c0,3.17564 -2.46244,5.75 -5.5,5.75c-3.03756,0 -5.5,-2.57437 -5.5,-5.75c0,-3.17563 2.46244,-5.75 5.5,-5.75c3.03756,0 5.5,2.57437 5.5,5.75z" fill="#4dff50"/><path d="M211.5,251.33333c0,3.17564 -2.46243,5.75 -5.5,5.75c-3.03757,0 -5.5,-2.57437 -5.5,-5.75c0,-3.17563 2.46243,-5.75 5.5,-5.75c3.03757,0 5.5,2.57437 5.5,5.75z" fill="#4dff50"/><path d="M171.5,207.83333c0,3.17564 -2.46243,5.75 -5.5,5.75c-3.03757,0 -5.5,-2.57437 -5.5,-5.75c0,-3.17563 2.46243,-5.75 5.5,-5.75c3.03757,0 5.5,2.57437 5.5,5.75z" fill="#4dff50"/><g fill="#13b916"><path d="M219.28877,184.96385v-10.9547h41.42246v10.9547z"/><path d="M219.28877,213.71995v-12.66638h41.42246v12.66638z"/><path d="M230.66679,184.74196l-10.95389,0.11597l-0.50511,-35.95965l10.95389,-0.11597z"/><path d="M219.28877,159.97343v-10.9547h41.42246v10.9547z"/><path d="M260.2871,211.21768l-10.95389,-0.11708l0.50511,-36.30088l10.95389,0.11708z"/><path d="M246.16202,218.34146h-10.9547v-76.68292h10.9547z"/></g></g></g></svg>