<svg version="1.1" xmlns="http://www.w3.org/2000/svg" xmlns:xlink="http://www.w3.org/1999/xlink" width="90.54359" height="138.99879" viewBox="0,0,90.54359,138.99879"><g transform="translate(-194.7282,-110.5006)"><g data-paper-data="{&quot;isPaintingLayer&quot;:true}" fill-rule="evenodd" stroke="none" stroke-width="1" stroke-linecap="butt" stroke-linejoin="miter" stroke-miterlimit="10" stroke-dasharray="" stroke-dashoffset="0" style="mix-blend-mode: normal"><path d="M231.16852,136.0418c-2.31863,-6.15084 -4.51956,-16.71869 -1.27701,-22.85187c2.97773,-5.62605 8.18581,-1.99923 10.66922,6.92337c2.095,7.50714 1.71838,19.87959 1.81253,22.49217c0.10593,2.88372 -0.24128,5.70845 -0.36486,8.57451c-0.10004,2.41794 0.76503,6.44582 -0.10004,8.62777c-4.33713,-7.57806 -7.66795,-15.61013 -10.73983,-23.76594z" fill="#5c911a"/><path d="M241.96132,159.68975c-3.43675,0.17699 -7.70915,-3.3142 -10.35733,-5.21912c-1.41236,-1.02014 -18.98451,-15.22071 -23.76888,-22.27973c-2.15974,-3.18458 -4.19,-6.35725 -3.66625,-10.3557c0.7003,-5.36051 4.34889,-6.58132 9.07442,-4.24591c7.32663,3.62095 13.45275,11.72967 17.29556,18.77089c1.91258,3.49707 3.73099,7.07682 5.6671,10.53255c1.87138,3.35554 5.84365,8.85183 5.75538,12.79703z" fill="#77bd22"/><path d="M241.31399,159.50099c-0.22362,-2.48267 1.43001,-5.8029 1.99496,-8.22069c0.58848,-2.58889 1.17697,-5.13658 2.01262,-7.66647c1.57817,-5.20087 3.45867,-10.30481 5.63179,-15.28574c1.95377,-4.29903 4.04289,-9.06986 7.19716,-12.66138c2.68937,-3.06659 7.8033,-6.30414 11.50487,-2.60066c3.19547,3.20224 1.17697,9.81886 0.04708,13.56368c-1.56537,5.02448 -4.3077,9.12901 -7.43844,13.26885c-2.91888,3.85678 -16.98954,18.28744 -20.95004,19.60241z" fill="#77bd22"/><path d="M241.82597,159.6721c1.62421,-2.12899 4.29005,-3.89813 6.26147,-5.77348c2.55402,-2.42955 5.16101,-4.79438 7.75623,-7.17097c3.77218,-3.44999 7.8033,-6.98825 13.08789,-7.66648c1.91258,-0.24186 5.39052,-0.35971 6.04962,2.011c0.58848,2.18195 -2.27744,4.67654 -3.6898,5.84998c-2.09574,1.67335 -4.33934,3.15192 -6.70284,4.41716c-1.31232,0.75473 -17.01308,6.66974 -22.76257,8.33279z" fill="#77bd22"/><path d="M241.44934,159.78405c-0.40017,-7.30662 0.44725,-14.47775 0.68264,-21.73729c0.02354,-3.78587 0.44166,-7.55893 1.24759,-11.25785c0.41194,-1.68659 2.50694,-7.66633 4.64902,-4.2696c1.23582,1.952 0.44725,6.2394 0.37074,8.41547c-0.11181,3.14912 -0.14712,6.59897 -1.21816,9.61245c-0.70618,1.96377 -5.34344,19.26639 -5.73184,19.23682z" fill="#5c911a"/><path d="M240.87262,249.49907c-5.79746,0.02766 -11.46544,-1.7169 -16.24805,-5.00079c-3.17782,-2.21152 -5.68476,-5.54352 -7.83273,-8.72796c-3.20724,-4.75907 -6.35564,-9.61848 -9.31571,-14.54262c-5.35948,-8.86139 -9.28054,-18.5196 -11.61668,-28.61357c-1.83607,-8.17361 -2.41278,-23.25278 6.05551,-28.30683c4.33713,-2.60066 10.76337,-4.08673 15.67722,-5.10113c4.25474,-0.8786 8.45063,-1.98143 12.82307,-2.35894c2.49517,-0.20038 5.01389,-0.43048 7.48552,-0.04119c1.9008,0.30071 2.82472,1.35042 4.19589,1.36219c0.26482,0 1.98908,-0.96114 2.46575,-1.07913c0.96982,-0.19037 1.95436,-0.2969 2.94243,-0.31852c3.14251,-0.18273 6.0967,0.31852 9.18036,0.78445c7.96219,1.17933 16.35986,4.22237 22.59191,9.4768c7.77387,6.55189 6.50864,16.57716 4.35478,25.59407c-2.35393,9.93112 -10.76338,32.50581 -18.8315,43.45103c-8.06812,10.94537 -19.14928,13.44583 -23.92777,13.42215z" fill="#f01446"/><path d="M231.69815,220.60845c0,-0.83379 0.65869,-1.5097 1.47121,-1.5097c0.81252,0 1.47121,0.67591 1.47121,1.5097c0,0.83379 -0.65868,1.5097 -1.47121,1.5097c-0.81252,0 -1.47121,-0.67592 -1.47121,-1.5097z" fill="#ecff88"/><path d="M259.7512,178.86765c0,-0.83379 0.65868,-1.50969 1.47121,-1.50969c0.81252,0 1.47121,0.67591 1.47121,1.50969c0,0.83379 -0.65869,1.5097 -1.47121,1.5097c-0.81252,0 -1.47121,-0.67592 -1.47121,-1.5097z" fill="#ecff88"/><path d="M255.1316,171.84402c0,-0.83379 0.65868,-1.5097 1.47121,-1.5097c0.81252,0 1.47121,0.67591 1.47121,1.5097c0,0.83379 -0.65868,1.5097 -1.47121,1.5097c-0.81252,0 -1.47121,-0.67591 -1.47121,-1.5097z" fill="#ecff88"/><path d="M265.47715,172.54579c0,-0.83379 0.65868,-1.5097 1.47121,-1.5097c0.81252,0 1.47121,0.67591 1.47121,1.5097c0,0.83379 -0.65869,1.5097 -1.47121,1.5097c-0.81252,0 -1.47121,-0.67591 -1.47121,-1.5097z" fill="#ecff88"/><path d="M248.69358,164.785c0,-0.83379 0.65868,-1.5097 1.47121,-1.5097c0.81252,0 1.47122,0.67592 1.47122,1.5097c0,0.83379 -0.65869,1.50969 -1.47122,1.50969c-0.81252,0 -1.47121,-0.67591 -1.47121,-1.50969z" fill="#ecff88"/><path d="M236.64731,168.57104c0,-0.83379 0.65869,-1.5097 1.47121,-1.5097c0.81252,0 1.47121,0.67592 1.47121,1.5097c0,0.83379 -0.65868,1.50969 -1.47121,1.50969c-0.81252,0 -1.47121,-0.67591 -1.47121,-1.50969z" fill="#ecff88"/><path d="M226.76665,167.53312c0,-0.83379 0.65869,-1.50969 1.47121,-1.50969c0.81252,0 1.47122,0.67591 1.47122,1.50969c0,0.83379 -0.65869,1.5097 -1.47122,1.5097c-0.81252,0 -1.47121,-0.67592 -1.47121,-1.5097z" fill="#ecff88"/><path d="M214.24959,167.25006c0,-0.83379 0.65868,-1.5097 1.47121,-1.5097c0.81252,0 1.47121,0.67592 1.47121,1.5097c0,0.83379 -0.65869,1.50969 -1.47121,1.50969c-0.81252,0 -1.47121,-0.67591 -1.47121,-1.50969z" fill="#ecff88"/><path d="M223.11805,179.61661c0,-0.83379 0.65868,-1.5097 1.47121,-1.5097c0.81252,0 1.47121,0.67591 1.47121,1.5097c0,0.83379 -0.65869,1.50969 -1.47121,1.50969c-0.81252,0 -1.47121,-0.67591 -1.47121,-1.50969z" fill="#ecff88"/><path d="M210.45387,178.88535c0,-0.83379 0.65869,-1.5097 1.47122,-1.5097c0.81252,0 1.47121,0.67592 1.47121,1.5097c0,0.83379 -0.65868,1.50969 -1.47121,1.50969c-0.81252,0 -1.47122,-0.67591 -1.47122,-1.50969z" fill="#ecff88"/><path d="M246.8222,224.01706c0,-0.83379 0.65869,-1.5097 1.47121,-1.5097c0.81252,0 1.47122,0.67591 1.47122,1.5097c0,0.83379 -0.65869,1.5097 -1.47122,1.5097c-0.81252,0 -1.47121,-0.67592 -1.47121,-1.5097z" fill="#ecff88"/><path d="M242.17906,177.31078c0,-0.83379 0.65868,-1.5097 1.47121,-1.5097c0.81252,0 1.47121,0.67592 1.47121,1.5097c0,0.83379 -0.65869,1.5097 -1.47121,1.5097c-0.81252,0 -1.47121,-0.67591 -1.47121,-1.5097z" fill="#ecff88"/><path d="M245.53342,186.98818c0,-0.83379 0.65869,-1.5097 1.47121,-1.5097c0.81252,0 1.47121,0.67591 1.47121,1.5097c0,0.83379 -0.65868,1.5097 -1.47121,1.5097c-0.81252,0 -1.47121,-0.67591 -1.47121,-1.5097z" fill="#ecff88"/><path d="M234.12859,179.73455c0,-0.83379 0.65868,-1.5097 1.47121,-1.5097c0.81252,0 1.47121,0.67592 1.47121,1.5097c0,0.83379 -0.65869,1.50969 -1.47121,1.50969c-0.81252,0 -1.47121,-0.67591 -1.47121,-1.50969z" fill="#ecff88"/><path d="M221.49972,229.40716c0,-0.83379 0.65869,-1.5097 1.47122,-1.5097c0.81252,0 1.47121,0.67591 1.47121,1.5097c0,0.83379 -0.65868,1.5097 -1.47121,1.5097c-0.81252,0 -1.47122,-0.67592 -1.47122,-1.5097z" fill="#ecff88"/><path d="M231.69815,189.10529c0,-0.83379 0.65869,-1.50969 1.47121,-1.50969c0.81252,0 1.47121,0.67591 1.47121,1.50969c0,0.83379 -0.65868,1.5097 -1.47121,1.5097c-0.81252,0 -1.47121,-0.67592 -1.47121,-1.5097z" fill="#ecff88"/><path d="M214.30256,214.08018c0,-0.83379 0.65868,-1.5097 1.47121,-1.5097c0.81252,0 1.47121,0.67592 1.47121,1.5097c0,0.83379 -0.65869,1.5097 -1.47121,1.5097c-0.81252,0 -1.47121,-0.67591 -1.47121,-1.5097z" fill="#ecff88"/><path d="M224.37152,199.03038c0,-0.83379 0.65868,-1.5097 1.47121,-1.5097c0.81252,0 1.47121,0.67592 1.47121,1.5097c0,0.83379 -0.65869,1.50969 -1.47121,1.50969c-0.81252,0 -1.47121,-0.67591 -1.47121,-1.50969z" fill="#ecff88"/><path d="M213.64345,198.63526c0,-0.83379 0.65868,-1.50969 1.47121,-1.50969c0.81252,0 1.47122,0.67591 1.47122,1.50969c0,0.83379 -0.65869,1.5097 -1.47122,1.5097c-0.81252,0 -1.47121,-0.67592 -1.47121,-1.5097z" fill="#ecff88"/><path d="M261.46369,196.44738c0,-0.83379 0.65868,-1.5097 1.47121,-1.5097c0.81252,0 1.47121,0.67592 1.47121,1.5097c0,0.83379 -0.65869,1.50969 -1.47121,1.50969c-0.81252,0 -1.47121,-0.67591 -1.47121,-1.50969z" fill="#ecff88"/><path d="M270.76762,179.61071c0,-0.83379 0.65869,-1.50969 1.47121,-1.50969c0.81252,0 1.47121,0.67591 1.47121,1.50969c0,0.83379 -0.65868,1.5097 -1.47121,1.5097c-0.81252,0 -1.47121,-0.67592 -1.47121,-1.5097z" fill="#ecff88"/><path d="M271.68566,194.4777c0,-0.83379 0.65869,-1.5097 1.47122,-1.5097c0.81252,0 1.47121,0.67592 1.47121,1.5097c0,0.83379 -0.65868,1.50969 -1.47121,1.50969c-0.81252,0 -1.47122,-0.67591 -1.47122,-1.50969z" fill="#ecff88"/><path d="M276.66424,186.57537c0,-0.83379 0.65868,-1.5097 1.47121,-1.5097c0.81252,0 1.47121,0.67591 1.47121,1.5097c0,0.83379 -0.65868,1.50969 -1.47121,1.50969c-0.81252,0 -1.47121,-0.67591 -1.47121,-1.50969z" fill="#ecff88"/><path d="M276.95259,172.42785c0,-0.83379 0.65869,-1.50969 1.47122,-1.50969c0.81252,0 1.47121,0.67591 1.47121,1.50969c0,0.83379 -0.65868,1.5097 -1.47121,1.5097c-0.81252,0 -1.47122,-0.67592 -1.47122,-1.5097z" fill="#ecff88"/><path d="M259.56877,163.08659c0,-0.83379 0.65869,-1.5097 1.47121,-1.5097c0.81252,0 1.47121,0.67592 1.47121,1.5097c0,0.83379 -0.65868,1.50969 -1.47121,1.50969c-0.81252,0 -1.47121,-0.67591 -1.47121,-1.50969z" fill="#ecff88"/><path d="M201.67368,173.49525c0,-0.83379 0.65869,-1.5097 1.47121,-1.5097c0.81252,0 1.47122,0.67592 1.47122,1.5097c0,0.83379 -0.65869,1.5097 -1.47122,1.5097c-0.81252,0 -1.47121,-0.67592 -1.47121,-1.5097z" fill="#ecff88"/><path d="M199.12555,193.71695c0,-0.83379 0.65869,-1.5097 1.47121,-1.5097c0.81252,0 1.47121,0.67592 1.47121,1.5097c0,0.83379 -0.65868,1.50969 -1.47121,1.50969c-0.81252,0 -1.47121,-0.67591 -1.47121,-1.50969z" fill="#ecff88"/><path d="M196.56564,184.41108c0,-0.83379 0.65868,-1.5097 1.47121,-1.5097c0.81252,0 1.47121,0.67592 1.47121,1.5097c0,0.83379 -0.65869,1.5097 -1.47121,1.5097c-0.81252,0 -1.47121,-0.67591 -1.47121,-1.5097z" fill="#ecff88"/><path d="M240.80789,194.06489c0,-0.83379 0.65869,-1.50969 1.47121,-1.50969c0.81252,0 1.47122,0.67591 1.47122,1.50969c0,0.83379 -0.65869,1.5097 -1.47122,1.5097c-0.81252,0 -1.47121,-0.67592 -1.47121,-1.5097z" fill="#ecff88"/><path d="M266.41873,207.55192c0,-0.83379 0.65868,-1.5097 1.47121,-1.5097c0.81252,0 1.47121,0.67591 1.47121,1.5097c0,0.83379 -0.65869,1.5097 -1.47121,1.5097c-0.81252,0 -1.47121,-0.67591 -1.47121,-1.5097z" fill="#ecff88"/><path d="M250.41396,202.30843c-0.75599,-0.29779 -1.12164,-1.16676 -0.8167,-1.9409c0.30494,-0.77414 1.165,-1.16028 1.92099,-0.86249c0.75599,0.29779 1.12163,1.16675 0.81669,1.94089c-0.30494,0.77414 -1.16499,1.16028 -1.92098,0.86249z" fill="#ecff88"/><path d="M254.19002,184.41108c0,-0.83379 0.65868,-1.5097 1.47121,-1.5097c0.81252,0 1.47121,0.67592 1.47121,1.5097c0,0.83379 -0.65868,1.5097 -1.47121,1.5097c-0.81252,0 -1.47121,-0.67591 -1.47121,-1.5097z" fill="#ecff88"/><path d="M235.82931,206.98578c0,-0.83379 0.65869,-1.5097 1.47121,-1.5097c0.81252,0 1.47121,0.67592 1.47121,1.5097c0,0.83379 -0.65868,1.50969 -1.47121,1.50969c-0.81252,0 -1.47121,-0.67591 -1.47121,-1.50969z" fill="#ecff88"/><path d="M264.97694,187.42458c0,-0.83379 0.65868,-1.5097 1.47121,-1.5097c0.81252,0 1.47121,0.67592 1.47121,1.5097c0,0.83379 -0.65869,1.50969 -1.47121,1.50969c-0.81252,0 -1.47121,-0.67591 -1.47121,-1.50969z" fill="#ecff88"/><path d="M266.81889,220.32538c0,-0.83379 0.65869,-1.5097 1.47121,-1.5097c0.81252,0 1.47121,0.67591 1.47121,1.5097c0,0.83379 -0.65869,1.5097 -1.47121,1.5097c-0.81252,0 -1.47121,-0.67591 -1.47121,-1.5097z" fill="#ecff88"/><path d="M254.52546,212.09281c0,-0.83379 0.65869,-1.5097 1.47121,-1.5097c0.81252,0 1.47121,0.67592 1.47121,1.5097c0,0.83379 -0.65868,1.5097 -1.47121,1.5097c-0.81252,0 -1.47121,-0.67592 -1.47121,-1.5097z" fill="#ecff88"/><path d="M217.72754,189.19965c0,-0.83379 0.65869,-1.5097 1.47121,-1.5097c0.81252,0 1.47121,0.67591 1.47121,1.5097c0,0.83379 -0.65868,1.5097 -1.47121,1.5097c-0.81252,0 -1.47121,-0.67591 -1.47121,-1.5097z" fill="#ecff88"/><path d="M207.4526,187.11792c0,-0.83379 0.65869,-1.5097 1.47122,-1.5097c0.81252,0 1.47121,0.67591 1.47121,1.5097c0,0.83379 -0.65868,1.5097 -1.47121,1.5097c-0.81252,0 -1.47122,-0.67591 -1.47122,-1.5097z" fill="#ecff88"/></g></g></svg>