<svg version="1.1" xmlns="http://www.w3.org/2000/svg" xmlns:xlink="http://www.w3.org/1999/xlink" width="164.14284" height="117.26767" viewBox="0,0,164.14284,117.26767"><defs><linearGradient x1="227.44204" y1="123.65803" x2="227.44204" y2="214.50867" gradientUnits="userSpaceOnUse" id="color-1"><stop offset="0" stop-color="#6cbd45"/><stop offset="1" stop-color="#009a1b"/></linearGradient></defs><g transform="translate(-159.24431,-123.65802)"><g data-paper-data="{&quot;isPaintingLayer&quot;:true}" fill-rule="nonzero" stroke="none" stroke-linecap="butt" stroke-linejoin="miter" stroke-miterlimit="10" stroke-dasharray="" stroke-dashoffset="0" style="mix-blend-mode: normal"><g><path d="M251.69889,132.46931v0c0,0 -1.11949,6.05883 3.29696,8.12315c3.76608,1.20149 14.35056,19.45704 7.983,24.24717c-7.20088,5.41629 -16.89033,7.26392 -25.63835,6.88036c-4.87887,-0.21432 -8.82095,-1.12181 -14.31899,-3.97916c-4.16886,-2.16733 -7.18321,-4.80929 -10.83464,-8.24094c-1.53597,-1.44279 -3.77283,1.12181 -2.77093,2.77073c4.55346,7.48602 17.8484,12.76087 27.81475,13.22875c9.46035,0.44321 19.18431,-2.26828 26.94285,-7.68349c0.04615,0.12897 0.09987,0.26258 0.16714,0.40062c3.87486,7.84496 3.42279,19.83618 3.07065,24.8912c0,0 -1.88369,21.28654 -4.94166,20.75381c-3.3836,-0.06176 -6.76694,-0.07185 -10.15497,-0.05712l-34.99204,0.2546l-14.21592,0.08854c-3.84448,0.07417 -7.92356,0.22446 -11.26436,0.36121c-0.00675,-0.00211 -0.01792,-0.00443 -0.01792,-0.00443c-4.3975,-1.38444 -3.66492,-21.60882 -3.46766,-21.37869c-4.30098,-17.8058 3.98045,-45.39717 23.68637,-49.87795c1.05356,-0.24002 1.51907,-1.35513 1.32268,-2.3288c-2.50835,-12.39863 14.27768,-25.04716 20.54408,-11.27554c0.63605,1.40442 2.15955,1.21498 2.77557,0.03142c2.72267,-5.23437 10.74147,-5.30287 13.67279,-1.38444c0.99835,1.33386 1.40231,2.85628 1.3406,4.17896z" fill="url(#color-1)" stroke-width="0.53231"/><path d="M270.78689,201.91174v0c-1.24975,1.76357 -2.73071,3.38231 -4.10942,5.04364c-1.56713,1.88472 -3.9309,4.31133 -4.20677,6.90709c-14.45028,-3.86915 -1.3798,-15.69539 4.70159,-20.46213c-0.64172,1.02296 0.77743,2.66874 1.88915,1.83079c5.08078,-3.83335 14.70611,-7.88751 17.02476,0.86829c1.69528,6.39563 -5.95113,11.73095 -10.52715,14.23828c-1.34292,0.73721 -0.81457,2.45355 0.38485,2.94039c6.14315,2.51067 12.98513,4.16211 19.70154,4.89237c-4.27296,4.08012 -4.46368,9.23718 -0.93551,14.26521c-6.59985,-0.10327 -11.25761,2.31994 -13.25111,8.49003c-6.07021,-8.35539 -10.40621,-17.78793 -16.12531,-26.38669c-0.05712,-0.08411 -0.11779,-0.15699 -0.18398,-0.22426c0.38717,-0.49379 0.73046,-1.03332 1.10182,-1.58861c1.36399,-2.04619 3.13554,-3.8624 4.74965,-5.709c2.12942,-2.42996 5.07759,-5.32986 5.41289,-8.68184c0.1728,-1.7355 -2.14503,-1.94415 -2.96506,-0.80211c-0.99392,1.37872 -1.66705,2.97284 -2.662,4.37854z" fill="#009a1b" stroke-width="0.53231"/><path d="M188.3568,193.1256v0c0,0 21.3262,15.26356 3.46766,21.37972c-0.93448,-2.58129 -3.11973,-4.88536 -4.65905,-7.04286c-1.21601,-1.70393 -2.41075,-3.41708 -3.5684,-5.16149c-0.89296,-1.3473 -1.51109,-2.96398 -2.64763,-4.11257c-1.22276,-1.23754 -3.22846,0.0257 -2.83372,1.65016c0.75616,3.10624 4.16211,6.26645 6.13429,8.71892c1.84428,2.29064 3.59642,4.9191 5.77179,6.94736c-5.266,8.31176 -9.4414,17.25726 -15.19294,25.24464c-0.51043,-2.21667 -1.39999,-4.30793 -3.32287,-5.69679c-3.06158,-2.21224 -6.35072,-2.81013 -9.81482,-2.71592c1.79937,-2.32669 3.13194,-5.05379 2.50495,-7.99752c-0.67648,-3.18926 -2.57134,-4.68583 -4.95176,-5.95453c5.97601,-1.47313 12.28186,-1.65711 18.06483,-3.95114c1.13195,-0.44764 1.12752,-1.8824 0.43312,-2.45458c-0.12562,-0.26701 -0.33551,-0.51274 -0.65753,-0.70115c-5.59898,-3.27569 -13.90168,-12.02706 -7.23904,-18.05916c5.10772,-4.62428 12.75078,-2.68476 17.14936,1.5918c1.00865,0.97934 2.34122,-0.45671 1.50558,-1.50769c-0.0426,-0.05604 -0.0942,-0.09987 -0.13912,-0.15488c-0.00129,-0.00778 -0.00232,-0.01452 -0.00464,-0.02235z" fill="#009a1b" stroke-width="0.53231"/><path d="M206.28715,199.06787v0c0.16482,-0.89528 0.212,-8.36446 5.44766,-8.17708c4.97411,0.17852 4.90349,6.78151 4.08789,8.79963c-2.0843,5.16381 -2.79684,11.29238 -0.64403,16.56157c1.23079,3.011 3.21182,5.59141 4.30458,8.66963c0.66175,1.8601 0.44635,3.93997 0.00232,5.80655c-0.70687,2.96949 -4.12838,2.25376 -4.45822,-0.31295c-0.22338,-0.8413 -0.33994,-1.69739 -0.34329,-2.56125c-0.06953,-1.50877 -2.00467,-1.67251 -2.52077,-0.34437c-0.84362,2.1764 -1.63223,4.31133 -3.20848,6.0816c-2.18989,2.25587 -4.67908,-0.38274 -3.7324,-2.27735c0.36693,-1.25752 1.58526,-3.42279 2.33467,-4.48516c0.64615,-0.91315 -0.56441,-1.80277 -1.40231,-1.40231c-0.77198,0.39052 -3.64597,2.09445 -4.01733,2.24155c-2.1629,0.85377 -4.17221,-1.94184 -2.42213,-3.32184c1.81518,-1.42806 4.67357,-2.06406 6.95664,-2.22785c0.9524,-0.06953 1.84088,-0.95132 1.49862,-1.96883c-0.88853,-2.64974 -1.91485,-5.24575 -2.69465,-7.93031c-1.37305,-4.72626 -0.03688,-8.5832 0.81117,-13.15119z" fill="#009a1b" stroke-width="0.53231"/><path d="M249.52708,199.62873c0.84805,4.56819 2.18422,8.42513 0.81097,13.15139c-0.77955,2.68456 -1.80612,5.28031 -2.69465,7.9301c-0.34205,1.01751 0.54627,1.89929 1.49883,1.96883c2.28286,0.16374 5.14125,0.79999 6.95643,2.22806c1.75111,1.3798 -0.25794,4.17535 -2.42213,3.32164c-0.37115,-0.1469 -3.24536,-1.85103 -4.01712,-2.24134c-0.83816,-0.40041 -2.04851,0.48915 -1.40231,1.40231c0.74942,1.06237 1.96754,3.22743 2.33447,4.48496c0.94689,1.89486 -1.54246,4.53342 -3.7324,2.27735c-1.57619,-1.77032 -2.3648,-3.9052 -3.20848,-6.08139c-0.51594,-1.32835 -2.45103,-1.16461 -2.52077,0.34437c-0.00314,0.86386 -0.11991,1.71974 -0.34308,2.56104c-0.32985,2.56692 -3.75156,3.28265 -4.45822,0.31316c-0.44424,-1.86684 -0.65964,-3.94672 0.00211,-5.80681c1.09276,-3.07822 3.07399,-5.65842 4.30458,-8.66942c2.15281,-5.26919 1.44047,-11.39776 -0.64383,-16.56157c-0.8156,-2.01812 -0.88642,-8.62137 4.08789,-8.79963c5.23545,-0.18738 5.28371,7.28185 5.44766,8.17687v0z" fill="#009a1b" stroke-width="0.53231"/><g stroke-width="0.53231"><path d="M245.20586,147.71643c-4.04849,0 -7.34334,-3.58885 -7.34334,-7.99984c0,-4.41099 3.29485,-7.99964 7.34334,-7.99964c4.0487,0 7.34355,3.58864 7.34355,7.99964c0,4.41099 -3.29362,7.99984 -7.34355,7.99984z" fill="#ffffff"/><path d="M245.20586,132.83876c-3.43608,0 -6.22154,3.07925 -6.22154,6.87783c0,3.79853 2.78546,6.87804 6.22154,6.87804c3.43629,0 6.22175,-3.07945 6.22175,-6.87804c0,-3.79961 -2.78546,-6.87783 -6.22175,-6.87783M245.20586,132.83876v0v-2.24387v0c4.66811,0 8.46541,4.0915 8.46541,9.12165c0,5.03041 -3.7973,9.12165 -8.46541,9.12165c-4.66791,0 -8.4652,-4.09129 -8.4652,-9.12165c0,-5.03015 3.7973,-9.12165 8.4652,-9.12165z" fill="#009a1b"/></g><path d="M247.4314,136.65815c0.72243,0 1.37748,0.35004 1.85206,0.91655c0.47463,0.56544 0.76837,1.3473 0.76837,2.20993c0,0.86283 -0.29379,1.6447 -0.76837,2.21013c-0.47463,0.56652 -1.12963,0.91655 -1.85206,0.91655c-0.72243,0 -1.37769,-0.35004 -1.85227,-0.91655c-0.47437,-0.56544 -0.76837,-1.3473 -0.76837,-2.21013c0,-0.86257 0.294,-1.64449 0.76837,-2.20993c0.47463,-0.56652 1.12984,-0.91655 1.85227,-0.91655z" fill="#231f20" stroke-width="0.53231"/><g stroke-width="0.53231"><path d="M225.61733,149.20368c-5.12121,0 -9.28776,-4.36041 -9.28776,-9.72061c0,-5.35999 4.16654,-9.72061 9.28776,-9.72061c5.12101,0 9.28755,4.36062 9.28755,9.72061c0,5.3602 -4.16654,9.72061 -9.28755,9.72061z" fill="#ffffff"/><path d="M225.61733,130.88425c-4.50983,0 -8.1659,3.85019 -8.1659,8.59881c0,4.74882 3.65607,8.59881 8.1659,8.59881c4.50963,0 8.16569,-3.84999 8.16569,-8.59881c0,-4.74862 -3.65607,-8.59881 -8.16569,-8.59881M225.61733,130.88425v0v-2.24366v0c5.73913,0 10.40936,4.8643 10.40936,10.84242c0,5.97833 -4.67022,10.84268 -10.40936,10.84268c-5.73934,0 -10.40956,-4.8643 -10.40956,-10.84268c0,-5.97812 4.67022,-10.84242 10.40956,-10.84242z" fill="#009a1b"/></g><path d="M228.09699,135.72347c0.95678,0 1.82404,0.42843 2.45123,1.12181c0.62802,0.69338 1.01622,1.65016 1.01622,2.70583c0,1.05562 -0.3882,2.01266 -1.01622,2.70603c-0.62719,0.69317 -1.4944,1.12181 -2.45123,1.12181c-0.95704,0 -1.82425,-0.42869 -2.45123,-1.12181c-0.62822,-0.69338 -1.01642,-1.65036 -1.01642,-2.70603c0,-1.05562 0.3882,-2.01245 1.01642,-2.70583c0.62699,-0.69338 1.4942,-1.12181 2.45123,-1.12181z" fill="#231f20" stroke-width="0.53231"/><path d="M255.10675,172.03242c0,2.09857 -9.14889,12.91936 -16.85999,12.91936c-7.7111,0 -19.75779,-12.59404 -19.75779,-14.69261c0,-2.09857 11.51983,5.06641 19.23093,5.06641c7.7111,0 17.38685,-5.39172 17.38685,-3.29315z" fill="#541515" stroke-width="0"/><path d="M264.1736,167.85135c-7.75854,5.41603 -17.48358,8.12758 -26.94285,7.68329c-9.96635,-0.46768 -23.26129,-5.74253 -27.81475,-13.22855c-1.0019,-1.64913 1.23502,-4.21372 2.77093,-2.77093c3.65143,3.43165 6.66578,6.07361 10.83464,8.24094c5.49803,2.85736 9.44011,3.76608 14.31899,3.97916c8.74802,0.38357 18.13637,-2.06622 25.33725,-7.48226c2.85236,-2.14529 1.54199,3.70731 1.49579,3.57834z" fill="#009a1b" stroke-width="0.53231"/><path d="M263.38328,167.85135c-7.75854,5.41603 -16.42981,19.71879 -25.88914,19.27455c-9.96635,-0.46768 -22.73443,-16.80689 -27.28789,-24.29291c-1.0019,-1.64913 -0.0822,-2.10624 1.45376,-0.66345c3.65143,3.43165 17.90382,20.70045 25.94394,20.65008c8.74802,0.38357 17.34606,-11.28651 24.54694,-16.70259c2.85236,-2.14529 1.27854,1.86329 1.23239,1.73427z" fill="#009a1b" stroke-width="0.53231"/><path d="M310.92883,174.97121v0c6.46496,-4.63334 16.89476,0.41602 10.41399,7.901c-6.44281,7.43884 -18.91983,4.69824 -25.95594,0.19959c-6.26769,-4.00487 -9.62074,-8.38006 -16.87452,-3.78947c-6.05904,3.83103 -10.89975,11.2846 -18.85684,11.01187c-7.25275,-0.24908 -11.44834,-7.28288 -18.07389,-9.01271c-1.54374,-0.40401 -3.07945,-0.46345 -4.61413,-0.34329c1.02868,-1.07251 1.74776,-2.24366 2.14163,-3.48223c10.40827,1.36311 12.22454,7.70039 20.96473,6.11616c10.76846,-1.94966 14.34258,-11.84983 25.42738,-10.84474c7.6734,0.69569 14.20917,10.28394 25.42759,2.24387z" fill="#dd1a5a" stroke-width="0.53231"/></g></g></g></svg>