<svg version="1.1" xmlns="http://www.w3.org/2000/svg" xmlns:xlink="http://www.w3.org/1999/xlink" width="204.33021" height="129.5782" viewBox="0,0,204.33021,129.5782"><g transform="translate(-137.88503,-115.39039)"><g data-paper-data="{&quot;isPaintingLayer&quot;:true}" fill-rule="nonzero" stroke-linecap="butt" stroke-linejoin="miter" stroke-miterlimit="10" stroke-dasharray="" stroke-dashoffset="0" style="mix-blend-mode: normal"><g><path d="M201.53453,157.31667l43.51667,-0.25833l92.88333,41.89167l-44.61667,1.74167z" fill="#fff766" stroke="#d2c100" stroke-width="2"/><path d="M198.03453,199.48334l-0.14405,-41.67381l95.13571,44.43214l-0.75,39.2z" fill="#fff766" stroke="#d2c100" stroke-width="2"/><path d="M294.10952,241.94167l0.25,-39.5l46.75,-1.875v41z" fill="#fff766" stroke="#d2c100" stroke-width="2"/><g fill="#d2c100" stroke="none" stroke-width="0"><g><path d="M335.54785,234.20609l-2.29806,1.86585l-6.53048,-8.04318l2.29806,-1.86585z" data-paper-data="{&quot;index&quot;:null}"/><path d="M327.88722,228.47012l-2.96013,0.01474l-0.05163,-10.36036l2.96011,-0.01476z" data-paper-data="{&quot;index&quot;:null}"/><path d="M327.9201,235.88874l-2.96013,0.01474l-0.05163,-10.36036l2.96013,-0.01476z" data-paper-data="{&quot;index&quot;:null}"/><path d="M332.37016,218.03772l2.46139,1.64441l-5.75538,8.61483l-2.46139,-1.6444z" data-paper-data="{&quot;index&quot;:null}"/><path d="M332.40934,220.19813l-0.07799,-2.21018h3.82445l-2.02797,2.60018z"/><path d="M333.19057,236.04149v-1.7777l2.33997,-0.12345l1.41968,1.90115z"/></g><path d="M310.7831,221.13762v-2.98495h10.23381v2.98495z"/><path d="M310.89973,235.43456v-2.98494h10.23381v2.98494z"/><path d="M312.43123,234.22084l-2.98489,-0.02411l0.05761,-14.683l2.98489,0.02411z"/><path d="M322.47409,234.1349l-2.9849,-0.02411l0.05762,-14.683l2.98489,0.0241z"/><path d="M298.70852,221.94236v-2.49721h3.9141v2.49721z"/><path d="M302.37122,233.54618v-15.61477h2.75431v15.61477z"/><path d="M299.74481,235.53381v-2.12374h8.56223v2.12374z"/></g></g><g><path d="M142.53453,159.31667l43.51667,-0.25833l92.88333,41.89167l-44.61667,1.74167z" fill="#fff766" stroke="#d2c100" stroke-width="2"/><path d="M139.03453,201.48334l-0.14405,-41.67381l95.13571,44.43214l-0.75,39.2z" fill="#fff766" stroke="#d2c100" stroke-width="2"/><path d="M235.10953,243.94167l0.25,-39.5l46.75,-1.875v41z" fill="#fff766" stroke="#d2c100" stroke-width="2"/><g fill="#d2c100" stroke="none" stroke-width="0"><g><path d="M276.54785,236.20609l-2.29806,1.86585l-6.53048,-8.04318l2.29806,-1.86585z" data-paper-data="{&quot;index&quot;:null}"/><path d="M268.88722,230.47012l-2.96013,0.01474l-0.05163,-10.36036l2.96011,-0.01476z" data-paper-data="{&quot;index&quot;:null}"/><path d="M268.9201,237.88874l-2.96013,0.01474l-0.05163,-10.36036l2.96013,-0.01476z" data-paper-data="{&quot;index&quot;:null}"/><path d="M273.37016,220.03772l2.46139,1.64441l-5.75538,8.61483l-2.46139,-1.6444z" data-paper-data="{&quot;index&quot;:null}"/><path d="M273.40934,222.19813l-0.07799,-2.21018h3.82445l-2.02797,2.60018z"/><path d="M274.19057,238.04149v-1.7777l2.33997,-0.12345l1.41968,1.90115z"/></g><path d="M251.7831,223.13762v-2.98495h10.23381v2.98495z"/><path d="M251.89974,237.43456v-2.98494h10.23381v2.98494z"/><path d="M253.43123,236.22084l-2.98489,-0.02411l0.05761,-14.683l2.98489,0.02411z"/><path d="M263.47409,236.1349l-2.9849,-0.02411l0.05762,-14.683l2.98489,0.0241z"/><path d="M239.70852,223.94236v-2.49721h3.91411v2.49721z"/><path d="M243.37122,235.54618v-15.61477h2.75431v15.61477z"/><path d="M240.74481,237.53381v-2.12374h8.56223v2.12374z"/></g></g><g><path d="M168.53453,116.65l43.51667,-0.25833l92.88333,41.89167l-44.61667,1.74167z" fill="#fff766" stroke="#d2c100" stroke-width="2"/><path d="M165.03453,158.81667l-0.14405,-41.67381l95.13571,44.43214l-0.75,39.2z" fill="#fff766" stroke="#d2c100" stroke-width="2"/><path d="M261.10952,201.275l0.25,-39.5l46.75,-1.875v41z" fill="#fff766" stroke="#d2c100" stroke-width="2"/><g fill="#d2c100" stroke="none" stroke-width="0"><g><path d="M302.54785,193.53942l-2.29806,1.86585l-6.53048,-8.04318l2.29806,-1.86585z" data-paper-data="{&quot;index&quot;:null}"/><path d="M294.88722,187.80345l-2.96013,0.01474l-0.05163,-10.36036l2.96011,-0.01476z" data-paper-data="{&quot;index&quot;:null}"/><path d="M294.9201,195.22207l-2.96013,0.01474l-0.05163,-10.36036l2.96013,-0.01476z" data-paper-data="{&quot;index&quot;:null}"/><path d="M299.37016,177.37105l2.46139,1.64441l-5.75538,8.61483l-2.46139,-1.6444z" data-paper-data="{&quot;index&quot;:null}"/><path d="M299.40934,179.53146l-0.07799,-2.21018h3.82445l-2.02797,2.60018z"/><path d="M300.19057,195.37482v-1.7777l2.33997,-0.12345l1.41968,1.90115z"/></g><path d="M277.7831,180.47095v-2.98495h10.23381v2.98495z"/><path d="M277.89973,194.76789v-2.98494h10.23381v2.98494z"/><path d="M279.43123,193.55417l-2.98489,-0.02411l0.05761,-14.683l2.98489,0.02411z"/><path d="M289.47409,193.46823l-2.9849,-0.02411l0.05762,-14.683l2.98489,0.0241z"/><path d="M265.70852,181.27569v-2.49721h3.9141v2.49721z"/><path d="M269.37122,192.87951v-15.61477h2.75431v15.61477z"/><path d="M266.74481,194.86714v-2.12374h8.56223v2.12374z"/></g></g></g></g></svg>