<svg version="1.1" xmlns="http://www.w3.org/2000/svg" xmlns:xlink="http://www.w3.org/1999/xlink" width="113.8557" height="109.40315" viewBox="0,0,113.8557,109.40315"><g transform="translate(-183.07215,-125.29842)"><g data-paper-data="{&quot;isPaintingLayer&quot;:true}" fill-rule="nonzero" stroke="none" stroke-linecap="butt" stroke-linejoin="miter" stroke-miterlimit="10" stroke-dasharray="" stroke-dashoffset="0" style="mix-blend-mode: normal"><path d="M239.99984,234.70158v0c-31.03261,0 -56.92769,-21.44286 -56.92769,-52.47285c0,-31.03261 25.89769,-56.9303 56.92769,-56.9303c31.03032,0 56.9303,25.90226 56.92801,56.93259c0,31.02542 -25.89312,52.47056 -56.92801,52.47056z" fill="#faac18" stroke-width="0"/><g fill="#434e23" stroke-width="0.72777"><path d="M213.35967,213.11859c0.72516,0.05684 0.75129,3.36612 -1.81617,3.44451c-2.54819,0.0784 -2.9859,-3.20214 -2.07291,-3.28053c0.45176,-0.0405 0.25675,1.17202 1.93997,1.17202c1.68289,0 1.58784,-1.36474 1.94911,-1.33599z"/><path d="M234.81429,218.76928c0.9058,0.06892 0.94401,4.20528 -2.27739,4.30752c-3.18548,0.10224 -3.73229,-4.00569 -2.59098,-4.10303c0.56804,-0.05226 0.32077,1.46665 2.42471,1.46665c2.10394,0 1.98504,-1.70674 2.44366,-1.67113z"/><path d="M257.1012,212.69068c0.90808,0.06402 0.94369,4.19809 -2.27511,4.30752c-3.18548,0.10224 -3.73229,-4.00341 -2.5913,-4.10303c0.57066,-0.05488 0.3211,1.46665 2.42504,1.46665c2.10362,0 1.98472,-1.70445 2.44137,-1.67113z"/><path d="M252.9054,223.52366c0.90547,0.06892 0.9414,4.20528 -2.27282,4.30752c-3.19005,0.10224 -3.73457,-4.00569 -2.59588,-4.10303c0.56804,-0.05226 0.32796,1.46665 2.427,1.46665c2.09937,0 1.98504,-1.70674 2.4417,-1.67113z"/><path d="M242.11979,199.95562c0.72255,0.05488 0.75358,3.36154 -1.82107,3.44941c-2.54361,0.07611 -2.9859,-3.20671 -2.07291,-3.28543c0.45176,-0.04018 0.25675,1.17202 1.93997,1.17202c1.68289,0 1.58784,-1.36441 1.95401,-1.33599z"/><path d="M201.11231,193.87702c0.72255,0.05226 0.75358,3.36154 -1.82107,3.44712c-2.54361,0.0784 -2.9859,-3.20442 -2.07291,-3.28053c0.45176,-0.0454 0.25675,1.1694 1.93964,1.1694c1.68322,0 1.58817,-1.36213 1.95434,-1.33599z"/><path d="M223.85065,203.00326c0.72483,0.04769 0.75358,3.35926 -1.81617,3.44484c-2.54851,0.08068 -2.9859,-3.20214 -2.07324,-3.28086c0.45176,-0.04279 0.25675,1.17202 1.93997,1.17202c1.68322,0 1.58817,-1.3667 1.94944,-1.33599z"/><path d="M205.06574,181.52741c0.63207,0.04965 0.6582,2.94539 -1.59535,3.01431c-2.23232,0.06664 -2.61744,-2.80297 -1.81845,-2.8719c0.39459,-0.0307 0.228,1.02698 1.69727,1.02698c1.47384,0 1.39054,-1.19325 1.71654,-1.1694z"/><path d="M228.04874,181.31803c0.72287,0.04998 0.75358,3.36154 -1.82107,3.44484c-2.541,0.08068 -2.98557,-3.20214 -2.07291,-3.28086c0.45176,-0.04279 0.25675,1.17202 1.93997,1.17202c1.68322,0 1.58784,-1.36441 1.95401,-1.33599z"/><path d="M217.31082,162.82089c0.63697,0.04508 0.66081,2.94278 -1.59274,3.00941c-2.23003,0.06892 -2.61254,-2.80265 -1.81388,-2.87157c0.39688,-0.03103 0.22571,1.02698 1.69727,1.02698c1.47155,0 1.39087,-1.18867 1.70935,-1.16483z"/><path d="M274.96628,193.87702c0.72483,0.05226 0.75358,3.36154 -1.81649,3.44712c-2.5459,0.08068 -2.98328,-3.20442 -2.0703,-3.28315c0.44914,-0.04279 0.25413,1.17202 1.93735,1.17202c1.68289,0 1.58784,-1.36213 1.94944,-1.33599z"/><path d="M270.22105,151.56915c0.52296,0.03822 0.54224,2.42014 -1.31215,2.4773c-1.83511,0.06174 -2.14184,-2.30353 -1.4905,-2.36069c0.32567,-0.02842 0.18292,0.84373 1.39544,0.84373c1.21252,0 1.15046,-0.97929 1.4072,-0.96035z"/><path d="M287.81043,187.73439c0.75358,0.05455 0.782,3.4824 -1.89228,3.5657c-2.6341,0.0833 -3.08324,-3.31842 -2.14184,-3.39453c0.47299,-0.03822 0.26851,1.21219 2.01118,1.21219c1.74234,0 1.645,-1.40949 2.02294,-1.38336z"/><path d="M287.74379,199.95562c0.72516,0.05488 0.75358,3.36154 -1.81617,3.44941c-2.5459,0.07611 -2.98361,-3.20671 -2.07063,-3.28543c0.44947,-0.04018 0.25446,1.17202 1.93735,1.17202c1.68322,0 1.58817,-1.36441 1.94944,-1.33599z"/><path d="M212.81058,145.48826c0.52296,0.0356 0.54452,2.41753 -1.31215,2.47469c-1.83773,0.06174 -2.14674,-2.30353 -1.4905,-2.35808c0.32338,-0.02875 0.17835,0.84373 1.39544,0.84373c1.21219,0 1.14327,-0.97929 1.4072,-0.96035z"/><path d="M287.13753,174.60474c0.50173,0.03789 0.51839,2.32247 -1.24551,2.37735c-1.76162,0.05945 -2.06573,-2.20619 -1.43595,-2.26074c0.30672,-0.02875 0.17835,0.80813 1.33828,0.80813c1.15797,0 1.09591,-0.94369 1.34318,-0.92474z"/><path d="M247.67053,145.48826c0.52296,0.0356 0.54452,2.41753 -1.31215,2.47469c-1.83773,0.06174 -2.14674,-2.30353 -1.4905,-2.35808c0.32338,-0.02875 0.17835,0.84373 1.39544,0.84373c1.21219,0 1.14327,-0.97929 1.4072,-0.96035z"/><path d="M252.1185,133.29544c0.52068,0.03789 0.54191,2.41753 -1.31705,2.47469c-1.83511,0.06174 -2.14184,-2.30353 -1.4905,-2.3584c0.32796,-0.02842 0.18292,0.84177 1.39544,0.84177c1.21709,0 1.14817,-0.97733 1.4121,-0.95806z"/><path d="M272.80288,210.08271c0.72255,0.05488 0.75358,3.35926 -1.82107,3.44484c-2.5459,0.0784 -2.9859,-3.20475 -2.07063,-3.27825c0.44947,-0.0454 0.25446,1.1694 1.93768,1.1694c1.68289,0 1.58784,-1.36931 1.95401,-1.33599z"/><path d="M194.40359,165.86134c0.63468,0.04736 0.66342,2.94278 -1.59274,3.01203c-2.2297,0.06892 -2.61254,-2.80526 -1.81388,-2.8719c0.3972,-0.03332 0.22604,1.02698 1.69727,1.02698c1.47155,0 1.39087,-1.19096 1.70935,-1.16712z"/><path d="M254.99007,165.16721c0.63239,0.04508 0.65852,2.94049 -1.59503,3.0117c-2.2346,0.06892 -2.61744,-2.80493 -1.81878,-2.87157c0.39492,-0.03332 0.23061,1.02698 1.69759,1.02698c1.47155,0 1.39054,-1.19096 1.71621,-1.16712z"/><path d="M281.12328,156.62338c0.49912,0.0356 0.52068,2.32019 -1.24812,2.37702c-1.76619,0.05716 -2.06834,-2.20847 -1.43595,-2.26302c0.30901,-0.02842 0.17606,0.81074 1.33599,0.81074c1.16254,0 1.09591,-0.94401 1.34808,-0.92474z"/><path d="M260.81455,198.56279c0.72255,0.04965 0.75097,3.36122 -1.82107,3.44451c-2.54623,0.08068 -2.9859,-3.20214 -2.07063,-3.28053c0.44914,-0.0405 0.25446,1.17202 1.93735,1.17202c1.68322,0 1.58817,-1.36702 1.95434,-1.33599z"/><path d="M259.43086,181.31803c0.72255,0.04998 0.75358,3.36154 -1.82107,3.44484c-2.5459,0.08068 -2.98328,-3.20214 -2.07291,-3.28086c0.45176,-0.04279 0.25675,1.17202 1.93997,1.17202c1.68551,0 1.58784,-1.36441 1.95401,-1.33599z"/><path d="M272.19662,171.56658c0.50402,0.0356 0.52068,2.3179 -1.24551,2.37735c-1.76162,0.05945 -2.06605,-2.20847 -1.43595,-2.26335c0.30672,-0.02842 0.17835,0.80846 1.33828,0.80846c1.16254,0 1.09591,-0.9414 1.34318,-0.92246z"/><path d="M244.02382,187.79384c0.72516,0.05684 0.75619,3.36122 -1.81617,3.44451c-2.54851,0.0833 -2.99047,-3.20214 -2.07291,-3.27825c0.44686,-0.04279 0.25185,1.16973 1.93507,1.16973c1.68322,0 1.58784,-1.36702 1.95401,-1.33599z"/><path d="M236.19569,165.16721c0.63239,0.04508 0.66081,2.94049 -1.59274,3.0117c-2.2346,0.06892 -2.61254,-2.80493 -1.81388,-2.87157c0.39688,-0.03332 0.22571,1.02698 1.69727,1.02698c1.47155,0 1.39087,-1.19096 1.70935,-1.16712z"/></g><path d="M230.72226,144.79429v0c-8.03817,0.7735 -8.93537,-8.6183 -0.89066,-9.3918c8.0447,-0.76697 8.93842,8.62483 0.89066,9.3918" fill="#829742" stroke-width="0.72777"/></g></g></svg>