<svg version="1.1" xmlns="http://www.w3.org/2000/svg" xmlns:xlink="http://www.w3.org/1999/xlink" width="132.35192" height="113.45791" viewBox="0,0,132.35192,113.45791"><g transform="translate(-173.82404,-123.27104)"><g data-paper-data="{&quot;isPaintingLayer&quot;:true}" fill-rule="nonzero" stroke="none" stroke-width="0" stroke-linecap="butt" stroke-linejoin="miter" stroke-miterlimit="10" stroke-dasharray="" stroke-dashoffset="0" style="mix-blend-mode: normal"><path d="M248.73421,189.48877c0,22.76648 -3.81846,41.22237 -8.52877,41.22237c-4.71031,0 -8.52877,-18.45589 -8.52877,-41.22237c0,-22.76648 3.81846,-41.22236 8.52877,-41.22236c4.71031,0 8.52877,18.45588 8.52877,41.22236z" fill="#36343a"/><path d="M276.3364,188.75404c0,14.39968 18.91938,24.82964 9.14895,41.47935c-5.91419,10.07833 -25.05286,6.35335 -39.07258,-4.8205c-10.68145,-8.51322 0.30808,-25.35526 0.30808,-38.20954c0,-6.61784 -5.18372,-22.95294 -0.19551,-28.21089c17.41778,-18.35962 37.20858,-30.63555 54.74457,-7.6124c19.3853,25.45112 -24.93353,30.89047 -24.93353,37.37397z" fill="#ff2e2e"/><g fill="#36343a"><path d="M252.66262,127.18827c0,2.16343 -1.15876,3.91722 -2.58817,3.91722c-1.42941,0 -2.58817,-1.7538 -2.58817,-3.91722c0,-2.16343 1.15876,-3.91723 2.58817,-3.91723c1.42941,0 2.58817,1.7538 2.58817,3.91723z"/><path d="M248.99134,141.71917c-1.83447,8.24848 -4.29298,14.71915 -5.49124,14.45265c-1.19826,-0.26649 -0.68251,-7.16924 1.15196,-15.41771c1.83447,-8.24848 4.29299,-14.71915 5.49125,-14.45265c1.19826,0.26649 0.6825,7.16925 -1.15196,15.41771z"/></g><g data-paper-data="{&quot;index&quot;:null}" fill="#36343a"><path d="M229.31488,123.89132c1.42941,0 2.58815,1.7538 2.58815,3.91723c0,2.16342 -1.15876,3.91723 -2.58815,3.91723c-1.42941,0 -2.58817,-1.7538 -2.58817,-3.91723c0,-2.16342 1.15877,-3.91723 2.58817,-3.91723z"/><path d="M229.24603,126.92173c1.19826,-0.26649 3.65676,6.20419 5.49125,14.45265c1.83447,8.24846 2.35022,15.15121 1.15196,15.4177c-1.19826,0.26649 -3.65676,-6.20418 -5.49125,-14.45265c-1.83447,-8.24846 -2.35022,-15.15122 -1.15196,-15.41771z"/></g><path d="M178.73011,152.00035c17.536,-23.02314 37.32681,-10.74724 54.74457,7.6124c4.98822,5.25795 -0.19551,21.59305 -0.19551,28.21089c0,12.85428 10.98953,29.69633 0.30808,38.20955c-14.01972,11.17385 -33.15839,14.89882 -39.07258,4.8205c-9.77043,-16.64971 9.14895,-27.07967 9.14895,-41.47935c0,-6.4835 -44.31883,-11.92286 -24.93353,-37.37397z" data-paper-data="{&quot;index&quot;:null}" fill="#ff2e2e"/><path d="M215.3426,160.65047c0,3.87046 7.75721,19.76482 5.46383,22.23415c-2.14126,2.30553 -18.81603,-3.62982 -22.001,-3.62982c-6.59623,0 -11.94352,-8.82332 -11.94352,-16.3075c0,-7.48418 5.34729,-13.5513 11.94352,-13.5513c6.59623,0 16.53718,3.7703 16.53718,11.25447z" fill="#9920b1"/><path d="M223.45805,222.32022c0,5.05288 -7.89179,7.28822 -13.80109,7.28822c-5.9093,0 -10.69972,-4.09616 -10.69972,-9.14904c0,-5.05288 2.30933,-12.87068 8.21863,-12.87068c2.99249,0 14.69202,-2.36107 16.63385,-0.6679c1.89272,1.65035 -0.35166,12.90532 -0.35166,15.3994z" fill="#9920b1"/><path d="M280.30828,146.29464c6.59622,0 11.94352,6.06712 11.94352,13.5513c0,7.48418 -5.34729,16.3075 -11.94352,16.3075c-3.18497,0 -19.85976,5.93536 -22.001,3.62983c-2.29338,-2.46934 5.46383,-18.36371 5.46383,-22.23416c0,-7.48418 9.94096,-11.25446 16.53718,-11.25446z" data-paper-data="{&quot;index&quot;:null}" fill="#9920b1"/><path d="M255.85083,206.61069c1.94183,-1.69317 13.64136,0.6679 16.63385,0.6679c5.9093,0 8.21863,7.81781 8.21863,12.87068c0,5.05288 -4.79042,9.14904 -10.69972,9.14904c-5.9093,0 -13.80109,-2.23534 -13.80109,-7.28822c0,-2.49408 -2.24439,-13.74904 -0.35166,-15.3994z" data-paper-data="{&quot;index&quot;:null}" fill="#9920b1"/></g></g></svg>