<svg version="1.1" xmlns="http://www.w3.org/2000/svg" xmlns:xlink="http://www.w3.org/1999/xlink" width="246.95289" height="174.5403" viewBox="0,0,246.95289,174.5403"><g transform="translate(-116.52355,-92.72985)"><g data-paper-data="{&quot;isPaintingLayer&quot;:true}" fill-rule="evenodd" stroke="none" stroke-linecap="butt" stroke-linejoin="miter" stroke-miterlimit="10" stroke-dasharray="" stroke-dashoffset="0" style="mix-blend-mode: normal"><path d="M145.37319,187.93365c52.50634,52.50634 137.32427,52.50634 189.83061,0l28.27264,28.27264c-68.08514,68.08514 -178.86775,68.08514 -246.95289,0z" fill="#caf5ba" stroke-width="1"/><path d="M239.42301,92.72985l98.08877,98.08877c-53.66032,54.23732 -141.36322,54.23732 -195.60054,0z" fill="#ee1717" stroke-width="1"/><path d="M224.4212,198.31952c5.19293,2.30797 8.0779,6.34692 6.92391,9.80888c-1.15399,3.46196 -6.34692,4.03895 -11.53985,2.30797c-5.19293,-2.30797 -8.0779,-6.34692 -6.92391,-9.80888c1.15399,-3.46196 6.34692,-4.03895 11.53985,-2.30797z" fill="#231f20" stroke-width="1"/><path d="M201.85213,158.67896c4.33668,-2.34432 9.27689,-1.86715 9.881,0.95377c1.41767,2.76495 -1.1788,6.62503 -5.51547,8.96935c-4.33668,2.34374 -9.27747,1.86715 -9.881,-0.95377c-1.41767,-2.76495 1.17822,-6.62503 5.51547,-8.96935z" fill="#231f20" stroke-width="1"/><path d="M180.71284,187.98904c4.78615,-1.18168 9.44941,0.51872 10.12853,3.55081c-0.1229,2.88266 -3.27847,6.44385 -8.06463,7.62554c-4.78558,1.18168 -9.44883,-0.51872 -10.12795,-3.55081c-0.67912,-3.0321 3.27847,-6.44385 8.06405,-7.62554z" fill="#231f20" stroke-width="1"/><path d="M298.86191,177.92917c4.92983,0.02193 8.29542,2.46837 8.21407,5.5749c-0.08136,3.10595 -4.21089,5.24833 -9.14072,5.22582c-4.92925,-0.02193 -8.29485,-2.46837 -8.21349,-5.57433c0.82279,-2.76553 4.75154,-5.44912 9.14014,-5.2264z" fill="#231f20" stroke-width="1"/><path d="M232.20249,127.86957c4.25082,-2.49723 8.39374,-2.11102 9.90902,0.6018c1.51498,2.71232 -0.57907,6.21424 -4.82967,8.71068c-4.25082,2.49723 -8.39346,2.11152 -9.90873,-0.6013c-1.06713,-2.34934 0.94176,-6.6626 4.82939,-8.71118z" fill="#231f20" stroke-width="1"/><path d="M278.8368,150.73954c2.3022,4.61883 1.71944,9.23361 -0.93646,10.84631c-2.65647,1.61212 -7.03931,-0.24003 -9.68829,-4.39726c-2.3022,-4.61883 -1.71944,-9.23419 0.93704,-10.84631c3.46369,-1.72694 7.49975,0.58622 9.68771,4.39726z" fill="#231f20" stroke-width="1"/><path d="M245.19293,166.00793c3.46196,2.88496 5.19293,6.92391 3.46196,9.80888c-1.73098,2.30797 -6.34692,1.73098 -10.38587,-0.57699c-3.46196,-2.88496 -5.19293,-6.92391 -3.46196,-9.80888c2.30797,-2.30797 6.34692,-2.30797 10.38587,0.57699z" fill="#231f20" stroke-width="1"/><path d="M271.15761,203.51245c-0.57699,5.19293 -4.03895,9.23188 -7.50091,9.23188c-3.46196,-0.57699 -5.76993,-5.19293 -5.19293,-10.96286c0.57699,-5.19293 4.03895,-9.23188 7.50091,-9.23188c4.03895,0.57699 6.34692,5.19293 5.19293,10.96286z" fill="#231f20" stroke-width="1"/><path d="M353.09058,205.82043l10.38587,10.38587c-68.08514,68.08514 -178.86775,68.08514 -246.95289,0l12.11685,-12.11685c61.73822,63.4692 161.55797,63.4692 224.45018,1.73098z" fill="#64974f" stroke-width="1"/></g></g></svg>