<svg version="1.1" xmlns="http://www.w3.org/2000/svg" xmlns:xlink="http://www.w3.org/1999/xlink" width="123.51701" height="59.53312" viewBox="0,0,123.51701,59.53312"><g transform="translate(-177.9,-148.57143)"><g data-paper-data="{&quot;isPaintingLayer&quot;:true}" fill-rule="nonzero" stroke="none" stroke-linecap="butt" stroke-linejoin="miter" stroke-miterlimit="10" stroke-dasharray="" stroke-dashoffset="0" style="mix-blend-mode: normal"><path d="M272.16667,156.66667c0,4.23418 -9.47664,7.66667 -21.16667,7.66667c-11.69003,0 -20.88095,-1.14677 -20.88095,-5.38095c0,-1.77881 1.05068,-3.81954 3.79874,-5.58818c3.79326,-2.44132 10.73183,-4.79277 17.51078,-4.79277c6.96418,0 14.5714,0.2182 18.42884,2.09837c2.61764,1.27587 2.30925,4.28515 2.30925,5.99687z" fill="#645f8e" stroke-width="0"/><path d="M177.9,168.4c1.4,-1.1 4.7,-0.7 6.3,-0.5c4.2,0.6 8.3,4 11.8,6.2c2.7,1.7 6.9,4.2 10.3,4.1c2.2,-0.1 4.9,-1.9 6.6,-3.2c3.2,-2.4 5.7,-6 8.3,-9c2.7,-3.1 6.2,-5.7 9.9,-7.5c3.6,-1.8 7.8,-3.9 11.6,-4.9c8.4,-2.1 16.6,-2.9 25.1,-1c6.7,1.5 12.9,3.3 18.5,7.4c5.4,4 6.7,8.8 9,14.7c0.7,1.7 1.4,3.3 2.5,4.8c0.8,1.1 1.8,1.6 2.7,2.4c0.7,0.7 1.5,1.9 0.3,2.6c-1,0.6 -2.5,-0.7 -3.4,-0.1c-1.7,1.1 2.4,2.8 2.4,2.8c-0.1,2.1 -3.5,2.4 -4,2.8c-2.8,2.3 -7.1,9.1 -15.4,12.3c-8.3,3.3 -14.9,5.3 -18.8,5.5c-4.6,0.3 -10,0.5 -14.6,0c-4,-0.4 -10.2,-0.4 -13.6,-2.4c-6.2,-3.5 -10.5,-5.3 -16.4,-9.3c-3.5,-2.3 -6.1,-6.7 -10.4,-6.9c-5.2,-0.2 -8.8,4 -12.1,7.5c-1.9,2 -4.5,5.6 -7.4,6.4c-2.7,0.8 -2.1,-1.6 -1.7,-3.5c0.7,-3.1 1.4,-5.8 1,-8.9c-0.2,-1.6 -0.5,-3.3 -0.7,-4.9c-0.6,-4.5 -1.5,-10.6 -4.8,-13.8z" fill="#abd3dd" stroke-width="1"/><path d="M300.5,182c0.7,0.7 1.5,1.9 0.3,2.6c-1,0.6 -2.5,-0.7 -3.4,-0.1c-1.7,1.1 2.4,2.8 2.4,2.8c-0.1,1.8 -2.6,2.3 -3.6,2.6c-5,0.7 -11.2,-0.7 -15.4,-2.1c-5.4,-1.8 -9,-6.2 -7.6,-12c1.3,-5.5 1.4,-20 9.5,-18c1.2,0.7 2.4,1.4 3.6,2.3c5.5,3.9 6.7,8.7 9,14.7c0.7,1.7 1.4,3.3 2.5,4.8c0.8,1.1 1.8,1.6 2.7,2.4z" fill="#645f8e" stroke-width="1"/><g stroke-width="1"><path d="M283.7,165.2c6.3,-0.1 6.6,7 1.3,7.3c-5.3,0.3 -6.6,-7.3 -1.3,-7.3z" fill="#ffffff"/><path d="M284.8,170.6c-0.9,0.1 -1.5,-0.3 -1.9,-0.9c1.4,-0.3 1.4,-1.8 0,-2.5c0.2,-0.3 0.6,-0.4 1.2,-0.3c3.1,0.6 3.3,3.6 0.7,3.7z" fill="#06134a"/></g><path d="M184.2,167.8c0.6,0.1 1.1,0.2 1.7,0.4c3.3,6.8 6,14.7 6.5,22c0.1,2 0.9,4.7 1.3,7.5c-1.8,2 -4.1,4.8 -6.6,5.5c-2.8,0.8 -2.2,-1.6 -1.7,-3.5c0.8,-3 1.4,-5.7 1,-8.9c-0.2,-1.6 -0.5,-3.3 -0.7,-4.9c-0.6,-4.5 -1.5,-10.6 -4.8,-13.8l-3,-3.7c1.4,-1 4.7,-0.6 6.3,-0.6z" fill="#645f8e" stroke-width="1"/><path d="M269.7211,183.55866c0.59359,4.37103 -4.77596,6.56614 -11.99324,7.54626c-4.90455,0.66605 -9.45067,1.81253 -11.96417,-0.36395c-2.63757,-2.28392 2.68919,-2.19978 2.39276,-4.34725c-0.30606,-2.21721 -4.63675,0.38335 -3.47735,-3.31507c0.99785,-3.1831 5.67709,-2.9894 10.61345,-3.65977c7.21728,-0.98012 13.83496,-0.23125 14.42855,4.13978z" fill="#645f8e" stroke-width="0"/></g></g></svg>