<svg version="1.1" xmlns="http://www.w3.org/2000/svg" xmlns:xlink="http://www.w3.org/1999/xlink" width="174.31759" height="284.4792" viewBox="0,0,174.31759,284.4792"><defs><linearGradient x1="241.53847" y1="57.94706" x2="241.53847" y2="102.80931" gradientUnits="userSpaceOnUse" id="color-1"><stop offset="0" stop-color="#ded5cf"/><stop offset="1" stop-color="#ded5cf" stop-opacity="0"/></linearGradient><linearGradient x1="243.30679" y1="300.50853" x2="243.30679" y2="223.46684" gradientUnits="userSpaceOnUse" id="color-2"><stop offset="0" stop-color="#ded5cf"/><stop offset="1" stop-color="#ded5cf" stop-opacity="0"/></linearGradient><linearGradient x1="242.77931" y1="143.93937" x2="242.77931" y2="272.98106" gradientUnits="userSpaceOnUse" id="color-3"><stop offset="0" stop-color="#ded5cf"/><stop offset="1" stop-color="#ded5cf" stop-opacity="0"/></linearGradient></defs><g transform="translate(-156.2973,-22.323)"><g data-paper-data="{&quot;isPaintingLayer&quot;:true}" fill-rule="nonzero" stroke="none" stroke-linecap="butt" stroke-linejoin="miter" stroke-miterlimit="10" stroke-dasharray="" stroke-dashoffset="0" style="mix-blend-mode: normal"><path d="M163.44037,302.49542c-6.17495,-5.94439 -8.09,-156.67921 0,-164.97367c5.70005,-5.84411 152.42945,-7.4136 160.03433,0c7.39562,7.2096 6.89111,160.18073 0,164.97367c-7.62858,5.30588 -153.6324,6.16289 -160.03433,0z" fill="#ded5cf" stroke-width="0"/><path d="M210.59655,144.94605c-2.16322,-2.9072 -2.99811,-68.84472 -0.91004,-86.51567c0.25779,-2.18165 -7.64954,-2.07943 -5.57006,-6.12231c3.32796,-6.47017 65.16637,-4.65627 73.20381,-1.24617c5.82267,2.47042 -4.63702,5.05174 -4.39307,7.17299c1.99684,17.36368 3.07145,84.36439 0.65455,86.71116c-3.0024,2.91529 -60.46556,3.38618 -62.98518,0z" fill="#ded5cf" stroke-width="0"/><path d="M269.8266,62.05309c0,9.61503 0.16537,21.75961 -6.79467,25.75225c-4.64799,2.66633 -37.41883,2.19458 -41.96004,-0.36818c-7.24334,-4.08765 -6.82462,-16.02602 -6.82462,-25.88254c0,-8.65333 -5.57698,-29.63198 -0.19036,-34.95151c2.95766,-2.92082 42.15267,-8.2503 55.50373,0.59125c7.39407,4.89662 0.26597,29.14309 0.26597,34.85874z" fill="#ceb27f" stroke-width="0"/><path d="M212.25339,102.80931v-44.86224c0,0 13.95041,4.81874 30.16489,4.9847c15.63995,0.16008 28.40526,-4.9847 28.40526,-4.9847v44.86224z" fill="url(#color-1)" stroke-width="0"/><path d="M167.74015,293.65166c-2.25206,-4.80659 -4.47253,-128.86906 -4.47253,-128.86906l157.53253,-0.96531c0,0 -1.7733,127.71258 -5.46643,129.83437c-8.25569,4.74308 -144.33928,6.9457 -147.59358,0z" fill="#34ca35" stroke-width="0"/><path d="M321.79406,163.56882c0,4.25408 -35.59859,7.7027 -79.51169,7.7027c-43.91309,0 -79.51169,-3.44862 -79.51169,-7.7027c0,-4.25408 35.59859,-7.70269 79.51169,-7.70269c43.9131,0 79.51169,3.44861 79.51169,7.70269z" fill="#34ca35" stroke-width="0"/><path d="M323.81237,223.46684v77.04169h-161.01116v-77.04169z" data-paper-data="{&quot;index&quot;:null}" fill="url(#color-2)" stroke-width="0"/><path d="M162.27373,272.98106v-129.04169h161.01117v129.04169z" data-paper-data="{&quot;index&quot;:null}" fill="url(#color-3)" stroke-width="0"/><path d="M159.08066,244.02382c-2.39335,-2.03882 -4.83344,-41.59512 0,-45.48183c4.80933,-3.86732 161.26977,-2.04387 169.31571,0c3.02453,2.18762 2.89077,45.36046 0,45.48183c-8.071,1.46278 -162.54249,1.69906 -169.31571,0z" fill="#9e8476" stroke-width="0"/><g stroke-width="1"><path d="M242.351,233.91921c-1.43961,0.44513 -3.29774,0.23282 -4.70159,0.56827c-0.20849,-0.45935 -0.23528,-2.6262 -0.1982,-3.0723c0.03655,-0.44614 0.1434,-0.81333 0.21525,-1.25758c0.03649,-0.29695 0.47957,-0.35518 0.69056,-0.53057c0.73919,-0.59504 1.15138,-0.69049 2.09774,-0.48973c0.45568,0.06157 1.10823,0.11029 1.28142,0.56774c0.24262,0.75954 0.75839,3.36328 0.61484,4.21418z" fill="#c4c4c4"/><path d="M242.8075,230.45995c-0.01684,-0.47442 0.30683,-0.90864 0.80753,-1.04859c0.77351,-0.28313 1.64749,-0.27286 2.39459,0.02812c0.33558,0.14978 0.59188,0.37153 0.72898,0.70153c0.24143,0.55053 0.36864,1.09972 0.37994,1.68372c0.0251,0.29195 0.34591,2.44918 0.17913,2.77561l-4.35948,-0.30669c-0.02837,-0.21964 -0.09456,-2.11784 -0.08631,-2.30032c-0.0146,-0.51112 -0.02979,-1.02227 -0.0444,-1.53339z" fill="#cccccc"/><path d="M248.34479,230.57228c0.05221,-0.1956 0.1456,-0.391 0.28081,-0.58561c1.2606,-0.26808 2.19506,0.12747 2.93854,0.99262c0.38885,0.51057 0.60891,1.05977 0.69998,1.68655c0.07265,0.19619 0.51109,2.11676 0.29346,2.31158c-0.65451,-0.19896 -3.90882,-0.72376 -4.56126,-0.96152c-0.02084,-1.17458 0.08317,-2.34859 0.34848,-3.44362z" fill="#c0c0c0"/><path d="M232.95919,235.29929c-0.06279,-0.81356 0.24277,-3.25972 0.54344,-3.96697c0.25294,-0.63268 0.86994,-1.15848 1.5884,-1.3905c0.40442,0.10576 0.80394,0.28551 1.07382,0.54095c0.07704,0.0729 0.15405,0.14582 0.22831,0.25599c0.18121,0.33055 0.46741,3.13902 0.38721,3.65819c-0.33567,0.07845 -2.95358,0.89071 -3.8212,0.90235z" fill="#e4e4e4"/><path d="M238.19632,238.8308c-2.38256,-0.49209 -1.32184,-0.51844 -3.56482,-0.85865c-0.08505,-0.01291 -1.90988,-1.04592 -2.00273,-1.06025c-0.88932,-1.09515 -2.36156,-1.7311 -1.66631,-2.99592c0.79939,-1.29682 4.418,-0.31405 5.84917,-0.62056c3.3509,-0.70408 4.72721,-0.20247 8.18744,0.13789c2.83699,0.28789 6.59214,-1.43631 8.29076,1.07592c-0.23776,1.78962 -1.1209,1.71661 -2.62766,2.82834c-1.98868,0.78441 -1.35817,0.81626 -4.74151,1.45009c-3.74085,0.02498 -3.96365,0.5552 -7.72434,0.04314z" fill="#e4e4e4"/><path d="M241.96073,225.39946c1.73143,-0.54215 3.94718,-0.35913 5.63323,-0.77717c0.23808,0.50917 0.21764,2.9394 0.16252,3.44102c-0.05448,0.50163 -0.19108,0.91675 -0.28771,1.41729c-0.0508,0.33426 -0.26613,0.57989 -0.52257,0.78294c-0.8979,0.68955 -2.03541,0.95361 -3.16166,0.7565c-0.54314,-0.05555 -0.99504,-0.40275 -1.19095,-0.91082c-0.2716,-0.84495 -0.82504,-3.75082 -0.63286,-4.70974z" fill="#d4d4d4"/><path d="M241.63144,230.04288c0.02813,0.5453 -0.31952,1.03938 -0.86805,1.19271c-0.84604,0.31377 -1.80863,0.28895 -2.63739,-0.06796c-0.37254,-0.17706 -0.65928,-0.43565 -0.81691,-0.81683c-0.27699,-0.63609 -0.42816,-1.26892 -0.4524,-1.94003c-0.03354,-0.33579 -0.43038,-2.81897 -0.25332,-3.19152l4.80669,0.41724c0.03568,0.25276 0.1469,2.43456 0.14151,2.64407c0.02641,0.58744 0.05346,1.1749 0.07987,1.76233z" fill="#d2d2d2"/><path d="M235.68075,228.53003c-0.04755,0.20842 -0.63626,1.20187 -0.76748,1.4075c-1.26333,0.26083 -1.72785,-0.48939 -2.49935,-1.4316c-0.405,-0.555 -0.64092,-1.14784 -0.74885,-1.82112c-0.07829,-0.21166 -0.56962,-2.27798 -0.35535,-2.48211c0.66465,0.22677 3.9574,0.85683 4.62098,1.12513c0.05131,1.25857 -0.01089,2.03486 -0.24998,3.2022z" fill="#e4e4e4"/><path d="M252.2077,223.44875c0.14097,1.04591 0.05583,4.14704 -0.18745,5.02489c-0.20113,0.7867 -1.26833,1.73025 -1.98644,1.96342c-0.42637,-0.17099 -0.37347,-0.76187 -0.67535,-1.11237c-0.08616,-0.10003 -0.17232,-0.20007 -0.25911,-0.34755c-0.21761,-0.43873 -0.77584,-4.05546 -0.74196,-4.7123c0.3383,-0.07061 2.95797,-0.87791 3.85032,-0.8161z" fill="#c2c2c2"/><path d="M247.59192,202.59895c7.82784,0.2017 9.99029,8.28347 9.04621,15.67674c-0.2116,1.71265 -0.79898,3.37405 -1.63479,4.90315c-0.96146,1.56803 -5.17803,2.63292 -6.90511,3.00707c-4.04381,0.85967 -5.51602,1.11512 -9.69481,0.71407c-3.42616,-0.33948 -8.30142,-1.34522 -10.35949,-4.37359c-1.93719,-2.85779 -2.02476,-7.59567 -1.43682,-10.89143c0.78056,-4.29685 3.74299,-8.28566 7.82616,-9.06057c3.78784,-0.6988 5.56494,-2.04641 13.15863,0.02457z" fill="#e4e4e4"/><path d="M252.26978,212.6049c0.85568,2.53655 -0.19329,4.22762 -2.35173,5.09434c-1.73573,0.7095 -4.23004,-0.02527 -4.88548,-2.22173c-0.34449,-1.26612 -0.05785,-2.64127 0.80654,-3.66723c0.21598,-0.24562 0.47347,-0.49019 0.72989,-0.69323c0.38334,-0.24197 0.7656,-0.44177 1.22935,-0.55508c1.22009,-0.2204 3.56971,-0.3695 4.47141,2.04295z" fill="#3b3b3b"/><path d="M238.14102,211.90529c1.32873,2.08789 -0.11655,4.5236 -2.27497,5.38967c-1.73573,0.7095 -4.23004,-0.02525 -4.88548,-2.22108c-0.34665,-1.18244 -0.01137,-2.80817 0.80652,-3.66724c0.21536,-0.2463 0.4735,-0.49082 0.72992,-0.69387c0.38332,-0.24132 0.76557,-0.44113 1.22871,-0.55511c1.22181,-0.2619 3.06721,-0.34027 4.3953,1.7476z" fill="#3b3b3b"/><path d="M244.5081,222.04473c-0.11179,0.08844 -0.16142,0.61278 -1.13648,0.26769c-0.97452,-0.34508 -0.85491,-0.75856 -1.54831,-0.70811c-0.69341,0.05079 -0.89284,0.71388 -1.91226,0.68761c-1.01942,-0.02627 -0.70772,-0.81816 -0.58886,-1.18073c0.15967,-0.5445 0.42821,-1.06319 0.55177,-1.60862c0.15909,-0.52152 0.42706,-1.04023 0.80385,-1.51048c0.1532,-0.29302 0.59515,-0.48726 1.10455,-0.45148c1.74362,0.20492 2.79246,3.3173 2.72575,4.50415z" fill="#bcbcbc"/></g></g></g></svg>