<svg version="1.1" xmlns="http://www.w3.org/2000/svg" xmlns:xlink="http://www.w3.org/1999/xlink" width="141.97512" height="151.23218" viewBox="0,0,141.97512,151.23218"><g transform="translate(-169.01244,-104.38391)"><g data-paper-data="{&quot;isPaintingLayer&quot;:true}" fill-rule="nonzero" stroke="none" stroke-width="1" stroke-linecap="butt" stroke-linejoin="miter" stroke-miterlimit="10" stroke-dasharray="" stroke-dashoffset="0" style="mix-blend-mode: normal"><g><path d="M310.98756,188.86715c0,36.85953 -31.77988,66.74894 -70.98904,66.74894c-39.20916,0 -70.98608,-29.87661 -70.98608,-66.74894c0,-36.85953 32.62042,-56.51842 70.98608,-49.75212c37.51496,-6.76893 70.98904,12.89555 70.98904,49.75212z" fill="#ec1c2c"/><path d="M195.01655,173.21237c-3.3116,8.0509 -1.65482,16.36239 -6.19292,14.49588c-4.53811,-1.86684 -5.52863,-9.90395 -2.21703,-17.95485c3.31062,-8.0486 9.66961,-13.06294 14.20805,-11.1961c4.53811,1.86684 -2.48813,6.60909 -5.79776,14.65539z" fill="#ffeaea"/><path d="M220.57397,109.4885c2.84325,-1.6988 5.6783,-3.40317 8.51892,-5.10459c2.04407,3.14126 4.0993,6.20736 5.74788,9.69685c6.02094,12.70979 4.69532,26.13572 4.52268,39.57806c-1.04435,0.2478 -2.72083,0.42601 -3.75402,0.60981c0.71877,-17.12088 -3.35558,-32.81636 -15.03513,-44.7798z" fill="#67991d"/></g></g></g></svg>