<svg version="1.1" xmlns="http://www.w3.org/2000/svg" xmlns:xlink="http://www.w3.org/1999/xlink" width="128.0097" height="121.99271" viewBox="0,0,128.0097,121.99271"><g transform="translate(-175.99515,-119.00365)"><g data-paper-data="{&quot;isPaintingLayer&quot;:true}" stroke="none" stroke-linecap="butt" stroke-linejoin="miter" stroke-miterlimit="10" stroke-dasharray="" stroke-dashoffset="0" style="mix-blend-mode: normal"><path d="M257.8591,132.39408c4.12124,-0.65586 23.25543,5.67737 27.6221,7.75748c4.68505,2.23387 17.96914,7.279 18.52365,13.92478c-0.46112,3.69754 -9.88778,-1.72899 -9.14165,1.59041c0.20265,0.90152 1.19052,0.86918 1.80863,2.0157c2.21285,4.10459 5.5007,10.23611 3.00472,11.52458c-3.39818,1.75419 -8.01429,-7.32997 -10.26237,-7.68497c-0.91129,-0.1439 -0.12104,11.72016 -3.18483,10.40078c-2.96673,-1.27759 -4.83513,-9.46794 -6.20517,-9.93342c-2.85122,-0.96871 -0.94327,5.88567 -3.4516,4.233c-4.22213,-3.42137 -12.08297,-19.35012 -13.79718,-21.37747c-1.61455,-1.88629 -3.97191,-10.14395 -4.91629,-12.45085z" data-paper-data="{&quot;index&quot;:null}" fill="#229413" fill-rule="evenodd" stroke-width="1"/><path d="M256.31757,130.10483c7.24984,-1.44564 27.82878,-3.88734 29.69686,-3.80597c0.17759,0.00233 5.13742,-2.33261 5.2781,-2.29041c2.13894,0.64152 -1.91483,4.59607 -0.6248,4.83028c1.73694,0.31534 5.54838,-1.6582 6.93,-1.38473c1.26847,0.27684 -1.98401,2.6027 -1.34649,2.85969c1.2754,0.51412 6.7419,0.16776 6.99645,1.33371c0.39864,1.89618 -4.84743,1.85861 -6.27149,2.49639c-1.01184,0.45316 0.97653,2.97341 0.16656,3.27146c-1.84689,0.67572 -4.69039,-2.83933 -5.71549,-2.22388c-1.04847,0.62948 0.66248,2.89936 -1.36277,3.30114c-1.99453,0.39569 -8.8951,-1.59485 -11.01652,-2.16472c-4.19695,-1.13026 -8.40011,-2.24093 -12.582,-3.45269c-3.22796,-0.93535 -7.15695,-1.35939 -10.14841,-2.77028z" data-paper-data="{&quot;index&quot;:null}" fill="#229413" fill-rule="evenodd" stroke-width="1"/><path d="M253.84474,136.37497c-0.0555,-0.51606 -8.17192,5.60415 -13.443,7.00478c-2.65654,0.70589 -3.19889,-1.88945 -3.19889,-1.88945c0,0 21.05569,-17.90934 22.15624,-12.40502c2.52496,12.62845 -5.31237,9.16815 -5.51435,7.2897z" data-paper-data="{&quot;index&quot;:null}" fill="#7f5933" fill-rule="nonzero" stroke-width="0"/><g fill-rule="nonzero" stroke-width="0"><path d="M253.53372,146.91646c2.06381,8.27864 -3.48343,16.78976 -12.39011,19.01014c-8.90667,2.22037 -17.8,-2.69082 -19.86381,-10.96946c-2.06381,-8.27864 3.48344,-16.78977 12.39011,-19.01014c8.90667,-2.22037 17.8,2.69082 19.86381,10.96946z" fill="#9803ab"/><path d="M235.35237,145.03354c-1.1829,1.67645 -3.75236,2.36306 -4.86589,2.82496c-2.61085,1.08299 -5.85971,-0.59764 -6.18059,-1.37123c-0.32089,-0.77358 1.99661,-4.86021 4.60746,-5.9432c2.61085,-1.08299 7.57569,-2.33504 7.89657,-1.56145c0.18403,0.44365 0.13306,3.79665 -1.45755,6.05092z" fill="#b918ce"/></g><g fill-rule="nonzero" stroke-width="0"><path d="M228.17666,130.50674c2.06381,8.27864 -3.48344,16.78977 -12.39011,19.01014c-8.90667,2.22037 -17.8,-2.69082 -19.86381,-10.96946c-2.06381,-8.27864 3.48344,-16.78976 12.39011,-19.01014c8.90667,-2.22038 17.8,2.69082 19.86381,10.96946z" fill="#9803ab"/><path d="M209.99531,128.62382c-1.1829,1.67645 -3.75236,2.36306 -4.86589,2.82495c-2.61085,1.08299 -5.8597,-0.59764 -6.18059,-1.37123c-0.32089,-0.77358 1.99661,-4.8602 4.60746,-5.94319c2.61085,-1.08299 7.57569,-2.33504 7.89657,-1.56145c0.18403,0.44365 0.13306,3.79665 -1.45755,6.05092z" fill="#b918ce"/></g><g fill-rule="nonzero" stroke-width="0"><path d="M267.38705,168.11939c2.06381,8.27864 -3.48343,16.78977 -12.3901,19.01014c-8.90667,2.22037 -17.80001,-2.69082 -19.86381,-10.96946c-2.06381,-8.27864 3.48344,-16.78976 12.3901,-19.01014c8.90667,-2.22038 17.80001,2.69082 19.86381,10.96946z" fill="#9803ab"/><path d="M249.2057,166.23648c-1.18289,1.67645 -3.75236,2.36306 -4.86589,2.82496c-2.61085,1.08299 -5.85971,-0.59764 -6.18059,-1.37123c-0.32089,-0.77358 1.99661,-4.86021 4.60746,-5.9432c2.61085,-1.08299 7.57569,-2.33504 7.89657,-1.56145c0.18403,0.44365 0.13306,3.79665 -1.45755,6.05092z" fill="#b918ce"/></g><g fill-rule="nonzero" stroke-width="0"><path d="M270.60415,193.96555c0,7.32964 -6.39261,13.27148 -14.27829,13.27148c-7.88568,0 -14.27828,-5.94184 -14.27828,-13.27148c0,-7.32964 6.3926,-13.27148 14.27828,-13.27148c7.88568,0 14.27829,5.94184 14.27829,13.27148z" fill="#9803ab"/><path d="M251.19703,189.96155c-2.40136,0.36021 -4.76024,-1.71583 -4.86697,-2.42735c-0.10672,-0.71151 2.56764,-3.20871 4.969,-3.56892c2.40136,-0.36021 5.41161,1.55299 5.51833,2.2645c0.10672,0.71151 -3.21901,3.37156 -5.62036,3.73176z" fill="#b918ce"/></g><g fill-rule="nonzero" stroke-width="0"><path d="M221.48777,151.24013c0,7.32964 -6.39261,13.27148 -14.27829,13.27148c-7.88568,0 -14.27829,-5.94184 -14.27829,-13.27148c0,-7.32964 6.39261,-13.27149 14.27829,-13.27149c7.88568,0 14.27829,5.94185 14.27829,13.27149z" fill="#9803ab"/><path d="M202.08065,147.23613c-2.40136,0.3602 -4.76024,-1.71584 -4.86697,-2.42735c-0.10673,-0.71151 2.56764,-3.20871 4.969,-3.56891c2.40136,-0.36021 5.41161,1.55299 5.51834,2.2645c0.10673,0.71152 -3.21901,3.37156 -5.62037,3.73176z" fill="#b918ce"/></g><g fill-rule="nonzero" stroke-width="0"><path d="M237.78186,169.51035c2.06381,8.27864 -3.48343,16.78976 -12.3901,19.01014c-8.90667,2.22037 -17.80001,-2.69082 -19.86381,-10.96946c-2.06381,-8.27864 3.48344,-16.78976 12.39011,-19.01014c8.90667,-2.22037 17.8,2.69082 19.86381,10.96946z" fill="#9803ab"/><path d="M219.60051,167.62744c-1.1829,1.67645 -3.75237,2.36306 -4.86589,2.82495c-2.61085,1.08299 -1.38603,-2.19539 -1.70691,-2.96897c-0.32089,-0.77358 2.93211,-4.71182 3.98267,-5.01414c2.34697,-0.67538 3.82602,-1.42715 4.04768,-0.89277c0.18403,0.44365 0.13306,3.79665 -1.45755,6.05092z" fill="#b918ce"/></g><g fill-rule="nonzero" stroke-width="0"><path d="M208.81862,167.3303c0,7.32964 -6.39261,13.27148 -14.27829,13.27148c-7.88568,0 -14.27829,-5.94184 -14.27829,-13.27148c0,-7.32964 6.39261,-13.27148 14.27829,-13.27148c7.88568,0 14.27829,5.94184 14.27829,13.27148z" fill="#9803ab"/><path d="M189.4115,163.3263c-2.40136,0.36021 -4.76024,-1.71584 -4.86697,-2.42735c-0.10673,-0.71151 2.56764,-3.20871 4.969,-3.56892c2.40136,-0.3602 5.41161,1.55299 5.51834,2.26451c0.10673,0.71151 -3.21901,3.37156 -5.62037,3.73176z" fill="#b918ce"/></g><g fill-rule="nonzero" stroke-width="0"><path d="M249.49522,195.54454c0,7.32964 -6.39261,13.27148 -14.27829,13.27148c-7.88568,0 -14.27829,-5.94184 -14.27829,-13.27148c0,-7.32964 6.39261,-13.27149 14.27829,-13.27149c7.88568,0 14.27829,5.94185 14.27829,13.27149z" fill="#9803ab"/><path d="M230.08811,191.54054c-2.40136,0.36021 -4.76024,-1.71583 -4.86697,-2.42735c-0.10673,-0.71151 2.56764,-3.20871 4.969,-3.56892c2.40136,-0.36021 5.41161,1.55299 5.51833,2.26451c0.10673,0.71151 -3.219,3.37155 -5.62036,3.73176z" fill="#b918ce"/></g><g fill-rule="nonzero" stroke-width="0"><path d="M209.68325,188.32646c0,7.32964 -6.39261,13.27148 -14.27829,13.27148c-7.88568,0 -14.27829,-5.94184 -14.27829,-13.27148c0,-7.32964 6.39261,-13.27148 14.27829,-13.27148c7.88568,0 14.27829,5.94184 14.27829,13.27148z" fill="#9803ab"/><path d="M190.27613,184.32246c-2.40136,0.36021 -4.76024,-1.71583 -4.86697,-2.42735c-0.10673,-0.71151 2.56764,-3.20871 4.96901,-3.56892c2.40136,-0.36021 5.4116,1.55299 5.51833,2.2645c0.10673,0.71151 -3.219,3.37156 -5.62036,3.73176z" fill="#b918ce"/></g><g fill-rule="nonzero" stroke-width="0"><path d="M232.55632,198.47645c2.06381,8.27864 -3.48344,16.78977 -12.39011,19.01014c-8.90667,2.22037 -17.8,-2.69082 -19.86381,-10.96946c-2.06381,-8.27864 3.48344,-16.78976 12.39011,-19.01014c8.90667,-2.22037 17.8,2.69081 19.86381,10.96945z" fill="#9803ab"/><path d="M214.37497,196.59354c-1.1829,1.67645 -3.75236,2.36306 -4.86589,2.82495c-2.61085,1.08299 -5.8597,-0.59764 -6.18059,-1.37123c-0.32089,-0.77358 1.99661,-4.86021 4.60746,-5.9432c2.61085,-1.08299 7.57569,-2.33503 7.89657,-1.56145c0.18403,0.44365 0.13306,3.79665 -1.45755,6.05092z" fill="#b918ce"/></g><g fill-rule="nonzero" stroke-width="0"><path d="M244.40121,218.57075c0,7.32964 -6.39261,13.27148 -14.27829,13.27148c-7.88568,0 -14.27829,-5.94184 -14.27829,-13.27148c0,-7.32964 6.39261,-13.27148 14.27829,-13.27148c7.88568,0 14.27829,5.94184 14.27829,13.27148z" fill="#9803ab"/><path d="M224.9941,214.56675c-2.40136,0.36021 -4.76024,-1.71583 -4.86697,-2.42735c-0.10673,-0.71151 2.56764,-3.20871 4.969,-3.56892c2.40136,-0.36021 5.41161,1.55299 5.51833,2.2645c0.10673,0.71151 -3.219,3.37156 -5.62036,3.73176z" fill="#b918ce"/></g><g fill-rule="nonzero" stroke-width="0"><path d="M204.55173,211.63471c0,7.32964 -6.39261,13.27148 -14.27829,13.27148c-7.88568,0 -14.27828,-5.94184 -14.27828,-13.27148c0,-7.32964 6.3926,-13.27149 14.27828,-13.27149c7.88568,0 14.27829,5.94185 14.27829,13.27149z" fill="#9803ab"/><path d="M185.14461,207.63071c-2.40136,0.36021 -4.76024,-1.71584 -4.86697,-2.42735c-0.10673,-0.71151 2.56764,-3.20871 4.969,-3.56892c2.40136,-0.36021 5.41161,1.55299 5.51834,2.26451c0.10673,0.71151 -3.219,3.37156 -5.62036,3.73176z" fill="#b918ce"/></g><g fill-rule="nonzero" stroke-width="0"><path d="M220.0028,227.72487c0,7.32964 -6.39261,13.27148 -14.27829,13.27148c-7.88568,0 -14.27829,-5.94184 -14.27829,-13.27148c0,-7.32964 6.39261,-13.27148 14.27829,-13.27148c7.88568,0 14.27829,5.94184 14.27829,13.27148z" fill="#9803ab"/><path d="M200.59568,223.72087c-2.40136,0.36021 -4.76024,-1.71583 -4.86697,-2.42735c-0.10673,-0.71151 2.56764,-3.20871 4.969,-3.56892c2.40136,-0.36021 5.41161,1.55299 5.51833,2.2645c0.10673,0.71151 -3.219,3.37156 -5.62036,3.73176z" fill="#b918ce"/></g></g></g></svg>