<svg version="1.1" xmlns="http://www.w3.org/2000/svg" xmlns:xlink="http://www.w3.org/1999/xlink" width="265.03094" height="87.58387" viewBox="0,0,265.03094,87.58387"><g transform="translate(-107.48453,-136.21613)"><g data-paper-data="{&quot;isPaintingLayer&quot;:true}" fill-rule="nonzero" stroke="none" stroke-width="1" stroke-linecap="butt" stroke-linejoin="miter" stroke-miterlimit="10" stroke-dasharray="" stroke-dashoffset="0" style="mix-blend-mode: normal"><path d="M156.88973,188.6c-6.3,-0.1 -11.4,2.8 -20.7,10.6c-7.3,6.2 -15.4,9.4 -23.1,11.1c-1.1,0.2 -1.9,-0.8 -1.3,-1.7c4.9,-6.9 12.1,-21.8 11.7,-29.3c-0.3,-6.1 -0.2,-12.9 -7.4,-22.8c-2.8,-3.9 -7.3,-9.8 -8.5,-12.5c-0.4,-0.9 0.4,-1.9 1.4,-1.6c17,5.5 27.4,19.3 32.9,27.4c5.8,8.4 10,10.6 15.4,10.6" fill="#91abb3"/><path d="M208.28974,204.1c-7.4,0 -14.5,3 -17.8,3.4c-3.3,0.4 0.7,-5.7 -1,-8.4" fill="#c1d8de"/><path d="M185.68974,198.1c-5.6,0 -10.9,2.3 -13.5,2.5c-2.5,0.3 0.5,-4.3 -0.8,-6.4" fill="#c1d8de"/><path d="M170.78974,177.6c3.4,-1.2 5.1,-4.8 5.1,-7c0,-2.2 -2,-3.7 0.2,-3.9c3.6,-0.4 9.6,5.3 14,5.1" fill="#91abb3"/><path d="M237.58974,160.6c6.1,-2.8 6.5,-11.7 3.5,-17.5c-3,-5.8 -6.1,-5.7 -4.2,-6.2c14.8,-4.1 31,11.4 33.8,15.6c2.8,4.2 6.2,4.3 9.2,3.9" fill="#91abb3"/><path d="M349.48974,190.9c-3.6,11.5 -54.8,21.4 -105.9,19c-51.2,-2.4 -77.4,-19.5 -87.7,-21.4c-10.3,-1.9 -9.1,-6.7 -1.2,-7.9c22.8,-3.4 69.4,-23.8 123.8,-24.6c54.3,-0.8 95.2,17 94,22.6c-1,4.3 -23,12.3 -23,12.3z" fill="#91abb3"/><path d="M161.28974,189.2c5.4,-0.5 4.6,3.5 9.8,2.4c5.2,-1.1 9,1.9 13.3,3.3c4.3,1.4 8.7,-0.8 13.3,-0.8c4.6,0 5.4,4.1 9,4.1c3.5,0 9,3 13.3,4.3c4.3,1.4 12.8,-5.2 15.5,-6.2c2.7,-1.1 6.8,-0.3 9.8,0.5c3,0.8 7.1,-3.5 14.9,-1.4c7.9,2.2 29.1,14.9 33.9,6.8c4.8,-8.1 16,-11.7 19.3,-11.7c3.3,0 3.3,-0.8 5.2,-1.9c1.9,-1.1 6,4.1 8.1,0.3c2.2,-3.8 6.2,-1.4 8.7,-1.1c2.4,0.3 6.5,-5.4 13.3,-6.2c6.8,-0.8 13,0.5 16.8,-1.4c2.3,-1.2 4.2,-2.1 6.8,-2.7c0.2,0.4 0.2,0.8 0.2,1.1c-1,4.3 -23,12.3 -23,12.3c-3.6,11.5 -54.8,21.4 -105.9,19c-46.1,-2.1 -71.9,-16.2 -84.1,-20.4c0.5,-0.1 1.1,-0.3 1.8,-0.3z" fill="#c1d8de"/><path d="M367.38974,183.3c-1.2,0.7 -2.8,1.8 -4.8,2.9c-2,1.1 -4.4,2.4 -7.1,3.5c-2.7,1.1 -5.6,2.2 -8.8,2.6c-0.8,0.1 -1.6,0.2 -2.4,0.1c-0.8,0 -1.6,-0.1 -2.3,-0.1c-1.5,-0.1 -3,0 -4.4,0.1c-2.9,0.2 -5.5,0.5 -7.8,0.8c-2.3,0.3 -4.2,0.6 -5.5,0.8c-1.3,0.2 -2.1,0.3 -2.1,0.3c0,0 0.7,-0.2 2,-0.6c1.3,-0.3 3.1,-0.8 5.4,-1.3c1.2,-0.2 2.4,-0.5 3.7,-0.7c1.3,-0.2 2.7,-0.5 4.1,-0.6c1.5,-0.2 2.9,-0.3 4.5,-0.3c0.8,0 1.5,0.1 2.3,0.1c0.7,0 1.5,0 2.2,-0.1c1.4,-0.1 2.9,-0.5 4.3,-0.9c1.4,-0.4 2.8,-0.9 4.1,-1.4c2.7,-1.1 5.1,-2.1 7.2,-3.1c2.1,-1 3.8,-1.8 5,-2.4c1.2,-0.6 1.9,-0.9 1.9,-0.9c0,0 -0.6,0.5 -1.5,1.2z" fill="#212f33"/><path d="M323.78974,181.7c-0.66274,0 -1.2,-0.9402 -1.2,-2.1c0,-1.1598 0.53726,-2.1 1.2,-2.1c0.66274,0 1.2,0.9402 1.2,2.1c0,1.1598 -0.53726,2.1 -1.2,2.1z" fill="#212f33"/><path d="M301.68974,179.8c-0.2,0.5 -0.3,1.3 -0.4,2.2c0,0.5 -0.1,1 -0.1,1.5c-0.1,0.5 -0.1,1 -0.1,1.6c0.1,0.5 0,1.1 0.1,1.7c0,0.6 0.1,1.2 0.2,1.8c0.1,0.6 0.2,1.1 0.4,1.7c0.1,0.6 0.3,1.2 0.5,1.7c0.1,0.5 0.4,1 0.6,1.5c0.2,0.5 0.5,0.9 0.7,1.3c0.2,0.4 0.4,0.8 0.6,1.1c0.2,0.3 0.4,0.6 0.5,0.8c0.3,0.4 0.5,0.7 0.5,0.7c0,0 -0.3,-0.2 -0.7,-0.6c-0.2,-0.2 -0.4,-0.4 -0.7,-0.7c-0.3,-0.3 -0.6,-0.6 -0.9,-1c-0.3,-0.4 -0.6,-0.8 -0.9,-1.3c-0.2,-0.4 -0.6,-0.9 -0.8,-1.5c-0.3,-0.6 -0.6,-1.2 -0.7,-1.8c-0.1,-0.6 -0.3,-1.3 -0.4,-1.9c-0.1,-0.6 -0.2,-1.3 -0.2,-1.9c-0.1,-0.7 0,-1.3 0,-1.9c0.1,-0.6 0.2,-1.2 0.3,-1.7c0.1,-0.5 0.3,-1 0.4,-1.5c0.1,-0.4 0.3,-0.8 0.4,-1.2c0.1,-0.3 0.3,-0.7 0.4,-0.9c0.2,-0.5 0.4,-0.8 0.4,-0.8c0,0 -0.1,0.3 -0.1,1.1z" fill="#212f33"/><path d="M297.78974,179.8c-0.2,0.5 -0.3,1.3 -0.4,2.2c0,0.5 -0.1,1 -0.1,1.5c-0.1,0.5 -0.1,1 -0.1,1.6c0.1,0.5 0,1.1 0.1,1.7c0,0.6 0.1,1.2 0.2,1.8c0.1,0.6 0.2,1.1 0.4,1.7c0.1,0.6 0.3,1.2 0.5,1.7c0.1,0.5 0.4,1 0.6,1.5c0.2,0.5 0.5,0.9 0.7,1.3c0.2,0.4 0.4,0.8 0.6,1.1c0.2,0.3 0.4,0.6 0.5,0.8c0.3,0.4 0.5,0.7 0.5,0.7c0,0 -0.3,-0.2 -0.7,-0.6c-0.2,-0.2 -0.4,-0.4 -0.7,-0.7c-0.3,-0.3 -0.6,-0.6 -0.9,-1c-0.3,-0.4 -0.6,-0.8 -0.9,-1.3c-0.2,-0.4 -0.6,-0.9 -0.8,-1.5c-0.3,-0.6 -0.6,-1.2 -0.7,-1.8c-0.1,-0.6 -0.3,-1.3 -0.4,-1.9c-0.1,-0.6 -0.2,-1.3 -0.2,-1.9c-0.1,-0.7 0,-1.3 0,-1.9c0.1,-0.6 0.2,-1.2 0.3,-1.7c0.1,-0.5 0.3,-1 0.4,-1.5c0.1,-0.4 0.3,-0.8 0.4,-1.2c0.1,-0.3 0.3,-0.7 0.4,-0.9c0.2,-0.5 0.4,-0.8 0.4,-0.8c0,0 -0.1,0.3 -0.1,1.1z" fill="#212f33"/><path d="M292.78974,179.8c-0.2,0.5 -0.3,1.3 -0.4,2.2c0,0.5 -0.1,1 -0.1,1.5c-0.1,0.5 -0.1,1 -0.1,1.6c0.1,0.5 0,1.1 0.1,1.7c0,0.6 0.1,1.2 0.2,1.8c0.1,0.6 0.2,1.1 0.4,1.7c0.1,0.6 0.3,1.2 0.5,1.7c0.1,0.5 0.4,1 0.6,1.5c0.2,0.5 0.5,0.9 0.7,1.3c0.2,0.4 0.4,0.8 0.6,1.1c0.2,0.3 0.4,0.6 0.5,0.8c0.3,0.4 0.5,0.7 0.5,0.7c0,0 -0.3,-0.2 -0.7,-0.6c-0.2,-0.2 -0.4,-0.4 -0.7,-0.7c-0.3,-0.3 -0.6,-0.6 -0.9,-1c-0.3,-0.4 -0.6,-0.8 -0.9,-1.3c-0.2,-0.4 -0.6,-0.9 -0.8,-1.5c-0.3,-0.6 -0.6,-1.2 -0.7,-1.8c-0.1,-0.6 -0.3,-1.3 -0.4,-1.9c-0.1,-0.6 -0.2,-1.3 -0.2,-1.9c-0.1,-0.7 0,-1.3 0,-1.9c0.1,-0.6 0.2,-1.2 0.3,-1.7c0.1,-0.5 0.3,-1 0.4,-1.5c0.1,-0.4 0.3,-0.8 0.4,-1.2c0.1,-0.3 0.3,-0.7 0.4,-0.9c0.2,-0.5 0.4,-0.8 0.4,-0.8c0,0 -0.1,0.3 -0.1,1.1z" fill="#212f33"/><path d="M350.18974,183.6c0,-0.1 -0.2,-0.3 -0.3,-0.4c-0.1,-0.2 -0.3,-0.3 -0.4,-0.5c-0.2,-0.1 -0.3,-0.3 -0.5,-0.5c-0.3,-0.4 -0.6,-0.8 -0.8,-1.2c-0.2,-0.4 -0.3,-0.7 -0.3,-0.7c0,0 0.4,-0.1 0.8,0.1c0.2,0.1 0.5,0.2 0.7,0.4c0.3,0.1 0.5,0.4 0.7,0.6c0.4,0.5 0.6,1.2 0.6,1.7c0,0.6 -0.3,0.8 -0.3,0.8c0,0 0,0 -0.2,-0.3z" fill="#212f33"/><path d="M292.98974,199.7c0,0 -13.6,22.7 -45.6,24.1c-0.9,0 -1.5,-0.6 -1,-1.2c4,-5 18,-22.6 15.4,-27.8c13.6,-4.1 23.6,-1.8 31.2,4.9z" fill="#91abb3"/></g></g></svg>