<svg version="1.1" xmlns="http://www.w3.org/2000/svg" xmlns:xlink="http://www.w3.org/1999/xlink" width="159.39235" height="94.74184" viewBox="0,0,159.39235,94.74184"><g transform="translate(-160.30383,-132.62908)"><g data-paper-data="{&quot;isPaintingLayer&quot;:true}" fill-rule="evenodd" stroke="none" stroke-width="1" stroke-linecap="butt" stroke-linejoin="miter" stroke-miterlimit="10" stroke-dasharray="" stroke-dashoffset="0" style="mix-blend-mode: normal"><g><path d="M168.61387,227.37092c-18.168,0 -7.17,-75.622 39.166,-74.5c47.198,1.144 64.334,74.5 64.334,74.5z" fill="#efab00"/><path d="M195.11247,224.62132c-22.666,3.34 -30.178,-3.948 -32.914,-15.75c-4.526,-19.522 11.248,-20.166 16.082,-30.832c4.832,-10.668 -6.536,-28.022 16.082,-28.918c18.918,-0.75 19.206,-15.286 28.506,-16.354c14.424,-1.656 17.574,12.038 28.246,15.854c10.08,3.604 15.384,-5.618 26.666,-1.084c9.666,3.886 10.102,24.54 22.834,28.834c20.75,7 15.724,19.97933 15.724,19.97933" fill="#59c059"/><path d="M186.80907,175.03492c-2.058,-0.624 -3.234,-2.822 -2.608,-4.88l1.254,-4.136c0.624,-2.058 2.82,-3.232 4.88,-2.608l11.012,3.338c2.06,0.626 3.234,2.822 2.608,4.882l-1.254,4.134c-0.624,2.06 -2.82,3.232 -4.88,2.608l-11.012,-3.338" fill="#e8511c"/><path d="M187.93027,184.11492c2.28,0.58 5.54,3.06 8.2,3.72c-6.88,17.82 -8.12,34.9 -16.64,35.5h-0.04c-6.54,-0.54 -13.6,-6.66 -9.52,-12.96c2.42,-3.74 -1.34,-8.38 -0.32,-12.68c1.46,-6.2 7.8,-7.54 10,-8.16c2.4,-0.66 4.94,-6.28 8.32,-5.42" fill="#c18500"/><path d="M230.65181,153.08561c-0.07095,2.15022 -1.89056,3.85231 -4.04163,3.77867l-0.82971,-0.02609c-2.15108,-0.07364 -3.84961,-1.89141 -3.77867,-4.04163l0.20018,-5.94994c0.07187,-2.152 1.89056,-3.85231 4.03986,-3.77959l0.83149,0.02702c2.1493,0.07272 3.85139,1.89233 3.77867,4.04163l-0.20018,5.94994" fill="#e8511c"/><path d="M311.60695,222.26635c-2.20898,0.80945 -6.29996,0.60477 -8.86768,1.56288c-4.39004,-18.59071 -13.01582,-33.38462 -6.32458,-38.69288l0.03301,-0.0226c5.70148,-3.24905 14.98433,-2.18758 15.1768,5.31571c0.11599,4.45315 5.83978,6.15768 7.42732,10.28201c2.29784,5.94067 -2.17654,10.62799 -3.6416,12.38242c-1.60749,1.90042 -0.52845,7.97262 -3.80326,9.17246" fill="#c18500"/><path d="M286.93207,172.84732c-1.076,-1.864 -0.432,-4.27 1.434,-5.346l1.904,-1.1c1.864,-1.076 4.27,-0.43 5.346,1.432l4.066,7.044c1.076,1.864 0.432,4.268 -1.434,5.346l-1.904,1.098c-1.864,1.076 -4.27,0.432 -5.346,-1.432l-4.066,-7.042" fill="#e8511c"/><path d="M246.80527,154.85712c-2.03,0.716 -4.276,-0.356 -4.992,-2.386l-0.732,-2.074c-0.718,-2.03 0.354,-4.276 2.384,-4.994l7.668,-2.71c2.03,-0.716 4.276,0.358 4.992,2.386l0.734,2.074c0.718,2.03 -0.356,4.278 -2.386,4.994l-7.668,2.71" fill="#e8511c"/><path d="M171.61347,227.37092c18,0 4.446,-70.43 70.5,-75.5c52.584,-4.036 65.6,40.576 68.334,64.004c0.714,6.114 -4,11.496 -10.152,11.496z" fill="#ffbf00"/><path d="M215.60445,162.88366c-0.05299,0.57757 -0.35656,1.12814 -0.87671,1.47808c-0.91619,0.61687 -2.15904,0.3723 -2.77393,-0.54371l-7.55691,-11.23743c-0.61271,-0.91782 -0.37212,-2.16104 0.54389,-2.77592c0.91619,-0.61687 2.15904,-0.3723 2.77592,0.54389l7.55492,11.23725c0.26675,0.39804 0.37338,0.85569 0.33282,1.29784" fill="#ffbf00"/><path d="M289.5189,156.63311c-0.11331,0.05037 -0.23068,0.0916 -0.35638,0.11903l-13.18158,3.10419c-1.07523,0.25474 -2.15155,-0.41368 -2.40548,-1.48708c-0.25291,-1.07604 0.41063,-2.16333 1.48708,-2.40548l13.18422,-3.10318c1.07523,-0.25474 2.15155,0.41368 2.40365,1.48789c0.22549,0.95035 -0.27074,1.90197 -1.13152,2.28462" fill="#ffbf00"/><path d="M182.60507,213.17552c-0.444,0 -0.892,-0.146 -1.264,-0.452l-10.494,-8.56c-0.856,-0.696 -0.984,-1.956 -0.284,-2.812c0.698,-0.854 1.956,-0.986 2.814,-0.286l10.494,8.562c0.856,0.696 0.984,1.956 0.284,2.812c-0.394,0.484 -0.97,0.736 -1.55,0.736" fill="#ffbf00"/><path d="M286.94387,191.46272c-3.262,0 -3.268,-5.07 0,-5.07c3.264,0 3.268,5.07 0,5.07" fill="#efab00"/><path d="M260.97907,195.99772c-3.262,0 -3.268,-5.07 0,-5.07c3.264,0 3.268,5.07 0,5.07" fill="#efab00"/><path d="M257.84027,216.87272c-3.262,0 -3.268,-5.07 0,-5.07c3.264,0 3.27,5.07 0,5.07" fill="#efab00"/><path d="M214.89707,219.40792c-3.262,0 -3.268,-5.07 0,-5.07c3.262,0 3.268,5.07 0,5.07" fill="#efab00"/><path d="M219.92147,175.32592c-3.262,0 -3.268,-5.07 0,-5.07c3.262,0 3.268,5.07 0,5.07" fill="#efab00"/><path d="M246.79927,163.83772c-3.262,0 -3.268,-5.072 0,-5.072c3.262,0 3.268,5.072 0,5.072" fill="#efab00"/><path d="M233.62347,199.06812c-3.262,0 -3.268,-5.07 0,-5.07c3.262,0 3.268,5.07 0,5.07" fill="#efab00"/><path d="M187.39086,195.91196c3.10612,0.99634 1.56326,5.82588 -1.54857,4.82772" fill="#efab00"/><path d="M291.89507,212.05452c-3.262,0 -3.268,-5.07 0,-5.07c3.262,0 3.268,5.07 0,5.07" fill="#efab00"/><path d="M272.11387,172.79072c-3.264,0 -3.27,-5.07 0,-5.07c3.262,0 3.268,5.07 0,5.07" fill="#efab00"/><path d="M208.89707,193.57459c-3.262,0 -3.268,-5.07 0,-5.07c3.262,0 3.268,5.07 0,5.07" fill="#efab00"/><path d="M243.97907,181.99772c-3.262,0 -3.268,-5.07 0,-5.07c3.264,0 3.268,5.07 0,5.07" fill="#efab00"/></g></g></g></svg>