<svg version="1.1" xmlns="http://www.w3.org/2000/svg" xmlns:xlink="http://www.w3.org/1999/xlink" width="66.84208" height="105.14893" viewBox="0,0,66.84208,105.14893"><g transform="translate(-206.57896,-127.42556)"><g data-paper-data="{&quot;isPaintingLayer&quot;:true}" fill-rule="nonzero" stroke-linejoin="miter" stroke-miterlimit="10" stroke-dasharray="" stroke-dashoffset="0" style="mix-blend-mode: normal"><path d="M207.32896,231.8245v-103.64893h43.5532l10.69888,11.72994l11.09,12.14705v79.77194z" fill="#f3f3f3" stroke="#828282" stroke-width="1.5" stroke-linecap="butt"/><path d="M272.49193,152.03346l-21.93042,-0.36349l-0.24233,-23.14205" fill="none" stroke="#828282" stroke-width="1.5" stroke-linecap="round"/><path d="M214.57622,167.54226h48.46502" fill="none" stroke="#828282" stroke-width="1.5" stroke-linecap="round"/><path d="M214.93971,174.81201l33.19854,-0.12116" fill="none" stroke="#828282" stroke-width="1.5" stroke-linecap="round"/><path d="M236.38549,181.47596h-21.56694" fill="none" stroke="#828282" stroke-width="1.5" stroke-linecap="round"/><path d="M214.93971,188.01874l43.13387,-0.12116" fill="none" stroke="#828282" stroke-width="1.5" stroke-linecap="round"/><path d="M215.06087,195.65198l9.93533,-0.12116" fill="none" stroke="#828282" stroke-width="1.5" stroke-linecap="round"/><path d="M214.45506,203.16406l37.68156,-0.12116" fill="none" stroke="#828282" stroke-width="1.5" stroke-linecap="round"/><path d="M214.45506,211.16078h28.83669" fill="none" stroke="#828282" stroke-width="1.5" stroke-linecap="round"/><path d="M266.19147,218.18822l-51.85757,0.12116" fill="none" stroke="#828282" stroke-width="1.5" stroke-linecap="round"/><path d="M214.21274,225.70029l48.70735,-0.12116" fill="none" stroke="#828282" stroke-width="1.5" stroke-linecap="round"/><g fill="#828282" stroke="none" stroke-width="0" stroke-linecap="butt"><path d="M218.57602,149.29316v-4.72012h17.84797v4.72012z"/><path d="M218.57602,161.68349v-5.45765h17.84797v5.45765z"/><path d="M223.47854,149.19756l-4.71977,0.04997l-0.21764,-15.49417l4.71977,-0.04997z"/><path d="M218.57602,138.52538v-4.72012h17.84797v4.72012z"/><path d="M236.24124,160.60532l-4.71977,-0.05045l0.21764,-15.6412l4.71977,0.05045z"/><path d="M230.15507,163.67479h-4.72012v-33.04088h4.72012z"/></g></g></g></svg>