<svg version="1.1" xmlns="http://www.w3.org/2000/svg" xmlns:xlink="http://www.w3.org/1999/xlink" width="48.48923" height="47.1467" viewBox="0,0,48.48923,47.1467"><g transform="translate(-215.75538,-156.42665)"><g data-paper-data="{&quot;isPaintingLayer&quot;:true}" fill-rule="nonzero" stroke="none" stroke-width="0" stroke-linecap="butt" stroke-linejoin="miter" stroke-miterlimit="10" stroke-dasharray="" stroke-dashoffset="0" style="mix-blend-mode: normal"><g><path d="M216.11827,198.63467c1.81964,-0.1252 10.25649,4.39226 13.38639,2.06689c4.01891,-2.98587 8.73377,-18.50118 8.73377,-18.50118l3.73279,1.6105c0,0 -5.61911,10.75199 -8.17516,16.67636c-2.75724,6.39067 -13.88205,0.87419 -13.88205,0.87419c0,0 -5.61537,-2.60156 -3.79573,-2.72676z" fill="#3fad08"/><path d="M234.91217,160.59119c1.26659,-0.44244 0.65435,-3.19752 5.34685,-4.14634c5.08129,-0.3345 3.24444,4.01363 4.89702,7.20713c1.20799,2.33423 0.17054,11.36312 -2.98595,12.65546c-2.82705,1.15749 -10.65449,-3.80472 -12.19185,-6.77538c-1.78736,-3.45379 -6.59712,-4.97695 -2.35304,-8.30854c4.5216,-2.60997 5.73308,-0.08955 7.28696,-0.63234z" fill="#46be09"/><path d="M249.89141,191.21821c-1.26658,0.44244 -0.65435,3.19751 -5.34685,4.14634c-5.08129,0.33451 -3.24444,-4.01363 -4.89702,-7.20713c-1.20799,-2.33423 -0.17054,-11.36312 2.98595,-12.65547c2.82705,-1.15749 10.6545,3.80472 12.19185,6.77538c1.78736,3.45378 6.59712,4.97695 2.35304,8.30854c-4.5216,2.60997 -5.73308,0.08954 -7.28696,0.63234z" data-paper-data="{&quot;index&quot;:null}" fill="#46be09"/><path d="M220.81762,176.74961c-0.48834,-5.37338 3.91985,-2.91949 7.65877,-3.98898c3.21591,-0.91987 12.19647,1.36968 13.29416,4.22048c1.22562,3.18299 -4.63086,10.13272 -7.1578,10.85553c-3.45709,0.98895 -5.35994,5.30861 -8.60303,1.38258c-2.52943,-4.0647 -0.1051,-5.50967 -0.65228,-6.73465c-0.6713,-1.50284 -3.33609,-0.65482 -4.53981,-5.73496z" data-paper-data="{&quot;index&quot;:null}" fill="#46be09"/><path d="M264.20737,175.80877c0.48834,5.37338 -3.91985,2.91949 -7.65877,3.98898c-3.21591,0.91987 -12.19647,-1.36968 -13.29416,-4.22048c-1.22562,-3.18299 4.63086,-10.13272 7.1578,-10.85553c3.45709,-0.98895 5.35994,-5.30861 8.60303,-1.38258c2.52943,4.0647 0.1051,5.50967 0.65228,6.73465c0.6713,1.50284 3.33609,0.65482 4.53981,5.73496z" data-paper-data="{&quot;index&quot;:null}" fill="#46be09"/></g></g></g></svg>