<svg version="1.1" xmlns="http://www.w3.org/2000/svg" xmlns:xlink="http://www.w3.org/1999/xlink" width="105.6673" height="95.47203" viewBox="0,0,105.6673,95.47203"><g transform="translate(-187.16635,-132.26399)"><g data-paper-data="{&quot;isPaintingLayer&quot;:true}" fill="#000000" fill-rule="nonzero" stroke-linecap="butt" stroke-linejoin="miter" stroke-miterlimit="10" stroke-dasharray="" stroke-dashoffset="0" style="mix-blend-mode: normal"><g><path d="M229.36381,183.49752c0,10.50698 -11.91826,19.02458 -22.69125,19.02458c-10.77299,0 -19.50621,-8.51759 -19.50621,-19.02458c0,-10.50698 8.73323,-19.02458 19.50621,-19.02458c10.77299,0 22.69125,8.51759 22.69125,19.02458z" stroke="none" stroke-width="0"/><path d="M249.64309,224.40673c3.20466,4.33881 -0.85619,3.43705 -5.91184,2.75377c-1.21749,-0.16455 -3.61476,-1.50902 -4.62671,-1.51366c-1.28057,-0.00582 -2.75862,1.58178 -4.2156,1.76081c-4.86689,0.59808 -9.9044,0.70243 -6.15822,-4.59859c4.15567,-10.53529 4.96181,-40.34391 10.1347,-40.52516c5.40206,-0.1893 8.8774,33.39294 10.77768,42.12281z" stroke="none" stroke-width="0"/><path d="M258.45765,151.28857c0,10.50698 -8.73323,22.20961 -19.50622,22.20961c-10.77299,0 -19.50621,-11.70263 -19.50621,-22.20961c0,-10.50698 8.73323,-19.02458 19.50621,-19.02458c10.77299,0 19.50622,8.5176 19.50622,19.02458z" stroke="none" stroke-width="0"/><path d="M292.83365,183.82957c0,10.50699 -8.73323,19.02458 -19.50621,19.02458c-10.77299,0 -22.69125,-8.91573 -22.69125,-19.42271c0,-10.50698 11.91826,-18.62644 22.69125,-18.62644c10.77299,0 19.50621,8.51759 19.50621,19.02457z" stroke="none" stroke-width="0"/><path d="M242.12974,183.86008c0,11.65469 -1.40841,21.10272 -3.14573,21.10272c-1.73737,0 -3.14573,-9.448 -3.14573,-21.10272c0,-11.65469 1.40841,-21.10272 3.14573,-21.10272c1.73737,0 3.14573,9.448 3.14573,21.10272z" stroke="#000000" stroke-width="0.5"/><path d="M239.56208,188.08927c-11.6545,0.0697 -21.11077,-1.28214 -21.12118,-3.01945c-0.01038,-1.73731 9.42901,-3.2022 21.08352,-3.27193c11.65451,-0.0697 21.11077,1.28211 21.12118,3.01945c0.01038,1.73731 -9.42904,3.20222 -21.08355,3.27193z" data-paper-data="{&quot;index&quot;:null}" stroke="#000000" stroke-width="0.5"/></g></g></g></svg>