<svg version="1.1" xmlns="http://www.w3.org/2000/svg" xmlns:xlink="http://www.w3.org/1999/xlink" width="244.05239" height="263.42597" viewBox="0,0,244.05239,263.42597"><defs><linearGradient x1="196.83152" y1="220.72722" x2="196.83152" y2="236.52973" gradientUnits="userSpaceOnUse" id="color-1"><stop offset="0" stop-color="#efedfb"/><stop offset="1" stop-color="#9894b8"/></linearGradient></defs><g transform="translate(-114.81009,-48.28702)"><g data-paper-data="{&quot;isPaintingLayer&quot;:true}" fill-rule="nonzero" stroke-linecap="butt" stroke-linejoin="miter" stroke-miterlimit="10" stroke-dasharray="" stroke-dashoffset="0" style="mix-blend-mode: normal"><path d="M178.81666,305.58668c-7.93545,-7.00818 -31.11658,-136.99643 -18.33091,-148.85961c8.70612,-8.07796 178.00567,-9.76574 193.42267,0c14.13355,8.95275 -5.3812,142.38848 -16.11856,149.80776c-8.36511,5.78011 -148.49748,8.30347 -158.97321,-0.94815z" fill="#9894b8" stroke="none" stroke-width="0"/><path d="M193.22727,292.15637c-6.42797,-5.67685 -25.20542,-110.97148 -14.84862,-120.58103c7.05223,-6.54341 144.19027,-7.91056 156.67854,0c11.44862,7.25201 -4.35895,115.33922 -13.05655,121.34906c-6.77601,4.68207 -120.2877,6.72608 -128.77337,-0.76803z" fill="#efedfb" stroke="none" stroke-width="0"/><g fill="#9894b8" stroke="none" stroke-width="0"><path d="M215.72786,157.5967l-30.94977,-89.11974l6.26973,-2.17737l30.94977,89.11974z"/><path d="M194.83538,57.45648c1.84674,5.31768 -0.76651,11.05596 -5.83686,12.81681c-5.07035,1.76084 -10.67776,-1.12254 -12.5245,-6.44022c-1.84674,-5.31768 0.76651,-11.05596 5.83686,-12.81681c5.07035,-1.76084 10.67776,1.12254 12.5245,6.44022z"/></g><g data-paper-data="{&quot;index&quot;:null}" fill="#9894b8" stroke="none" stroke-width="0"><path d="M288.07916,153.20697l30.94977,-89.11974l6.26973,2.17737l-30.94977,89.11974z"/><path d="M327.76588,48.80391c5.07035,1.76084 7.6836,7.49913 5.83686,12.81681c-1.84674,5.31768 -7.45415,8.20106 -12.5245,6.44022c-5.07035,-1.76084 -7.6836,-7.49913 -5.83686,-12.81681c1.84674,-5.31768 7.45415,-8.20106 12.5245,-6.44022z"/></g><path d="M323.56762,225.82817c-3.51874,6.44705 -39.13714,57.22466 -64.9483,57.12606c-19.88296,-0.07596 -42.34629,-30.73342 -44.32503,-35.92738c-1.99539,-5.23766 8.42593,3.63457 44.32503,3.45323c38.48449,-0.1944 72.5335,-38.54954 64.9483,-24.65191z" fill="#efedfb" stroke="#9894b8" stroke-width="6"/><path d="M121.13752,222.17483l140.6423,-15.30305c0,0 4.80578,7.21331 4.4247,16.06779c-0.31605,7.34357 -4.4247,14.5383 -4.4247,14.5383c0,0 -103.99811,-9.75459 -127.49414,-12.31115c-9.78852,-1.06507 -13.14816,-2.99189 -13.14816,-2.99189z" fill="#efedfb" stroke="#9894b8" stroke-width="4"/><path d="M153.37463,225.94205l-28.44451,-3.31853l139.22008,-2.32522c0,0 0.9012,5.69422 0.09408,8.42171c-0.70722,2.38993 -2.93853,7.49367 -2.93853,7.49367z" fill="url(#color-1)" stroke="none" stroke-width="0"/></g></g></svg>