<svg version="1.1" xmlns="http://www.w3.org/2000/svg" xmlns:xlink="http://www.w3.org/1999/xlink" width="104.00554" height="83.77845" viewBox="0,0,104.00554,83.77845"><g transform="translate(-185.7872,-133.5426)"><g data-paper-data="{&quot;isPaintingLayer&quot;:true}" fill-rule="nonzero" stroke-linejoin="miter" stroke-miterlimit="10" stroke-dasharray="" stroke-dashoffset="0" style="mix-blend-mode: normal"><path d="M195.3748,206.8376c-4.41984,-3.12862 -5.03407,-13.49561 -2.81741,-18.05407c1.17974,-2.42609 -4.10834,11.77693 14.22272,15.9582c12.94297,2.95227 27.73566,-13.54593 32.22637,-19.79851c5.52432,-7.6917 10.03009,-24.21971 7.78124,-36.57679c-2.56094,-14.07196 -15.98436,-14.38598 -15.98436,-14.38598c0,0 9.66678,-2.28149 17.71428,3.57143c9.26977,6.74187 6.76661,36.10306 -6,53.14286c-10.5217,14.04348 -30.63088,27.83101 -47.14285,16.14286z" fill="#72beff" stroke="none" stroke-width="0" stroke-linecap="butt"/><g stroke="#828282"><path d="M216.35634,183.35072l1.78372,-8.88629l-15.1059,13.59199l-0.28721,-10.28924l-5.51284,-7.05582" fill="none" stroke-width="2" stroke-linecap="round"/><path d="M208.23705,169.14708l-2.0807,-9.32516l10.30942,0.94572" fill="none" stroke-width="2" stroke-linecap="round"/><path d="M223.759,150.67803l4.80966,10.07124" fill="none" stroke-width="2" stroke-linecap="round"/><path d="M227.80717,141.51427l7.29988,6.42868l5.26128,11.76865l-7.15775,11.44159" fill="none" stroke-width="2" stroke-linecap="round"/><path d="M203.72719,143.40839l11.46743,-0.54075l-3.68692,7.15065" fill="none" stroke-width="2" stroke-linecap="round"/><path d="M188.66652,163.06946l4.13522,-13.71237l4.05159,7.523" fill="none" stroke-width="2" stroke-linecap="round"/><path d="M219.75349,154.85588c-0.80346,-0.99875 -0.69709,-7.86389 0.16338,-8.53798c0.75251,-0.58952 7.69101,-0.45225 8.22559,0.21662c0.44941,0.5623 0.63865,7.94068 -0.16338,8.53799c-0.72554,0.54034 -7.50626,0.67753 -8.22559,-0.21663z" fill="#72beff" stroke-width="NaN" stroke-linecap="butt"/><path d="M216.51834,176.34535c-0.80346,-0.99875 -0.69708,-7.86389 0.16338,-8.53798c0.75251,-0.58952 7.69101,-0.45225 8.22559,0.21662c0.44941,0.5623 0.63864,7.94068 -0.16338,8.53798c-0.72554,0.54034 -7.50626,0.67753 -8.22559,-0.21663z" fill="#1cf1ff" stroke-width="NaN" stroke-linecap="butt"/><path d="M197.44191,195.04349c-0.80297,-1.02459 -0.69312,-8.07126 0.16769,-8.76376c0.75282,-0.60563 7.69136,-0.46955 8.2256,0.21663c0.44913,0.57684 0.63464,8.15012 -0.1677,8.76376c-0.72583,0.55512 -7.50671,0.70065 -8.22559,-0.21663z" fill="#00c1fa" stroke-width="NaN" stroke-linecap="butt"/><path d="M208.88867,152.59449c-0.48476,-0.60259 -0.42058,-4.7446 0.09858,-5.1513c0.45402,-0.35568 4.64029,-0.27285 4.96282,0.13071c0.27115,0.33926 0.38532,4.79092 -0.09858,5.15129c-0.43775,0.32601 -4.52883,0.40878 -4.96282,-0.13071z" fill="#1cf1ff" stroke-width="NaN" stroke-linecap="butt"/><path d="M213.72847,185.77256c-0.46351,-0.57618 -0.40214,-4.53662 0.09426,-4.92551c0.43412,-0.34009 4.4369,-0.26089 4.74529,0.12497c0.25925,0.32439 0.36844,4.58094 -0.09425,4.92552c-0.41856,0.31172 -4.33032,0.39087 -4.74529,-0.12498z" fill="#1cf1ff" stroke-width="NaN" stroke-linecap="butt"/><path d="M203.29538,162.39176c-0.48476,-0.60259 -0.42057,-4.74459 0.09858,-5.15129c0.45402,-0.35568 4.64029,-0.27285 4.96282,0.13071c0.27115,0.33926 0.38531,4.79091 -0.09858,5.15129c-0.43775,0.32601 -4.52883,0.40878 -4.96282,-0.13071z" fill="#1cf1ff" stroke-width="NaN" stroke-linecap="butt"/><path d="M205.66324,171.10784c-0.39977,-0.49695 -0.34685,-3.91278 0.0813,-4.24818c0.37444,-0.29333 3.82676,-0.22502 4.09275,0.10779c0.22361,0.27978 0.31776,3.95099 -0.0813,4.24818c-0.36101,0.26886 -3.73484,0.33711 -4.09275,-0.10779z" fill="#72beff" stroke-width="NaN" stroke-linecap="butt"/><path d="M201.54809,181.4065c-0.46351,-0.57617 -0.40215,-4.53663 0.09425,-4.92552c0.43412,-0.34009 4.43691,-0.26089 4.74531,0.12498c0.25925,0.32439 0.36843,4.58093 -0.09426,4.92552c-0.41856,0.31172 -4.33032,0.39086 -4.7453,-0.12497z" fill="#72beff" stroke-width="NaN" stroke-linecap="butt"/><path d="M232.83635,151.65063c-0.56974,-0.70822 -0.49431,-5.5764 0.11586,-6.05442c0.53361,-0.41803 5.4538,-0.3207 5.83289,0.15362c0.31868,0.39873 0.45288,5.63086 -0.11585,6.05442c-0.5145,0.38317 -5.3228,0.48045 -5.83289,-0.15362z" fill="#72beff" stroke-width="NaN" stroke-linecap="butt"/><path d="M224.69788,143.97891c-0.49267,-0.62865 -0.42527,-4.95216 0.10289,-5.37707c0.46189,-0.37158 4.71908,-0.28811 5.04688,0.1329c0.27556,0.35394 0.38939,5.00057 -0.10289,5.37708c-0.44534,0.34059 -4.6058,0.42988 -5.04687,-0.13292z" fill="#00c1fa" stroke-width="NaN" stroke-linecap="butt"/><path d="M226.39136,164.17986c-0.47198,-0.60225 -0.40741,-4.74424 0.09858,-5.15129c0.4425,-0.35598 4.52094,-0.276 4.83496,0.12734c0.26399,0.33907 0.37304,4.79059 -0.09858,5.15129c-0.42664,0.32631 -4.4124,0.41184 -4.83497,-0.12733z" fill="#00c1fa" stroke-width="NaN" stroke-linecap="butt"/><path d="M194.82651,159.613c-0.51142,-0.65256 -0.44145,-5.14068 0.10681,-5.58174c0.47947,-0.38572 4.89872,-0.29906 5.23898,0.13796c0.28606,0.3674 0.40421,5.1909 -0.10681,5.58174c-0.46229,0.35357 -4.78111,0.44626 -5.23898,-0.13797z" fill="#00c1fa" stroke-width="NaN" stroke-linecap="butt"/><path d="M230.50046,173.65712c-0.46351,-0.57617 -0.40214,-4.53663 0.09426,-4.92552c0.43412,-0.34009 4.43691,-0.2609 4.7453,0.12498c0.25925,0.32439 0.36843,4.58094 -0.09425,4.92552c-0.41856,0.31172 -4.33032,0.39086 -4.74529,-0.12498z" fill="#72beff" stroke-width="NaN" stroke-linecap="butt"/><path d="M186.11685,166.2374c-0.48476,-0.60259 -0.42058,-4.74459 0.09858,-5.15129c0.45402,-0.35568 4.64029,-0.27285 4.96282,0.13071c0.27115,0.33926 0.38532,4.79091 -0.09858,5.15129c-0.43775,0.32601 -4.52883,0.40878 -4.96282,-0.13071z" fill="#1cf1ff" stroke-width="NaN" stroke-linecap="butt"/><path d="M237.51714,163.49719c-0.63063,-0.7839 -0.54712,-6.17222 0.12824,-6.70131c0.59063,-0.46271 6.03654,-0.35495 6.45612,0.17003c0.35273,0.44134 0.50127,6.23251 -0.12823,6.70131c-0.56947,0.4241 -5.89154,0.53178 -6.45613,-0.17003z" fill="#1cf1ff" stroke-width="NaN" stroke-linecap="butt"/><path d="M213.6076,144.96538c-0.47198,-0.60224 -0.40741,-4.74425 0.09858,-5.1513c0.4425,-0.35599 4.52094,-0.276 4.83497,0.12734c0.26399,0.33907 0.37304,4.7906 -0.09858,5.15129c-0.42664,0.32631 -4.4124,0.41184 -4.83496,-0.12733z" fill="#00c1fa" stroke-width="NaN" stroke-linecap="butt"/><path d="M200.91118,146.48507c-0.47198,-0.60224 -0.4074,-4.74424 0.09858,-5.15129c0.4425,-0.35599 4.52094,-0.276 4.83496,0.12734c0.26399,0.33907 0.37304,4.79059 -0.09858,5.15129c-0.42664,0.32631 -4.41241,0.41184 -4.83497,-0.12734z" fill="#00c1fa" stroke-width="NaN" stroke-linecap="butt"/><path d="M193.32694,174.27849c-0.71357,-0.887 -0.61909,-6.98401 0.1451,-7.5827c0.66832,-0.52356 6.83048,-0.40164 7.30526,0.19238c0.39912,0.49938 0.5672,7.05222 -0.14509,7.5827c-0.64436,0.47988 -6.66642,0.60172 -7.30526,-0.19238z" fill="#72beff" stroke-width="NaN" stroke-linecap="butt"/><path d="M190.08892,151.71767c-0.6572,-0.83858 -0.56728,-6.60596 0.13726,-7.17275c0.61614,-0.49568 6.29502,-0.38431 6.73228,0.17729c0.36758,0.47213 0.51942,6.67051 -0.13726,7.17275c-0.59406,0.45434 -6.14391,0.57346 -6.73228,-0.17729z" fill="#00c1fa" stroke-width="NaN" stroke-linecap="butt"/><path d="M213.98199,163.3474c-0.47198,-0.60225 -0.40741,-4.74424 0.09858,-5.15129c0.4425,-0.35598 4.52094,-0.276 4.83496,0.12734c0.26399,0.33907 0.37304,4.79059 -0.09858,5.15129c-0.42664,0.32631 -4.4124,0.41184 -4.83496,-0.12733z" fill="#00c1fa" stroke-width="NaN" stroke-linecap="butt"/></g><g fill="#828282" stroke="none" stroke-linecap="butt"><path d="M226.85977,207.65812c0,0 6.58299,-4.38582 12.55973,-10.79402c3.97191,-4.25863 7.37817,-10.03298 9.48895,-13.745c2.7973,-4.91937 5.08315,-13.07128 6.13827,-20.02723c1.06777,-7.03936 0.21165,-13.56817 0.21165,-13.56817c0,0 25.25209,-1.49285 30.01803,0.43555c7.09562,2.87104 4.84359,56.9787 0,57.42015c-4.84398,0.752 -58.41663,0.27874 -58.41663,0.27874z" stroke-width="0"/><path d="M222.85863,217.32105c0,0 0.64677,-4.76392 2.48959,-5.57478c2.69278,-1.18483 17.64494,-1.00229 20.71701,0.09291c1.70769,0.6088 2.66742,5.48186 2.66742,5.48186z" stroke-width="NaN"/></g></g></g></svg>