<svg version="1.1" xmlns="http://www.w3.org/2000/svg" xmlns:xlink="http://www.w3.org/1999/xlink" width="181" height="182" viewBox="0,0,181,182"><g transform="translate(-149.5,-89)"><g data-paper-data="{&quot;isPaintingLayer&quot;:true}" fill-rule="nonzero" stroke="none" stroke-width="0" stroke-linecap="butt" stroke-linejoin="miter" stroke-miterlimit="10" stroke-dasharray="" stroke-dashoffset="0" style="mix-blend-mode: normal"><path d="M330.5,180c0,50.25791 -40.51823,91 -90.5,91c-49.98177,0 -90.5,-40.74209 -90.5,-91c0,-50.25791 40.51823,-91 90.5,-91c49.98177,0 90.5,40.74209 90.5,91z" fill="#afafaf"/><path d="M292.47852,180c0,28.75841 -23.49544,52.0717 -52.47852,52.0717c-28.98308,0 -52.47851,-23.3133 -52.47851,-52.0717c0,-28.75841 23.49543,-52.0717 52.47851,-52.0717c28.98308,0 52.47852,23.3133 52.47852,52.0717z" fill="#efefef"/><path d="M189,233.83333c0,3.17564 -2.46243,5.75 -5.5,5.75c-3.03757,0 -5.5,-2.57437 -5.5,-5.75c0,-3.17563 2.46243,-5.75 5.5,-5.75c3.03757,0 5.5,2.57437 5.5,5.75z" fill="#afd9ff"/><path d="M300.5,235.83333c0,3.17564 -2.46244,5.75 -5.5,5.75c-3.03756,0 -5.5,-2.57437 -5.5,-5.75c0,-3.17563 2.46244,-5.75 5.5,-5.75c3.03756,0 5.5,2.57437 5.5,5.75z" fill="#afd9ff"/><path d="M301.5,131.33333c0,3.17564 -2.46244,5.75 -5.5,5.75c-3.03756,0 -5.5,-2.57437 -5.5,-5.75c0,-3.17563 2.46244,-5.75 5.5,-5.75c3.03756,0 5.5,2.57436 5.5,5.75z" fill="#afd9ff"/><path d="M188.5,129.33333c0,3.17564 -2.46243,5.75 -5.5,5.75c-3.03757,0 -5.5,-2.57437 -5.5,-5.75c0,-3.17563 2.46243,-5.75 5.5,-5.75c3.03757,0 5.5,2.57436 5.5,5.75z" fill="#afd9ff"/><path d="M325,181.33333c0,3.17564 -2.46244,5.75 -5.5,5.75c-3.03756,0 -5.5,-2.57437 -5.5,-5.75c0,-3.17563 2.46244,-5.75 5.5,-5.75c3.03756,0 5.5,2.57437 5.5,5.75z" fill="#afd9ff"/><path d="M164.5,182.83333c0,3.17564 -2.46243,5.75 -5.5,5.75c-3.03757,0 -5.5,-2.57437 -5.5,-5.75c0,-3.17563 2.46243,-5.75 5.5,-5.75c3.03757,0 5.5,2.57437 5.5,5.75z" fill="#afd9ff"/><path d="M244.5,260.33333c0,3.17564 -2.46243,5.75 -5.5,5.75c-3.03757,0 -5.5,-2.57437 -5.5,-5.75c0,-3.17563 2.46243,-5.75 5.5,-5.75c3.03757,0 5.5,2.57437 5.5,5.75z" fill="#afd9ff"/><path d="M243,102.83333c0,3.17564 -2.46243,5.75 -5.5,5.75c-3.03757,0 -5.5,-2.57437 -5.5,-5.75c0,-3.17563 2.46243,-5.75 5.5,-5.75c3.03757,0 5.5,2.57437 5.5,5.75z" fill="#afd9ff"/><path d="M276,112.33333c0,3.17564 -2.46244,5.75 -5.5,5.75c-3.03756,0 -5.5,-2.57437 -5.5,-5.75c0,-3.17563 2.46244,-5.75 5.5,-5.75c3.03756,0 5.5,2.57437 5.5,5.75z" fill="#828282"/><path d="M211.5,110.33333c0,3.17564 -2.46243,5.75 -5.5,5.75c-3.03757,0 -5.5,-2.57437 -5.5,-5.75c0,-3.17563 2.46243,-5.75 5.5,-5.75c3.03757,0 5.5,2.57437 5.5,5.75z" fill="#828282"/><path d="M317,156.83333c0,3.17564 -2.46244,5.75 -5.5,5.75c-3.03756,0 -5.5,-2.57437 -5.5,-5.75c0,-3.17563 2.46244,-5.75 5.5,-5.75c3.03756,0 5.5,2.57437 5.5,5.75z" fill="#828282"/><path d="M172,154.33333c0,3.17564 -2.46243,5.75 -5.5,5.75c-3.03757,0 -5.5,-2.57437 -5.5,-5.75c0,-3.17563 2.46243,-5.75 5.5,-5.75c3.03757,0 5.5,2.57437 5.5,5.75z" fill="#828282"/><path d="M317,208.33333c0,3.17564 -2.46244,5.75 -5.5,5.75c-3.03756,0 -5.5,-2.57437 -5.5,-5.75c0,-3.17563 2.46244,-5.75 5.5,-5.75c3.03756,0 5.5,2.57437 5.5,5.75z" fill="#828282"/><path d="M273.5,254.83333c0,3.17564 -2.46244,5.75 -5.5,5.75c-3.03756,0 -5.5,-2.57437 -5.5,-5.75c0,-3.17563 2.46244,-5.75 5.5,-5.75c3.03756,0 5.5,2.57437 5.5,5.75z" fill="#828282"/><path d="M211.5,251.33333c0,3.17564 -2.46243,5.75 -5.5,5.75c-3.03757,0 -5.5,-2.57437 -5.5,-5.75c0,-3.17563 2.46243,-5.75 5.5,-5.75c3.03757,0 5.5,2.57437 5.5,5.75z" fill="#828282"/><path d="M171.5,207.83333c0,3.17564 -2.46243,5.75 -5.5,5.75c-3.03757,0 -5.5,-2.57437 -5.5,-5.75c0,-3.17563 2.46243,-5.75 5.5,-5.75c3.03757,0 5.5,2.57437 5.5,5.75z" fill="#828282"/><g fill="#72beff"><path d="M208.95498,160.24949v-7.57088h61.5765v7.57088z"/><path d="M233.711,157.48042l7.57077,-0.02666l0.45588,55.53262l-7.57077,0.02666z"/><path d="M232.67869,156.77747l4.52947,-3.40805l38.17018,50.73014l-4.52947,3.40804z"/></g></g></g></svg>