<svg version="1.1" xmlns="http://www.w3.org/2000/svg" xmlns:xlink="http://www.w3.org/1999/xlink" width="168.05882" height="202" viewBox="0,0,168.05882,202"><defs><radialGradient cx="240.83334" cy="272" r="9.52941" gradientUnits="userSpaceOnUse" id="color-1"><stop offset="0" stop-color="#ffffff"/><stop offset="1" stop-color="#ffffff" stop-opacity="0"/></radialGradient><radialGradient cx="241.5" cy="238" r="9.52941" gradientUnits="userSpaceOnUse" id="color-2"><stop offset="0" stop-color="#ffffff"/><stop offset="1" stop-color="#ffffff" stop-opacity="0"/></radialGradient><radialGradient cx="240.83334" cy="177" r="9.52941" gradientUnits="userSpaceOnUse" id="color-3"><stop offset="0" stop-color="#ffffff"/><stop offset="1" stop-color="#ffffff" stop-opacity="0"/></radialGradient><radialGradient cx="275.5" cy="147.33333" r="9.52941" gradientUnits="userSpaceOnUse" id="color-4"><stop offset="0" stop-color="#ffffff"/><stop offset="1" stop-color="#ffffff" stop-opacity="0"/></radialGradient><radialGradient cx="314.5" cy="140.99999" r="9.52941" gradientUnits="userSpaceOnUse" id="color-5"><stop offset="0" stop-color="#ffffff"/><stop offset="1" stop-color="#ffffff" stop-opacity="0"/></radialGradient><radialGradient cx="205.16667" cy="145.66666" r="9.52941" gradientUnits="userSpaceOnUse" id="color-6"><stop offset="0" stop-color="#ffffff"/><stop offset="1" stop-color="#ffffff" stop-opacity="0"/></radialGradient><radialGradient cx="165.5" cy="140.33333" r="9.52941" gradientUnits="userSpaceOnUse" id="color-7"><stop offset="0" stop-color="#ffffff"/><stop offset="1" stop-color="#ffffff" stop-opacity="0"/></radialGradient><radialGradient cx="200.83334" cy="108.66667" r="9.52941" gradientUnits="userSpaceOnUse" id="color-8"><stop offset="0" stop-color="#ffffff"/><stop offset="1" stop-color="#ffffff" stop-opacity="0"/></radialGradient><radialGradient cx="241.5" cy="88" r="9.52941" gradientUnits="userSpaceOnUse" id="color-9"><stop offset="0" stop-color="#ffffff"/><stop offset="1" stop-color="#ffffff" stop-opacity="0"/></radialGradient><radialGradient cx="240.83334" cy="101" r="9.52941" gradientUnits="userSpaceOnUse" id="color-10"><stop offset="0" stop-color="#ffffff"/><stop offset="1" stop-color="#ffffff" stop-opacity="0"/></radialGradient><radialGradient cx="281.5" cy="109.33334" r="9.52941" gradientUnits="userSpaceOnUse" id="color-11"><stop offset="0" stop-color="#ffffff"/><stop offset="1" stop-color="#ffffff" stop-opacity="0"/></radialGradient><radialGradient cx="188.83334" cy="183" r="9.52941" gradientUnits="userSpaceOnUse" id="color-12"><stop offset="0" stop-color="#ffffff"/><stop offset="1" stop-color="#ffffff" stop-opacity="0"/></radialGradient><radialGradient cx="276.16666" cy="210.66666" r="9.52941" gradientUnits="userSpaceOnUse" id="color-13"><stop offset="0" stop-color="#ffffff"/><stop offset="1" stop-color="#ffffff" stop-opacity="0"/></radialGradient><radialGradient cx="241.6724" cy="141.90102" r="4.15179" gradientUnits="userSpaceOnUse" id="color-14"><stop offset="0" stop-color="#fcfeff"/><stop offset="1" stop-color="#4afffc"/></radialGradient></defs><g transform="translate(-155.97059,-79)"><g data-paper-data="{&quot;isPaintingLayer&quot;:true}" fill-rule="nonzero" stroke-linejoin="miter" stroke-miterlimit="10" stroke-dasharray="" stroke-dashoffset="0" style="mix-blend-mode: normal"><path d="M164.7188,140.71413l35.48585,-33.09818l39.97874,-8.33008l41.94232,9.20282l33.0931,32.22544l-74.5,132z" fill="#29435a" stroke="#ffffff" stroke-width="2" stroke-linecap="butt"/><path d="M206.46881,145.96095l34.74825,-58.50262l33.35122,59.29319l-33.26782,91.70681z" fill="#29435a" stroke="#ffffff" stroke-width="2" stroke-linecap="butt"/><path d="M206.21881,145.70027l34.75,-45.29838l33.5,46.29839l-33.58065,30.25806z" fill="#29435a" stroke="#ffffff" stroke-width="2" stroke-linecap="butt"/><path d="M314.46881,141.16667l-40.25,5.5l6.75,-36.75l-18.25,13" fill="none" stroke="#ffffff" stroke-width="2" stroke-linecap="round"/><path d="M219.96881,121.16667l-19,-12.25l4.75,36.75l-41,-5.5" fill="none" stroke="#ffffff" stroke-width="2" stroke-linecap="round"/><path d="M250.36275,272c0,4.97057 -4.26646,9 -9.52941,9c-5.26295,0 -9.52941,-4.02943 -9.52941,-9c0,-4.97057 4.26647,-9 9.52942,-9c5.26295,0 9.52941,4.02943 9.52941,9z" fill="url(#color-1)" stroke="none" stroke-width="0" stroke-linecap="butt"/><path d="M251.02941,238c0,4.97056 -4.26646,9 -9.52941,9c-5.26295,0 -9.52941,-4.02944 -9.52941,-9c0,-4.97056 4.26647,-9 9.52942,-9c5.26295,0 9.52941,4.02944 9.52941,9z" fill="url(#color-2)" stroke="none" stroke-width="0" stroke-linecap="butt"/><path d="M250.36275,177c0,4.97056 -4.26646,9 -9.52941,9c-5.26295,0 -9.52941,-4.02944 -9.52941,-9c0,-4.97056 4.26647,-9 9.52942,-9c5.26295,0 9.52941,4.02944 9.52941,9z" fill="url(#color-3)" stroke="none" stroke-width="0" stroke-linecap="butt"/><path d="M285.02941,147.33333c0,4.97056 -4.26646,9 -9.52941,9c-5.26295,0 -9.52941,-4.02944 -9.52941,-9c0,-4.97056 4.26646,-9 9.52941,-9c5.26295,0 9.52941,4.02944 9.52941,9z" fill="url(#color-4)" stroke="none" stroke-width="0" stroke-linecap="butt"/><path d="M324.02941,140.99999c0,4.97056 -4.26646,9 -9.52941,9c-5.26295,0 -9.52941,-4.02944 -9.52941,-9c0,-4.97056 4.26646,-9 9.52941,-9c5.26295,0 9.52941,4.02944 9.52941,9z" fill="url(#color-5)" stroke="none" stroke-width="0" stroke-linecap="butt"/><path d="M214.69608,145.66666c0,4.97056 -4.26646,9 -9.52941,9c-5.26295,0 -9.52941,-4.02944 -9.52941,-9c0,-4.97056 4.26647,-9 9.52942,-9c5.26295,0 9.52941,4.02944 9.52941,9z" fill="url(#color-6)" stroke="none" stroke-width="0" stroke-linecap="butt"/><path d="M175.02941,140.33333c0,4.97056 -4.26646,9 -9.52941,9c-5.26295,0 -9.52941,-4.02944 -9.52941,-9c0,-4.97056 4.26647,-9 9.52942,-9c5.26295,0 9.52941,4.02943 9.52941,9z" fill="url(#color-7)" stroke="none" stroke-width="0" stroke-linecap="butt"/><path d="M210.36275,108.66667c0,4.97056 -4.26646,9 -9.52941,9c-5.26295,0 -9.52941,-4.02944 -9.52941,-9c0,-4.97056 4.26647,-9 9.52942,-9c5.26295,0 9.52941,4.02944 9.52941,9z" fill="url(#color-8)" stroke="none" stroke-width="0" stroke-linecap="butt"/><path d="M251.02941,88c0,4.97056 -4.26646,9 -9.52941,9c-5.26295,0 -9.52941,-4.02944 -9.52941,-9c0,-4.97056 4.26647,-9 9.52942,-9c5.26295,0 9.52941,4.02944 9.52941,9z" fill="url(#color-9)" stroke="none" stroke-width="0" stroke-linecap="butt"/><path d="M250.36275,101c0,4.97056 -4.26646,9 -9.52941,9c-5.26295,0 -9.52941,-4.02944 -9.52941,-9c0,-4.97056 4.26647,-9 9.52942,-9c5.26295,0 9.52941,4.02944 9.52941,9z" fill="url(#color-10)" stroke="none" stroke-width="0" stroke-linecap="butt"/><path d="M291.02941,109.33334c0,4.97056 -4.26646,9 -9.52941,9c-5.26295,0 -9.52941,-4.02944 -9.52941,-9c0,-4.97056 4.26646,-9 9.52941,-9c5.26295,0 9.52941,4.02944 9.52941,9z" fill="url(#color-11)" stroke="none" stroke-width="0" stroke-linecap="butt"/><path d="M198.36275,183c0,4.97056 -4.26646,9 -9.52941,9c-5.26295,0 -9.52941,-4.02944 -9.52941,-9c0,-4.97056 4.26647,-9 9.52942,-9c5.26295,0 9.52941,4.02944 9.52941,9z" fill="url(#color-12)" stroke="none" stroke-width="0" stroke-linecap="butt"/><path d="M285.69608,210.66666c0,4.97056 -4.26646,9 -9.52941,9c-5.26295,0 -9.52942,-4.02944 -9.52942,-9c0,-4.97056 4.26647,-9 9.52942,-9c5.26295,0 9.52941,4.02944 9.52941,9z" fill="url(#color-13)" stroke="none" stroke-width="0" stroke-linecap="butt"/><path d="M234.06195,145.10807c0,-1.92293 0,-4.81393 0,-6.06158c0,-1.14333 1.2212,-2.71982 2.30803,-2.71982c1.8853,0 7.99631,0 11.25722,0c1.26057,0 2.09524,1.42981 2.09524,2.50333c0,1.20725 0,4.07446 0,6.06158c0,1.19912 -0.83148,2.07775 -2.09524,2.07775c-3.45892,0 -10.15616,0 -11.90668,0c-0.8226,0 -1.65857,-0.77663 -1.65857,-1.86127z" fill="#4afffc" stroke="none" stroke-width="0" stroke-linecap="butt"/><path d="M229.61241,135.20934c0,0 2.07312,0.69134 3.0472,1.15228c0.96892,0.45849 2.7819,1.60605 2.7819,1.60605l-1.15353,1.68074c0,0 -1.75354,-1.26381 -2.53662,-2.00728c-0.77536,-0.73614 -2.13895,-2.43179 -2.13895,-2.43179z" fill="#4afffc" stroke="none" stroke-width="0" stroke-linecap="butt"/><path d="M234.43483,130.84975c0,0 0.78827,1.93783 1.14749,2.89176c0.35186,0.93438 0.98619,2.7744 0.98619,2.7744l-1.33251,0.67651c0,0 -0.42097,-1.94188 -0.5498,-2.9618c-0.13764,-1.08969 -0.25137,-3.38087 -0.25137,-3.38087z" fill="#4afffc" stroke="none" stroke-width="0" stroke-linecap="butt"/><path d="M233.02621,151.74736c0,0 0.65049,-2.3523 1.05649,-3.40488c0.36268,-0.94029 1.26425,-2.61184 1.26425,-2.61184l1.76127,1.02638c0,0 -1.05383,1.54863 -1.69105,2.32764c-0.71457,0.87358 -2.39095,2.66269 -2.39095,2.66269z" fill="#4afffc" stroke="none" stroke-width="0" stroke-linecap="butt"/><path d="M228.33267,146.08926c0,0 1.94744,-1.11976 2.94565,-1.57622c0.95476,-0.43659 2.91905,-1.10559 2.91905,-1.10559l0.54252,1.96499c0,0 -1.95716,0.33608 -2.98641,0.45123c-1.10157,0.12324 -3.4208,0.26559 -3.4208,0.26559z" fill="#4afffc" stroke="none" stroke-width="0" stroke-linecap="butt"/><path d="M241.1956,155.05945c0,0 -0.70046,-3.13829 -0.88738,-4.64083c-0.16894,-1.35803 -0.18565,-3.98476 -0.18565,-3.98476l2.74587,0.0982c0,0 -0.22418,2.69267 -0.49376,4.06687c-0.28695,1.46273 -1.17909,4.46052 -1.17909,4.46052z" fill="#4afffc" stroke="none" stroke-width="0" stroke-linecap="butt"/><path d="M249.53982,139.73718l-1.15354,-1.68074c0,0 1.85564,-1.10918 2.83301,-1.57167c0.96552,-0.45688 2.99609,-1.18665 2.99609,-1.18665c0,0 -1.42187,1.69242 -2.20875,2.4395c-0.77133,0.73231 -2.46681,1.99957 -2.46681,1.99957z" data-paper-data="{&quot;index&quot;:null}" fill="#4afffc" stroke="none" stroke-width="0" stroke-linecap="butt"/><path d="M248.23392,137.50336l-1.13339,-0.974c0,0 0.92633,-1.54725 1.47465,-2.34826c0.58881,-0.86016 1.94539,-2.64787 1.94539,-2.64787c0,0 -0.70412,2.16321 -1.09558,3.18528c-0.36948,0.96466 -1.19107,2.78485 -1.19107,2.78485z" data-paper-data="{&quot;index&quot;:null}" fill="#4afffc" stroke="none" stroke-width="0" stroke-linecap="butt"/><path d="M246.61134,146.84578l1.76126,-1.02638c0,0 1.00354,1.91204 1.40046,2.94109c0.37547,0.97343 0.92028,3.07563 0.92028,3.07563c0,0 -1.47581,-1.54391 -2.15575,-2.37516c-0.68073,-0.8322 -1.92625,-2.61518 -1.92625,-2.61518z" data-paper-data="{&quot;index&quot;:null}" fill="#4afffc" stroke="none" stroke-width="0" stroke-linecap="butt"/><path d="M248.97966,145.4612l0.54252,-1.96499c0,0 2.01661,0.57581 2.98267,1.01756c0.98833,0.45194 2.88202,1.66425 2.88202,1.66425c0,0 -2.17057,-0.06716 -3.24529,-0.1874c-1.06083,-0.11868 -3.16192,-0.52943 -3.16192,-0.52943z" data-paper-data="{&quot;index&quot;:null}" fill="#4afffc" stroke="none" stroke-width="0" stroke-linecap="butt"/><path d="M242.76367,136.66726l-2.74729,-0.04365c0,0 0.23786,-2.72079 0.48331,-4.1058c0.25937,-1.46356 1.03345,-4.45292 1.03345,-4.45292c0,0 0.71317,2.94367 0.92026,4.39137c0.20301,1.41919 0.31027,4.21099 0.31027,4.21099z" data-paper-data="{&quot;index&quot;:null}" fill="#4afffc" stroke="none" stroke-width="0" stroke-linecap="butt"/><path d="M245.29696,145.06786c-2.21543,2.00768 -2.84489,5.35149 -4.02455,5.35149c-1.28938,0 -1.62221,-3.21116 -4.20985,-5.46538c-2.01412,-1.7546 -14.74698,-3.76999 -14.74698,-3.76999c0,0 12.11192,-0.95437 14.69771,-2.67488c2.20117,-1.46459 3.27071,-4.87587 4.32507,-4.87587c1.07871,0 1.76835,3.31673 3.87682,4.8488c2.37346,1.7246 17.36506,3.38547 17.36506,3.38547c0,0 -15.19246,1.30561 -17.28327,3.20037z" fill="url(#color-14)" stroke="none" stroke-width="0" stroke-linecap="butt"/><path d="M292.04855,181.37091l-10.81831,-14.27639l0.5075,9.77138l-13.28,-10.55522l1.88678,-5.11173l8.29807,8.831l-0.94869,-11.64252l3.98515,4.53399z" fill="#4afffc" stroke="none" stroke-width="0" stroke-linecap="butt"/><path d="M266.80451,165.43985l-4.35715,-6.54286l2.41429,-2.21428l3.8,3.47143z" fill="#4afffc" stroke="none" stroke-width="0" stroke-linecap="butt"/><path d="M260.94735,157.59697l-3.93707,-0.42914l0.27448,-8.9819l-2.17813,3.4342l-6.15928,-5.75173l1.05714,-0.85715l5.01632,4.02592l3.33989,-4.92465l0.60561,11.00289l4.6096,0.12441z" fill="#4afffc" stroke="none" stroke-width="0" stroke-linecap="butt"/><path d="M268.0595,106.4121l-9.35076,4.10892l4.71803,1.52318l-4.94524,4.17048l-1.21877,-2.2169l2.78429,-1.73644l-4.3041,-1.74452z" fill="#4afffc" stroke="none" stroke-width="0" stroke-linecap="butt"/><path d="M222.9112,239.88479l7.19145,-12.95293l-9.67867,-1.08172l9.11611,-16.00816l1.34036,3.53897l-7.1509,11.00149l10.80932,0.90074z" fill="#4afffc" stroke="none" stroke-width="0" stroke-linecap="butt"/><path d="M173.83484,154.58338l17.46267,2.51136l-6.15289,-6.48669l20.6793,-3.59115l0.62555,1.77535l-15.38331,4.39619l9.0569,7.86754l-6.20427,-0.68327z" fill="#4afffc" stroke="none" stroke-width="0" stroke-linecap="butt"/><path d="M245.00854,136.36151l5.48884,-9.93251l-4.22116,2.25857l5.51549,-11.63913l1.2596,1.7402l-4.74149,7.9016l4.843,-3.01716l-6.81299,12.76227z" fill="#4afffc" stroke="none" stroke-width="0" stroke-linecap="butt"/><path d="M254.586,117.543l-1.28572,-1.79166l2.25596,-0.85715l1.28572,2.3631z" fill="#4afffc" stroke="none" stroke-width="0" stroke-linecap="butt"/><path d="M231.248,208.6891l3.16707,-4.96372l-3.91924,-6.35433l10.85107,-4.50988l-10.20267,-23.35518l2.23681,1.93183l11.6625,22.12026l-10.51928,4.54852l4.15698,6.66019l-6.20246,7.61462z" fill="#4afffc" stroke="none" stroke-width="0" stroke-linecap="butt"/><path d="M230.96443,166.73832l-2.60592,-9.75696l5.54834,0.72889l8.49335,-0.52179l-7.35387,-2.74195l2.62775,-7.91958l1.2201,0.603l-1.56526,6.23871l8.1044,4.33302l-11.51102,1.14195l-3.99103,-0.84583l3.50747,10.96915z" fill="#4afffc" stroke="none" stroke-width="0" stroke-linecap="butt"/><path d="M209.92311,147.85605l-1.63636,-1.63636l14.73412,3.88925l11.35679,-4.34379l0.72727,0.72727l-11.55473,6.00706z" fill="#4afffc" stroke="none" stroke-width="0" stroke-linecap="butt"/></g></g></svg>