<svg version="1.1" xmlns="http://www.w3.org/2000/svg" xmlns:xlink="http://www.w3.org/1999/xlink" width="136.8201" height="104.04206" viewBox="0,0,136.8201,104.04206"><g transform="translate(-171.58995,-127.97897)"><g data-paper-data="{&quot;isPaintingLayer&quot;:true}" fill-rule="nonzero" stroke="none" stroke-width="0" stroke-linecap="butt" stroke-linejoin="miter" stroke-miterlimit="10" stroke-dasharray="" stroke-dashoffset="0" style="mix-blend-mode: normal"><path d="M308.41005,201.33836z" fill="#ffffff"/><g fill="#72beff"><path d="M209.18506,215.67498v-68.22545h16.83408v68.22545z"/><path d="M284.28591,214.13815v-68.22545h16.12117v68.22545z"/><path d="M208.96301,149.50888v-21.52991h91.33304v21.52991z"/><path d="M226.48395,211.41903c0,10.85826 -12.28846,19.66062 -27.447,19.66062c-15.15854,0 -27.447,-8.80235 -27.447,-19.66062c0,-10.85826 12.28846,-19.66059 27.447,-19.66059c15.15854,0 27.447,8.80235 27.447,19.66059z"/><path d="M300.51545,212.10506c0,10.99927 -12.44802,19.91597 -27.80344,19.91597c-15.3554,0 -27.80344,-8.9167 -27.80344,-19.91597c0,-10.99925 12.44804,-19.91595 27.80344,-19.91595c15.3554,0 27.80344,8.91665 27.80344,19.91595z"/></g></g></g></svg>