<svg version="1.1" xmlns="http://www.w3.org/2000/svg" xmlns:xlink="http://www.w3.org/1999/xlink" width="76.73199" height="95.91247" viewBox="0,0,76.73199,95.91247"><g transform="translate(-201.634,-132.04377)"><g data-paper-data="{&quot;isPaintingLayer&quot;:true}" fill="#000000" fill-rule="nonzero" stroke="none" stroke-width="0" stroke-linecap="butt" stroke-linejoin="miter" stroke-miterlimit="10" stroke-dasharray="" stroke-dashoffset="0" style="mix-blend-mode: normal"><g><path d="M278.366,193.15353c0,12.00518 -10.4965,20.13213 -25.74254,21.5616c-2.06214,0.19336 -10.20462,-3.94875 -12.13288,-3.94875c-2.3822,0 -9.63741,4.11165 -12.2465,3.85134c-15.11672,-1.5081 -26.61007,-9.89465 -26.61007,-21.51756c0,-14.37038 19.63802,-21.00698 19.63802,-21.00698c0,0 6.49825,-9.75982 9.1313,-15.84646c3.12804,-7.23095 7.9114,-24.20295 7.9114,-24.20295c0,0 5.67322,16.49248 9.13628,23.40274c3.088,6.16182 10.14855,16.07149 10.14855,16.07149c0,0 20.76637,6.10147 20.76637,21.63552z"/><path d="M251.61177,220.06274c4.82998,0.75781 -5.48966,8.17166 -10.85035,7.88542c-5.36069,-0.28624 -14.89431,-5.43376 -10.38285,-7.3808c4.12455,-1.78009 4.83927,-13.65539 10.19993,-13.36915c5.36069,0.28624 5.97885,12.07149 11.03327,12.86453z"/></g></g></g></svg>